<?xml version="1.0" encoding="utf-8"?>
<!-- Generator: Adobe Illustrator 26.3.1, SVG Export Plug-In . SVG Version: 6.00 Build 0)  -->
<svg version="1.1" id="Layer_1" xmlns="http://www.w3.org/2000/svg" xmlns:xlink="http://www.w3.org/1999/xlink" x="0px" y="0px"
	 viewBox="0 0 24.36 30" style="enable-background:new 0 0 24.36 30;" xml:space="preserve">
<style type="text/css">
	.st0{fill:#D6D7D9;}
	.st1{fill:#101820;}
</style>
<g>
	<rect x="8.12" y="3.73" class="st0" width="3.72" height="16.91"/>
	<path class="st0" d="M7.79,16.24c-0.19,0-0.34-0.15-0.34-0.34V3.73H3.73v13.19h3.72h0.68V15.9C8.12,16.09,7.97,16.24,7.79,16.24z"
		/>
</g>
<g>
	<rect x="16.92" y="3.73" class="st1" width="3.72" height="16.91"/>
	<path class="st1" d="M16.58,16.24c-0.19,0-0.34-0.15-0.34-0.34V3.73h-3.72v13.19h3.72h0.68V15.9
		C16.92,16.09,16.76,16.24,16.58,16.24z"/>
</g>
<g>
	<rect x="5.88" y="25.45" class="st0" width="3.72" height="2.98"/>
</g>
<g>
	<rect x="14.76" y="25.45" class="st0" width="3.72" height="2.98"/>
</g>
<g>
	<rect x="10.32" y="25.45" class="st0" width="3.72" height="2.98"/>
</g>
<g>
	<rect x="0.25" y="24" class="st0" width="23.87" height="0.25"/>
</g>
<g>
	<path class="st0" d="M24.12,0.25v29.51H0.25V0.25H24.12 M24.36,0h-0.25H0.25H0v0.25v29.51V30h0.25h23.87h0.25v-0.25V0.25V0L24.36,0
		z"/>
</g>
</svg>
