<?xml version="1.0" encoding="UTF-8"?>
<svg width="815px" height="168px" viewBox="0 0 815 168" version="1.1" xmlns="http://www.w3.org/2000/svg" xmlns:xlink="http://www.w3.org/1999/xlink">
    <title>Group 188</title>
    <defs>
        <polygon id="path-1" points="0 167.048 814.088 167.048 814.088 0 0 0"></polygon>
    </defs>
    <g id="Page-1" stroke="none" stroke-width="1" fill="none" fill-rule="evenodd">
        <g id="03.-Manifesto" transform="translate(-363.000000, -2510.000000)">
            <g id="Group-188" transform="translate(363.000000, 2510.000000)">
                <polygon id="Stroke-1" stroke="#FFFFFF" stroke-width="0.5" points="40.4863 0.7442 40.4863 1.0482 38.2063 3.4412 28.6703 28.6702 27.2263 28.6702 20.5013 9.2552 13.6243 28.6702 12.2183 28.6702 2.7193 3.4412 0.2503 1.0482 0.2503 0.7442 8.3813 0.7442 8.3813 1.0482 6.3293 3.4412 12.9403 21.2232 13.8903 24.2242 19.8173 7.3172 17.4613 1.0482 17.4613 0.7442 24.6803 0.7442 24.6803 1.0482 21.9443 3.4412 28.0623 21.2232 28.9743 24.1862 36.8003 3.4412 34.5213 1.0482 34.5213 0.7442"></polygon>
                <path d="M60.1162,28.1192 C58.9892,28.4862 57.4752,28.6702 55.5752,28.6702 L43.0752,28.6702 L43.0752,28.3662 L45.5072,25.9732 L45.5072,3.4412 L43.0752,1.0482 L43.0752,0.7442 L60.1352,0.7442 L61.1612,6.5192 L60.7812,6.5192 L56.7162,1.9982 L48.8502,1.9982 L48.8502,13.3962 L54.5122,13.3962 L56.8292,10.7742 L57.1712,10.7742 L57.1712,17.2332 L56.8292,17.2332 L54.5122,14.6122 L48.8502,14.6122 L48.8502,27.4162 L55.0062,27.4162 C56.2472,27.4162 57.2852,27.0812 58.1212,26.4092 C58.9572,25.7382 59.5782,24.7952 59.9832,23.5792 L60.1352,23.5412 L62.9852,26.2382 C62.1992,27.1252 61.2432,27.7522 60.1162,28.1192 Z" id="Stroke-3" stroke="#FFFFFF" stroke-width="0.5"></path>
                <path d="M91.124,28.1192 C89.997,28.4862 88.483,28.6702 86.583,28.6702 L74.083,28.6702 L74.083,28.3662 L76.515,25.9732 L76.515,3.4412 L74.083,1.0482 L74.083,0.7442 L91.143,0.7442 L92.169,6.5192 L91.789,6.5192 L87.724,1.9982 L79.858,1.9982 L79.858,13.3962 L85.52,13.3962 L87.837,10.7742 L88.179,10.7742 L88.179,17.2332 L87.837,17.2332 L85.52,14.6122 L79.858,14.6122 L79.858,27.4162 L86.014,27.4162 C87.255,27.4162 88.293,27.0812 89.129,26.4092 C89.965,25.7382 90.586,24.7952 90.991,23.5792 L91.143,23.5412 L93.993,26.2382 C93.207,27.1252 92.251,27.7522 91.124,28.1192 Z" id="Stroke-5" stroke="#FFFFFF" stroke-width="0.5"></path>
                <polygon id="Stroke-7" stroke="#FFFFFF" stroke-width="0.5" points="121.96 28.3662 121.96 28.6702 112.841 28.6702 112.841 28.3662 114.969 26.0112 107.902 15.7142 100.531 25.9722 102.962 28.3662 102.962 28.6702 95.592 28.6702 95.592 28.3662 98.821 25.9722 107.066 14.4982 99.353 3.4412 96.542 1.0482 96.542 0.7442 105.66 0.7442 105.66 1.0482 103.532 3.4042 109.611 12.2952 115.957 3.4412 113.905 1.0482 113.905 0.7442 121.01 0.7442 121.01 1.0482 117.667 3.4412 110.409 13.4342 119.11 25.9722"></polygon>
                <polygon id="Stroke-9" stroke="#FFFFFF" stroke-width="0.5" points="127.3208 25.9727 127.3208 3.4417 125.2688 1.0477 125.2688 0.7437 132.7538 0.7437 132.7538 1.0477 130.6638 3.4417 130.6638 25.9727 133.1338 28.3667 133.1338 28.6697 124.8888 28.6697 124.8888 28.3667"></polygon>
                <path d="M139.1763,26.6563 L137.3523,28.6703 L137.0873,28.6703 L137.0873,21.0713 L138.3403,21.0713 C138.6703,23.2503 139.4743,24.9403 140.7533,26.1433 C142.0323,27.3463 143.6593,27.9483 145.6353,27.9483 C147.3833,27.9483 148.8143,27.4483 149.9283,26.4473 C151.0433,25.4473 151.6003,24.0733 151.6003,22.3253 C151.6003,21.2863 151.3913,20.3753 150.9733,19.5903 C150.5553,18.8043 149.8533,18.0633 148.8643,17.3673 C147.8773,16.6703 146.5093,15.9423 144.7613,15.1823 C142.2543,14.0933 140.4433,12.9153 139.3283,11.6483 C138.2143,10.3823 137.6563,8.8873 137.6563,7.1653 C137.6563,5.6713 138.0363,4.4043 138.7963,3.3663 C139.5563,2.3273 140.5503,1.5493 141.7793,1.0293 C143.0073,0.5103 144.3313,0.2503 145.7493,0.2503 C147.4713,0.2503 149.0233,0.6423 150.4043,1.4273 C151.7843,2.2143 152.8293,3.3023 153.5383,4.6953 L150.6883,7.2033 L150.4613,7.0893 C150.4613,5.3163 150.0173,3.9233 149.1313,2.9103 C148.2443,1.8963 147.0283,1.3903 145.4833,1.3903 C144.0393,1.3903 142.8493,1.8023 141.9123,2.6253 C140.9743,3.4483 140.5063,4.5823 140.5063,6.0253 C140.5063,7.3683 140.9813,8.5083 141.9313,9.4453 C142.8813,10.3823 144.5723,11.3703 147.0033,12.4083 C149.6373,13.5733 151.5373,14.8463 152.7023,16.2263 C153.8673,17.6073 154.4503,19.2473 154.4503,21.1473 C154.4503,22.7683 154.0573,24.1863 153.2723,25.4023 C152.4873,26.6183 151.4363,27.5503 150.1183,28.1953 C148.8013,28.8413 147.3583,29.1643 145.7873,29.1643 C144.4703,29.1643 143.2483,28.9493 142.1213,28.5183 C140.9933,28.0883 140.0123,27.4673 139.1763,26.6563 Z" id="Stroke-11" stroke="#FFFFFF" stroke-width="0.5"></path>
                <polygon id="Stroke-13" stroke="#FFFFFF" stroke-width="0.5" points="166.1558 25.8965 166.1558 1.9985 160.0008 1.9985 155.9348 6.8995 155.5548 6.8995 156.5808 0.7445 179.0738 0.7445 180.0618 6.8995 179.6818 6.8995 175.6158 1.9985 169.4988 1.9985 169.4988 25.8965 171.8548 28.3665 171.8548 28.6695 163.7618 28.6695 163.7618 28.3665"></polygon>
                <polygon id="Stroke-15" stroke="#FFFFFF" stroke-width="0.5" points="199.2915 25.8965 199.2915 1.9985 193.1365 1.9985 189.0705 6.8995 188.6905 6.8995 189.7165 0.7445 212.2095 0.7445 213.1975 6.8995 212.8175 6.8995 208.7515 1.9985 202.6345 1.9985 202.6345 25.8965 204.9905 28.3665 204.9905 28.6695 196.8975 28.6695 196.8975 28.3665"></polygon>
                <path d="M220.1538,7.3936 C219.3428,9.2926 218.9378,11.4846 218.9378,13.9666 C218.9378,16.6766 219.4008,19.1016 220.3248,21.2426 C221.2498,23.3826 222.5348,25.0476 224.1818,26.2386 C225.8278,27.4286 227.6898,28.0246 229.7668,28.0246 C231.6668,28.0246 233.3508,27.5046 234.8198,26.4666 C236.2888,25.4276 237.4348,23.9586 238.2578,22.0596 C239.0818,20.1596 239.4928,17.9566 239.4928,15.4486 C239.4928,12.7626 239.0308,10.3506 238.1068,8.2096 C237.1818,6.0706 235.8968,4.4046 234.2498,3.2136 C232.6038,2.0236 230.7418,1.4276 228.6648,1.4276 C226.7648,1.4276 225.0738,1.9476 223.5918,2.9866 C222.1108,4.0246 220.9648,5.4936 220.1538,7.3936 Z M217.0388,22.2486 C215.8478,20.0706 215.2528,17.5886 215.2528,14.8016 C215.2528,12.0156 215.8418,9.5146 217.0198,7.2976 C218.1968,5.0816 219.8438,3.3536 221.9588,2.1126 C224.0738,0.8716 226.4738,0.2496 229.1588,0.2496 C231.8688,0.2496 234.2878,0.8586 236.4158,2.0746 C238.5438,3.2896 240.2018,4.9876 241.3928,7.1646 C242.5838,9.3436 243.1788,11.8266 243.1788,14.6126 C243.1788,17.3986 242.5898,19.8996 241.4118,22.1166 C240.2338,24.3316 238.5878,26.0616 236.4728,27.3026 C234.3578,28.5436 231.9578,29.1646 229.2728,29.1646 C226.5628,29.1646 224.1438,28.5566 222.0158,27.3406 C219.8878,26.1246 218.2288,24.4276 217.0388,22.2486 Z" id="Stroke-17" stroke="#FFFFFF" stroke-width="0.5"></path>
                <path d="M272.1167,28.1192 C270.9897,28.4862 269.4757,28.6702 267.5757,28.6702 L255.0757,28.6702 L255.0757,28.3662 L257.5077,25.9732 L257.5077,3.4412 L255.0757,1.0482 L255.0757,0.7442 L272.1357,0.7442 L273.1617,6.5192 L272.7817,6.5192 L268.7167,1.9982 L260.8507,1.9982 L260.8507,13.3962 L266.5127,13.3962 L268.8297,10.7742 L269.1717,10.7742 L269.1717,17.2332 L268.8297,17.2332 L266.5127,14.6122 L260.8507,14.6122 L260.8507,27.4162 L267.0067,27.4162 C268.2477,27.4162 269.2857,27.0812 270.1217,26.4092 C270.9577,25.7382 271.5777,24.7952 271.9837,23.5792 L272.1357,23.5412 L274.9857,26.2382 C274.1997,27.1252 273.2437,27.7522 272.1167,28.1192" id="Fill-19" fill="#B67CEE"></path>
                <path d="M287.6025,13.0547 C289.6285,13.0547 291.2185,12.5737 292.3715,11.6107 C293.5235,10.6487 294.0995,9.3187 294.0995,7.6207 C294.0995,5.8487 293.5105,4.4677 292.3325,3.4797 C291.1555,2.4917 289.5275,1.9977 287.4505,1.9977 L283.9165,1.9977 L283.9165,13.0547 L287.6025,13.0547 Z M300.7865,30.1897 L295.7715,28.4047 L285.8935,14.3087 L283.9165,14.3087 L283.9165,25.9727 L286.3865,28.3667 L286.3865,28.6697 L278.1425,28.6697 L278.1425,28.3667 L280.5735,25.9727 L280.5735,3.4417 L278.1425,1.0477 L278.1425,0.7437 L287.7925,0.7437 C290.8315,0.7437 293.2385,1.3147 295.0115,2.4537 C296.7845,3.5937 297.6715,5.2017 297.6715,7.2797 C297.6715,9.4327 296.7785,11.1417 294.9925,12.4087 C293.2065,13.6747 290.7565,14.3087 287.6405,14.3087 L287.1465,14.3087 L290.8315,15.5627 L300.9385,29.9997 L300.7865,30.1897 Z" id="Fill-21" fill="#B67CEE"></path>
                <path d="M319.2939,17.4619 L314.3549,5.9489 L309.4539,17.4619 L319.2939,17.4619 Z M328.9819,28.3659 L328.9819,28.6699 L320.4719,28.6699 L320.4719,28.3659 L322.9409,25.9729 L319.8259,18.7159 L308.8839,18.7159 L305.8059,25.9729 L308.2379,28.3659 L308.2379,28.6699 L301.6269,28.6699 L301.6269,28.3659 L304.2859,25.9729 L313.5949,4.2399 L312.4549,1.8459 L315.6079,0.4019 L326.6269,25.9729 L328.9819,28.3659 Z" id="Fill-23" fill="#B67CEE"></path>
                <path d="M333.1274,26.6563 L331.3034,28.6703 L331.0384,28.6703 L331.0384,21.0713 L332.2914,21.0713 C332.6214,23.2503 333.4254,24.9403 334.7044,26.1433 C335.9834,27.3463 337.6104,27.9483 339.5864,27.9483 C341.3344,27.9483 342.7654,27.4483 343.8794,26.4473 C344.9944,25.4473 345.5514,24.0733 345.5514,22.3253 C345.5514,21.2863 345.3424,20.3753 344.9244,19.5903 C344.5064,18.8043 343.8044,18.0633 342.8154,17.3673 C341.8284,16.6703 340.4604,15.9423 338.7124,15.1823 C336.2054,14.0933 334.3944,12.9153 333.2794,11.6483 C332.1654,10.3823 331.6074,8.8873 331.6074,7.1653 C331.6074,5.6713 331.9874,4.4043 332.7474,3.3663 C333.5074,2.3273 334.5014,1.5493 335.7304,1.0293 C336.9584,0.5103 338.2824,0.2503 339.7004,0.2503 C341.4224,0.2503 342.9744,0.6423 344.3554,1.4273 C345.7354,2.2143 346.7804,3.3023 347.4894,4.6953 L344.6394,7.2033 L344.4124,7.0893 C344.4124,5.3163 343.9684,3.9233 343.0824,2.9103 C342.1954,1.8963 340.9794,1.3903 339.4344,1.3903 C337.9904,1.3903 336.8004,1.8023 335.8634,2.6253 C334.9254,3.4483 334.4574,4.5823 334.4574,6.0253 C334.4574,7.3683 334.9324,8.5083 335.8824,9.4453 C336.8324,10.3823 338.5234,11.3703 340.9544,12.4083 C343.5884,13.5733 345.4884,14.8463 346.6534,16.2263 C347.8184,17.6073 348.4014,19.2473 348.4014,21.1473 C348.4014,22.7683 348.0084,24.1863 347.2234,25.4023 C346.4384,26.6183 345.3874,27.5503 344.0694,28.1953 C342.7524,28.8413 341.3094,29.1643 339.7384,29.1643 C338.4214,29.1643 337.1994,28.9493 336.0724,28.5183 C334.9444,28.0883 333.9634,27.4673 333.1274,26.6563" id="Fill-25" fill="#B67CEE"></path>
                <path d="M369.3965,28.1192 C368.2695,28.4862 366.7555,28.6702 364.8555,28.6702 L352.3555,28.6702 L352.3555,28.3662 L354.7875,25.9732 L354.7875,3.4412 L352.3555,1.0482 L352.3555,0.7442 L369.4155,0.7442 L370.4415,6.5192 L370.0615,6.5192 L365.9965,1.9982 L358.1305,1.9982 L358.1305,13.3962 L363.7925,13.3962 L366.1095,10.7742 L366.4515,10.7742 L366.4515,17.2332 L366.1095,17.2332 L363.7925,14.6122 L358.1305,14.6122 L358.1305,27.4162 L364.2865,27.4162 C365.5275,27.4162 366.5655,27.0812 367.4015,26.4092 C368.2375,25.7382 368.8585,24.7952 369.2635,23.5792 L369.4155,23.5412 L372.2655,26.2382 C371.4795,27.1252 370.5235,27.7522 369.3965,28.1192" id="Fill-27" fill="#B67CEE"></path>
                <polygon id="Stroke-29" stroke="#FFFFFF" stroke-width="0.5" points="392.064 25.8965 392.064 1.9985 385.909 1.9985 381.843 6.8995 381.463 6.8995 382.489 0.7445 404.982 0.7445 405.97 6.8995 405.59 6.8995 401.524 1.9985 395.407 1.9985 395.407 25.8965 397.763 28.3665 397.763 28.6695 389.67 28.6695 389.67 28.3665"></polygon>
                <polygon id="Stroke-31" stroke="#FFFFFF" stroke-width="0.5" points="435.7612 28.3662 435.7612 28.6702 427.5162 28.6702 427.5162 28.3662 429.9482 25.9722 429.9482 14.6122 414.3312 14.6122 414.3312 25.9722 416.8012 28.3662 416.8012 28.6702 408.5572 28.6702 408.5572 28.3662 410.9892 25.9722 410.9892 3.4412 408.5572 1.0482 408.5572 0.7442 416.8012 0.7442 416.8012 1.0482 414.3312 3.4412 414.3312 13.3962 429.9482 13.3962 429.9482 3.4412 427.6682 1.0482 427.6682 0.7442 435.5712 0.7442 435.5712 1.0482 433.2912 3.4412 433.2912 25.9722"></polygon>
                <path d="M457.2896,28.1192 C456.1626,28.4862 454.6486,28.6702 452.7496,28.6702 L440.2496,28.6702 L440.2496,28.3662 L442.6816,25.9732 L442.6816,3.4412 L440.2496,1.0482 L440.2496,0.7442 L457.3096,0.7442 L458.3346,6.5192 L457.9546,6.5192 L453.8896,1.9982 L446.0236,1.9982 L446.0236,13.3962 L451.6856,13.3962 L454.0036,10.7742 L454.3456,10.7742 L454.3456,17.2332 L454.0036,17.2332 L451.6856,14.6122 L446.0236,14.6122 L446.0236,27.4162 L452.1796,27.4162 C453.4206,27.4162 454.4596,27.0812 455.2956,26.4092 C456.1316,25.7382 456.7516,24.7952 457.1566,23.5792 L457.3096,23.5412 L460.1586,26.2382 C459.3736,27.1252 458.4166,27.7522 457.2896,28.1192 Z" id="Stroke-33" stroke="#FFFFFF" stroke-width="0.5"></path>
                <path d="M487.0239,17.4619 L482.0849,5.9489 L477.1839,17.4619 L487.0239,17.4619 Z M496.7119,28.3659 L496.7119,28.6699 L488.2019,28.6699 L488.2019,28.3659 L490.6709,25.9729 L487.5559,18.7159 L476.6139,18.7159 L473.5369,25.9729 L475.9679,28.3659 L475.9679,28.6699 L469.3569,28.6699 L469.3569,28.3659 L472.0159,25.9729 L481.3249,4.2399 L480.1849,1.8459 L483.3379,0.4019 L494.3569,25.9729 L496.7119,28.3659 Z" id="Fill-35" fill="#DB643B"></path>
                <path d="M508.7612,13.0547 C510.7872,13.0547 512.3762,12.5737 513.5302,11.6107 C514.6822,10.6487 515.2582,9.3187 515.2582,7.6207 C515.2582,5.8487 514.6692,4.4677 513.4912,3.4797 C512.3142,2.4917 510.6862,1.9977 508.6092,1.9977 L505.0752,1.9977 L505.0752,13.0547 L508.7612,13.0547 Z M521.9452,30.1897 L516.9302,28.4047 L507.0512,14.3087 L505.0752,14.3087 L505.0752,25.9727 L507.5452,28.3667 L507.5452,28.6697 L499.3002,28.6697 L499.3002,28.3667 L501.7322,25.9727 L501.7322,3.4417 L499.3002,1.0477 L499.3002,0.7437 L508.9502,0.7437 C511.9902,0.7437 514.3972,1.3147 516.1702,2.4537 C517.9432,3.5937 518.8292,5.2017 518.8292,7.2797 C518.8292,9.4327 517.9372,11.1417 516.1512,12.4087 C514.3652,13.6747 511.9142,14.3087 508.7992,14.3087 L508.3052,14.3087 L511.9902,15.5627 L522.0972,29.9997 L521.9452,30.1897 Z" id="Fill-37" fill="#DB643B"></path>
                <path d="M541.5913,21.5655 C541.5913,19.3615 540.9333,17.6145 539.6153,16.3225 C538.2993,15.0305 536.4373,14.3835 534.0303,14.3835 L530.4593,14.3835 L530.4593,24.4535 C530.9153,25.5425 531.6243,26.3775 532.5873,26.9605 C533.5493,27.5435 534.6643,27.8345 535.9303,27.8345 C537.6783,27.8345 539.0593,27.2645 540.0713,26.1255 C541.0853,24.9845 541.5913,23.4645 541.5913,21.5655 L541.5913,21.5655 Z M530.4593,13.1685 L533.4613,13.1685 C535.4873,13.1685 537.0453,12.6685 538.1343,11.6685 C539.2233,10.6675 539.7683,9.2425 539.7683,7.3935 C539.7683,5.6455 539.2423,4.3095 538.1913,3.3845 C537.1403,2.4605 535.6133,1.9985 533.6123,1.9985 L530.4593,1.9985 L530.4593,13.1685 Z M544.0613,17.0055 C544.8973,18.1455 545.3153,19.5395 545.3153,21.1855 C545.3153,22.6795 544.9543,24.0355 544.2323,25.2515 C543.5103,26.4665 542.4783,27.4225 541.1363,28.1195 C539.7933,28.8155 538.2363,29.1645 536.4623,29.1645 C533.6003,29.1645 531.5733,28.2015 530.3833,26.2765 L530.3833,28.6695 L524.6843,28.6695 L524.6843,28.3665 L527.1153,25.9725 L527.1153,3.4415 L524.6843,1.0475 L524.6843,0.7445 L533.8413,0.7445 C536.6273,0.7445 538.8373,1.3015 540.4713,2.4165 C542.1053,3.5305 542.9213,5.0625 542.9213,7.0135 C542.9213,8.1785 542.6233,9.2295 542.0283,10.1675 C541.4333,11.1045 540.6543,11.8645 539.6923,12.4465 C538.7303,13.0295 537.7033,13.3965 536.6143,13.5485 C538.0833,13.5735 539.4833,13.8715 540.8133,14.4415 C542.1433,15.0105 543.2253,15.8665 544.0613,17.0055 L544.0613,17.0055 Z" id="Fill-39" fill="#DB643B"></path>
                <polygon id="Fill-41" fill="#DB643B" points="552.0435 25.9727 552.0435 3.4417 549.9915 1.0477 549.9915 0.7437 557.4775 0.7437 557.4775 1.0477 555.3875 3.4417 555.3875 25.9727 557.8565 28.3667 557.8565 28.6697 549.6115 28.6697 549.6115 28.3667"></polygon>
                <polygon id="Fill-43" fill="#DB643B" points="571.0425 25.8965 571.0425 1.9985 564.8875 1.9985 560.8215 6.8995 560.4415 6.8995 561.4685 0.7445 583.9605 0.7445 584.9485 6.8995 584.5685 6.8995 580.5035 1.9985 574.3865 1.9985 574.3865 25.8965 576.7415 28.3665 576.7415 28.6695 568.6485 28.6695 568.6485 28.3665"></polygon>
                <path d="M596.9956,13.0547 C599.0216,13.0547 600.6116,12.5737 601.7646,11.6107 C602.9166,10.6487 603.4926,9.3187 603.4926,7.6207 C603.4926,5.8487 602.9036,4.4677 601.7256,3.4797 C600.5486,2.4917 598.9216,1.9977 596.8446,1.9977 L593.3096,1.9977 L593.3096,13.0547 L596.9956,13.0547 Z M610.1806,30.1897 L605.1646,28.4047 L595.2866,14.3087 L593.3096,14.3087 L593.3096,25.9727 L595.7796,28.3667 L595.7796,28.6697 L587.5356,28.6697 L587.5356,28.3667 L589.9676,25.9727 L589.9676,3.4417 L587.5356,1.0477 L587.5356,0.7437 L597.1856,0.7437 C600.2246,0.7437 602.6316,1.3147 604.4046,2.4537 C606.1786,3.5937 607.0646,5.2017 607.0646,7.2797 C607.0646,9.4327 606.1716,11.1417 604.3866,12.4087 C602.5996,13.6747 600.1496,14.3087 597.0336,14.3087 L596.5396,14.3087 L600.2246,15.5627 L610.3316,29.9997 L610.1806,30.1897 Z" id="Fill-45" fill="#DB643B"></path>
                <path d="M628.687,17.4619 L623.748,5.9489 L618.847,17.4619 L628.687,17.4619 Z M638.375,28.3659 L638.375,28.6699 L629.865,28.6699 L629.865,28.3659 L632.334,25.9729 L629.219,18.7159 L618.277,18.7159 L615.2,25.9729 L617.631,28.3659 L617.631,28.6699 L611.02,28.6699 L611.02,28.3659 L613.679,25.9729 L622.988,4.2399 L621.848,1.8459 L625.001,0.4019 L636.02,25.9729 L638.375,28.3659 Z" id="Fill-47" fill="#DB643B"></path>
                <path d="M650.4233,13.0547 C652.4493,13.0547 654.0393,12.5737 655.1923,11.6107 C656.3443,10.6487 656.9203,9.3187 656.9203,7.6207 C656.9203,5.8487 656.3313,4.4677 655.1533,3.4797 C653.9763,2.4917 652.3493,1.9977 650.2723,1.9977 L646.7373,1.9977 L646.7373,13.0547 L650.4233,13.0547 Z M663.6083,30.1897 L658.5923,28.4047 L648.7143,14.3087 L646.7373,14.3087 L646.7373,25.9727 L649.2073,28.3667 L649.2073,28.6697 L640.9633,28.6697 L640.9633,28.3667 L643.3953,25.9727 L643.3953,3.4417 L640.9633,1.0477 L640.9633,0.7437 L650.6133,0.7437 C653.6523,0.7437 656.0593,1.3147 657.8323,2.4537 C659.6063,3.5937 660.4923,5.2017 660.4923,7.2797 C660.4923,9.4327 659.5993,11.1417 657.8143,12.4087 C656.0273,13.6747 653.5773,14.3087 650.4613,14.3087 L649.9673,14.3087 L653.6523,15.5627 L663.7593,29.9997 L663.6083,30.1897 Z" id="Fill-49" fill="#DB643B"></path>
                <polygon id="Fill-51" fill="#DB643B" points="673.5659 25.9727 673.5659 15.2577 665.0549 3.4417 661.9779 1.0477 661.9779 0.7437 671.8569 0.7437 671.8569 1.0477 669.1969 3.4797 676.3019 13.3587 683.3689 3.4797 680.7479 1.0477 680.7479 0.7437 687.8899 0.7437 687.8899 1.0477 685.0789 3.4417 676.9099 14.7647 676.9099 25.9727 679.3789 28.3667 679.3789 28.6697 671.0959 28.6697 671.0959 28.3667"></polygon>
                <path d="M707.8804,13.0547 C709.9064,13.0547 711.4954,12.5737 712.6494,11.6107 C713.8014,10.6487 714.3774,9.3187 714.3774,7.6207 C714.3774,5.8487 713.7884,4.4677 712.6104,3.4797 C711.4334,2.4917 709.8054,1.9977 707.7284,1.9977 L704.1944,1.9977 L704.1944,13.0547 L707.8804,13.0547 Z M721.0644,30.1897 L716.0494,28.4047 L706.1704,14.3087 L704.1944,14.3087 L704.1944,25.9727 L706.6644,28.3667 L706.6644,28.6697 L698.4194,28.6697 L698.4194,28.3667 L700.8514,25.9727 L700.8514,3.4417 L698.4194,1.0477 L698.4194,0.7437 L708.0694,0.7437 C711.1094,0.7437 713.5164,1.3147 715.2894,2.4537 C717.0624,3.5937 717.9484,5.2017 717.9484,7.2797 C717.9484,9.4327 717.0564,11.1417 715.2704,12.4087 C713.4844,13.6747 711.0334,14.3087 707.9184,14.3087 L707.4244,14.3087 L711.1094,15.5627 L721.2164,29.9997 L721.0644,30.1897 Z" id="Fill-53" fill="#DB643B"></path>
                <path d="M725.7788,24.624 C724.9188,23.192 724.4878,21.553 724.4878,19.703 L724.4878,3.441 L722.3978,1.048 L722.3978,0.744 L730.1488,0.744 L730.1488,1.048 L727.8688,3.441 L727.8688,19.437 C727.8688,22.072 728.5468,24.136 729.9018,25.631 C731.2568,27.125 733.2518,27.872 735.8858,27.872 C738.4688,27.872 740.4828,27.119 741.9268,25.611 C743.3708,24.104 744.0918,22.06 744.0918,19.476 L744.0918,3.441 L741.6608,1.048 L741.6608,0.744 L748.0068,0.744 L748.0068,1.048 L745.5368,3.441 L745.5368,19.21 C745.5368,22.274 744.6498,24.7 742.8768,26.485 C741.1038,28.271 738.5958,29.164 735.3538,29.164 C733.0988,29.164 731.1558,28.766 729.5218,27.967 C727.8878,27.169 726.6398,26.055 725.7788,24.624" id="Fill-55" fill="#DB643B"></path>
                <path d="M754.4692,3.4414 L752.1892,1.0474 L752.1892,0.7444 L760.4722,0.7444 L760.4722,1.0474 L757.8122,3.4414 L757.8122,27.4164 L763.6252,27.4164 C764.8662,27.4164 765.9052,27.0814 766.7402,26.4094 C767.5762,25.7384 768.1982,24.7954 768.6032,23.5794 L768.7542,23.5414 L771.6042,26.2384 C770.8442,27.1254 769.9012,27.7524 768.7742,28.1194 C767.6472,28.4864 766.1202,28.6704 764.1962,28.6704 L752.0372,28.6704 L752.0372,28.3664 L754.4692,25.9724 L754.4692,3.4414 Z" id="Fill-57" fill="#DB643B"></path>
                <path d="M791.231,28.1192 C790.104,28.4862 788.59,28.6702 786.691,28.6702 L774.191,28.6702 L774.191,28.3662 L776.623,25.9732 L776.623,3.4412 L774.191,1.0482 L774.191,0.7442 L791.251,0.7442 L792.276,6.5192 L791.896,6.5192 L787.831,1.9982 L779.966,1.9982 L779.966,13.3962 L785.627,13.3962 L787.945,10.7742 L788.287,10.7742 L788.287,17.2332 L787.945,17.2332 L785.627,14.6122 L779.966,14.6122 L779.966,27.4162 L786.122,27.4162 C787.362,27.4162 788.401,27.0812 789.237,26.4092 C790.073,25.7382 790.693,24.7952 791.098,23.5792 L791.251,23.5412 L794.1,26.2382 C793.315,27.1252 792.359,27.7522 791.231,28.1192" id="Fill-59" fill="#DB643B"></path>
                <path d="M798.8149,26.6563 L796.9909,28.6703 L796.7249,28.6703 L796.7249,21.0713 L797.9789,21.0713 C798.3079,23.2503 799.1119,24.9403 800.3909,26.1433 C801.6699,27.3463 803.2979,27.9483 805.2739,27.9483 C807.0209,27.9483 808.4529,27.4483 809.5669,26.4473 C810.6809,25.4473 811.2389,24.0733 811.2389,22.3253 C811.2389,21.2863 811.0299,20.3753 810.6119,19.5903 C810.1939,18.8043 809.4909,18.0633 808.5029,17.3673 C807.5149,16.6703 806.1479,15.9423 804.3999,15.1823 C801.8919,14.0933 800.0819,12.9153 798.9659,11.6483 C797.8519,10.3823 797.2939,8.8873 797.2939,7.1653 C797.2939,5.6713 797.6739,4.4043 798.4349,3.3663 C799.1949,2.3273 800.1889,1.5493 801.4179,1.0293 C802.6459,0.5103 803.9689,0.2503 805.3869,0.2503 C807.1099,0.2503 808.6619,0.6423 810.0419,1.4273 C811.4219,2.2143 812.4669,3.3023 813.1759,4.6953 L810.3269,7.2033 L810.0989,7.0893 C810.0989,5.3163 809.6559,3.9233 808.7689,2.9103 C807.8819,1.8963 806.6669,1.3903 805.1219,1.3903 C803.6779,1.3903 802.4879,1.8023 801.5499,2.6253 C800.6129,3.4483 800.1439,4.5823 800.1439,6.0253 C800.1439,7.3683 800.6199,8.5083 801.5689,9.4453 C802.5189,10.3823 804.2099,11.3703 806.6409,12.4083 C809.2759,13.5733 811.1749,14.8463 812.3399,16.2263 C813.5049,17.6073 814.0879,19.2473 814.0879,21.1473 C814.0879,22.7683 813.6959,24.1863 812.9109,25.4023 C812.1259,26.6183 811.0739,27.5503 809.7569,28.1953 C808.4399,28.8413 806.9959,29.1643 805.4249,29.1643 C804.1089,29.1643 802.8859,28.9493 801.7589,28.5183 C800.6319,28.0883 799.6509,27.4673 798.8149,26.6563" id="Fill-61" fill="#DB643B"></path>
                <path d="M22.5352,63.0615 L17.5962,51.5495 L12.6952,63.0615 L22.5352,63.0615 Z M32.2232,73.9655 L32.2232,74.2705 L23.7132,74.2705 L23.7132,73.9655 L26.1822,71.5725 L23.0672,64.3155 L12.1252,64.3155 L9.0472,71.5725 L11.4792,73.9655 L11.4792,74.2705 L4.8682,74.2705 L4.8682,73.9655 L7.5272,71.5725 L16.8362,49.8395 L15.6962,47.4465 L18.8492,46.0015 L29.8682,71.5725 L32.2232,73.9655 Z" id="Stroke-63" stroke="#FFFFFF" stroke-width="0.5"></path>
                <polygon id="Stroke-65" stroke="#FFFFFF" stroke-width="0.5" points="62.3569 46.3448 62.3569 46.6488 59.3559 49.0418 59.3559 74.2708 58.1019 74.2708 39.2179 51.0178 39.2179 71.5728 42.2199 73.9658 42.2199 74.2708 34.8109 74.2708 34.8109 73.9658 37.7739 71.5728 37.7739 49.2698 35.6089 46.6488 35.6089 46.3448 39.9019 46.3448 55.5179 65.6078 57.9119 68.6478 57.9119 49.0418 54.9099 46.6488 54.9099 46.3448"></polygon>
                <path d="M88.958,61.2764 C88.958,57.0964 87.945,53.7724 85.918,51.3024 C83.892,48.8334 80.84,47.5984 76.762,47.5984 L72.582,47.5984 L72.582,70.2814 C73.266,71.2684 74.216,72.0414 75.432,72.5984 C76.647,73.1554 78.041,73.4344 79.611,73.4344 C82.575,73.4344 84.874,72.3894 86.507,70.2994 C88.141,68.2104 88.958,65.2024 88.958,61.2764 Z M90.801,53.3544 C92.004,55.5704 92.605,58.1484 92.605,61.0864 C92.605,63.8464 92.099,66.2594 91.085,68.3244 C90.072,70.3884 88.628,71.9774 86.754,73.0924 C84.88,74.2074 82.689,74.7644 80.181,74.7644 C78.458,74.7644 76.952,74.5174 75.66,74.0234 C74.368,73.5294 73.317,72.8004 72.506,71.8394 L72.506,74.2704 L66.807,74.2704 L66.807,73.9654 L69.239,71.5724 L69.239,49.0424 L66.807,46.6484 L66.807,46.3444 L76.534,46.3444 C80.029,46.3444 82.98,46.9594 85.386,48.1874 C87.792,49.4164 89.597,51.1374 90.801,53.3544 Z" id="Stroke-67" stroke="#FFFFFF" stroke-width="0.5"></path>
                <path d="M120.4224,63.0615 L115.4834,51.5495 L110.5824,63.0615 L120.4224,63.0615 Z M130.1104,73.9655 L130.1104,74.2705 L121.6004,74.2705 L121.6004,73.9655 L124.0694,71.5725 L120.9544,64.3155 L110.0114,64.3155 L106.9344,71.5725 L109.3664,73.9655 L109.3664,74.2705 L102.7554,74.2705 L102.7554,73.9655 L105.4144,71.5725 L114.7234,49.8395 L113.5834,47.4465 L116.7364,46.0015 L127.7554,71.5725 L130.1104,73.9655 Z" id="Fill-69" fill="#DB643B"></path>
                <path d="M142.1587,58.6543 C144.1847,58.6543 145.7747,58.1733 146.9277,57.2113 C148.0797,56.2483 148.6557,54.9183 148.6557,53.2213 C148.6557,51.4483 148.0667,50.0673 146.8887,49.0803 C145.7117,48.0913 144.0837,47.5983 142.0067,47.5983 L138.4727,47.5983 L138.4727,58.6543 L142.1587,58.6543 Z M155.3427,75.7903 L150.3277,74.0043 L140.4497,59.9083 L138.4727,59.9083 L138.4727,71.5723 L140.9427,73.9663 L140.9427,74.2703 L132.6987,74.2703 L132.6987,73.9663 L135.1297,71.5723 L135.1297,49.0423 L132.6987,46.6483 L132.6987,46.3443 L142.3487,46.3443 C145.3877,46.3443 147.7947,46.9143 149.5677,48.0533 C151.3407,49.1943 152.2277,50.8023 152.2277,52.8803 C152.2277,55.0323 151.3347,56.7423 149.5487,58.0083 C147.7627,59.2753 145.3127,59.9083 142.1967,59.9083 L141.7027,59.9083 L145.3877,61.1623 L155.4947,75.5993 L155.3427,75.7903 Z" id="Fill-71" fill="#DB643B"></path>
                <path d="M161.1216,52.7842 C160.3106,54.5962 159.9056,56.6662 159.9056,58.9962 C159.9056,61.6312 160.3686,63.9682 161.2926,66.0072 C162.2176,68.0462 163.5216,69.6412 165.2056,70.7942 C166.8906,71.9462 168.8476,72.5222 171.0766,72.5222 C173.0776,72.5222 174.9196,72.0542 176.6046,71.1172 C178.2886,70.1802 179.6246,68.8492 180.6126,67.1272 L181.4486,67.5452 C180.4106,69.8762 178.9096,71.6612 176.9466,72.9022 C174.9836,74.1432 172.6716,74.7642 170.0126,74.7642 C167.3526,74.7642 164.9776,74.1502 162.8886,72.9222 C160.7986,71.6932 159.1646,69.9832 157.9876,67.7922 C156.8096,65.6012 156.2206,63.1122 156.2206,60.3262 C156.2206,57.5652 156.8096,55.0832 157.9876,52.8802 C159.1646,50.6762 160.8056,48.9532 162.9076,47.7122 C165.0096,46.4712 167.3906,45.8502 170.0506,45.8502 C172.8366,45.8502 175.2876,46.5592 177.4026,47.9782 C179.5176,49.3962 180.9676,51.2702 181.7526,53.6012 L178.7886,55.9192 L178.5236,55.8052 C178.2446,53.1452 177.3076,51.0172 175.7116,49.4222 C174.1156,47.8262 172.0896,47.0282 169.6326,47.0282 C167.7076,47.0282 166.0106,47.5352 164.5406,48.5482 C163.0726,49.5612 161.9326,50.9732 161.1216,52.7842" id="Fill-73" fill="#DB643B"></path>
                <polygon id="Fill-75" fill="#DB643B" points="212.0762 73.9658 212.0762 74.2708 203.8312 74.2708 203.8312 73.9658 206.2632 71.5718 206.2632 60.2118 190.6472 60.2118 190.6472 71.5718 193.1172 73.9658 193.1172 74.2708 184.8722 74.2708 184.8722 73.9658 187.3042 71.5718 187.3042 49.0418 184.8722 46.6488 184.8722 46.3448 193.1172 46.3448 193.1172 46.6488 190.6472 49.0418 190.6472 58.9958 206.2632 58.9958 206.2632 49.0418 203.9832 46.6488 203.9832 46.3448 211.8862 46.3448 211.8862 46.6488 209.6062 49.0418 209.6062 71.5718"></polygon>
                <path d="M231.3823,63.0615 L226.4433,51.5495 L221.5423,63.0615 L231.3823,63.0615 Z M241.0703,73.9655 L241.0703,74.2705 L232.5603,74.2705 L232.5603,73.9655 L235.0293,71.5725 L231.9143,64.3155 L220.9713,64.3155 L217.8943,71.5725 L220.3263,73.9655 L220.3263,74.2705 L213.7153,74.2705 L213.7153,73.9655 L216.3743,71.5725 L225.6833,49.8395 L224.5433,47.4465 L227.6963,46.0015 L238.7153,71.5725 L241.0703,73.9655 Z" id="Fill-77" fill="#DB643B"></path>
                <polygon id="Fill-79" fill="#DB643B" points="246.0898 71.5723 246.0898 49.0423 244.0378 46.6483 244.0378 46.3443 251.5228 46.3443 251.5228 46.6483 249.4328 49.0423 249.4328 71.5723 251.9028 73.9663 251.9028 74.2703 243.6578 74.2703 243.6578 73.9663"></polygon>
                <path d="M260.7568,52.7842 C259.9458,54.5962 259.5408,56.6662 259.5408,58.9962 C259.5408,61.6312 260.0038,63.9682 260.9278,66.0072 C261.8528,68.0462 263.1568,69.6412 264.8408,70.7942 C266.5258,71.9462 268.4828,72.5222 270.7118,72.5222 C272.7128,72.5222 274.5548,72.0542 276.2398,71.1172 C277.9238,70.1802 279.2598,68.8492 280.2478,67.1272 L281.0838,67.5452 C280.0458,69.8762 278.5448,71.6612 276.5818,72.9022 C274.6188,74.1432 272.3068,74.7642 269.6478,74.7642 C266.9878,74.7642 264.6128,74.1502 262.5238,72.9222 C260.4338,71.6932 258.7998,69.9832 257.6228,67.7922 C256.4448,65.6012 255.8558,63.1122 255.8558,60.3262 C255.8558,57.5652 256.4448,55.0832 257.6228,52.8802 C258.7998,50.6762 260.4408,48.9532 262.5428,47.7122 C264.6448,46.4712 267.0258,45.8502 269.6858,45.8502 C272.4718,45.8502 274.9228,46.5592 277.0378,47.9782 C279.1528,49.3962 280.6028,51.2702 281.3878,53.6012 L278.4238,55.9192 L278.1578,55.8052 C277.8798,53.1452 276.9428,51.0172 275.3468,49.4222 C273.7508,47.8262 271.7248,47.0282 269.2678,47.0282 C267.3428,47.0282 265.6458,47.5352 264.1768,48.5482 C262.7078,49.5612 261.5678,50.9732 260.7568,52.7842" id="Fill-81" fill="#DB643B"></path>
                <path d="M309.3574,67.1651 C309.3574,64.9621 308.6984,63.2141 307.3814,61.9221 C306.0644,60.6301 304.2024,59.9841 301.7964,59.9841 L298.2244,59.9841 L298.2244,70.0531 C298.6804,71.1421 299.3904,71.9771 300.3524,72.5611 C301.3154,73.1441 302.4294,73.4351 303.6954,73.4351 C305.4434,73.4351 306.8244,72.8641 307.8374,71.7251 C308.8504,70.5851 309.3574,69.0651 309.3574,67.1651 L309.3574,67.1651 Z M298.2244,58.7691 L301.2264,58.7691 C303.2534,58.7691 304.8104,58.2691 305.8994,57.2681 C306.9884,56.2681 307.5334,54.8431 307.5334,52.9931 C307.5334,51.2461 307.0074,49.9091 305.9564,48.9851 C304.9054,48.0611 303.3794,47.5991 301.3784,47.5991 L298.2244,47.5991 L298.2244,58.7691 Z M311.8264,62.6061 C312.6624,63.7461 313.0804,65.1391 313.0804,66.7851 C313.0804,68.2801 312.7194,69.6351 311.9974,70.8511 C311.2754,72.0661 310.2434,73.0221 308.9014,73.7201 C307.5584,74.4161 306.0014,74.7651 304.2284,74.7651 C301.3654,74.7651 299.3394,73.8021 298.1494,71.8771 L298.1494,74.2701 L292.4494,74.2701 L292.4494,73.9661 L294.8814,71.5721 L294.8814,49.0421 L292.4494,46.6481 L292.4494,46.3451 L301.6064,46.3451 C304.3924,46.3451 306.6024,46.9011 308.2364,48.0171 C309.8704,49.1311 310.6874,50.6631 310.6874,52.6131 C310.6874,53.7781 310.3894,54.8301 309.7944,55.7671 C309.1984,56.7041 308.4204,57.4641 307.4574,58.0471 C306.4954,58.6291 305.4694,58.9961 304.3794,59.1481 C305.8494,59.1741 307.2484,59.4721 308.5784,60.0411 C309.9084,60.6111 310.9904,61.4661 311.8264,62.6061 L311.8264,62.6061 Z" id="Fill-83" fill="#DB643B"></path>
                <path d="M321.7461,52.9932 C320.9351,54.8932 320.5301,57.0842 320.5301,59.5662 C320.5301,62.2762 320.9931,64.7022 321.9171,66.8432 C322.8421,68.9822 324.1271,70.6482 325.7731,71.8392 C327.4201,73.0292 329.2821,73.6242 331.3591,73.6242 C333.2591,73.6242 334.9431,73.1052 336.4121,72.0662 C337.8811,71.0282 339.0271,69.5582 339.8501,67.6592 C340.6741,65.7602 341.0851,63.5562 341.0851,61.0482 C341.0851,58.3632 340.6231,55.9502 339.6991,53.8102 C338.7741,51.6702 337.4891,50.0052 335.8421,48.8142 C334.1961,47.6232 332.3341,47.0282 330.2571,47.0282 C328.3571,47.0282 326.6661,47.5482 325.1841,48.5862 C323.7031,49.6252 322.5571,51.0942 321.7461,52.9932 M318.6311,67.8492 C317.4401,65.6712 316.8451,63.1882 316.8451,60.4022 C316.8451,57.6162 317.4341,55.1152 318.6121,52.8982 C319.7891,50.6812 321.4361,48.9532 323.5511,47.7122 C325.6661,46.4712 328.0661,45.8502 330.7511,45.8502 C333.4611,45.8502 335.8801,46.4582 338.0081,47.6742 C340.1361,48.8892 341.7941,50.5872 342.9851,52.7652 C344.1761,54.9432 344.7711,57.4262 344.7711,60.2122 C344.7711,62.9992 344.1821,65.5002 343.0041,67.7162 C341.8261,69.9322 340.1801,71.6612 338.0651,72.9022 C335.9501,74.1432 333.5501,74.7642 330.8651,74.7642 C328.1551,74.7642 325.7361,74.1562 323.6081,72.9402 C321.4801,71.7242 319.8211,70.0272 318.6311,67.8492" id="Fill-85" fill="#DB643B"></path>
                <path d="M351.6523,70.2237 C350.7913,68.7927 350.3603,67.1527 350.3603,65.3037 L350.3603,49.0417 L348.2713,46.6487 L348.2713,46.3447 L356.0223,46.3447 L356.0223,46.6487 L353.7423,49.0417 L353.7423,65.0377 C353.7423,67.6717 354.4203,69.7367 355.7753,71.2307 C357.1303,72.7257 359.1253,73.4727 361.7593,73.4727 C364.3423,73.4727 366.3563,72.7187 367.8003,71.2117 C369.2443,69.7047 369.9653,67.6597 369.9653,65.0757 L369.9653,49.0417 L367.5343,46.6487 L367.5343,46.3447 L373.8793,46.3447 L373.8793,46.6487 L371.4093,49.0417 L371.4093,64.8097 C371.4093,67.8747 370.5233,70.2997 368.7503,72.0857 C366.9773,73.8707 364.4693,74.7647 361.2273,74.7647 C358.9723,74.7647 357.0283,74.3657 355.3953,73.5677 C353.7613,72.7697 352.5133,71.6557 351.6523,70.2237" id="Fill-87" fill="#DB643B"></path>
                <polygon id="Fill-89" fill="#DB643B" points="405.4565 46.3448 405.4565 46.6488 402.4555 49.0418 402.4555 74.2708 401.2015 74.2708 382.3175 51.0178 382.3175 71.5728 385.3195 73.9658 385.3195 74.2708 377.9105 74.2708 377.9105 73.9658 380.8735 71.5728 380.8735 49.2698 378.7085 46.6488 378.7085 46.3448 383.0015 46.3448 398.6175 65.6078 401.0115 68.6478 401.0115 49.0418 398.0095 46.6488 398.0095 46.3448"></polygon>
                <path d="M432.0571,61.2764 C432.0571,57.0964 431.0431,53.7724 429.0171,51.3024 C426.9911,48.8334 423.9391,47.5984 419.8611,47.5984 L415.6811,47.5984 L415.6811,70.2814 C416.3651,71.2684 417.3151,72.0414 418.5311,72.5984 C419.7461,73.1554 421.1391,73.4344 422.7101,73.4344 C425.6731,73.4344 427.9721,72.3894 429.6061,70.2994 C431.2401,68.2104 432.0571,65.2024 432.0571,61.2764 M433.9001,53.3544 C435.1031,55.5704 435.7041,58.1484 435.7041,61.0864 C435.7041,63.8464 435.1981,66.2594 434.1841,68.3244 C433.1711,70.3884 431.7271,71.9774 429.8531,73.0924 C427.9791,74.2074 425.7871,74.7644 423.2801,74.7644 C421.5571,74.7644 420.0501,74.5174 418.7581,74.0234 C417.4671,73.5294 416.4151,72.8004 415.6051,71.8394 L415.6051,74.2704 L409.9061,74.2704 L409.9061,73.9654 L412.3381,71.5724 L412.3381,49.0424 L409.9061,46.6484 L409.9061,46.3444 L419.6321,46.3444 C423.1281,46.3444 426.0781,46.9594 428.4851,48.1874 C430.8911,49.4164 432.6961,51.1374 433.9001,53.3544" id="Fill-91" fill="#DB643B"></path>
                <path d="M453.8696,63.0615 L448.9306,51.5495 L444.0286,63.0615 L453.8696,63.0615 Z M463.5576,73.9655 L463.5576,74.2705 L455.0476,74.2705 L455.0476,73.9655 L457.5166,71.5725 L454.4006,64.3155 L443.4586,64.3155 L440.3816,71.5725 L442.8126,73.9655 L442.8126,74.2705 L436.2016,74.2705 L436.2016,73.9655 L438.8616,71.5725 L448.1706,49.8395 L447.0306,47.4465 L450.1836,46.0015 L461.2026,71.5725 L463.5576,73.9655 Z" id="Fill-93" fill="#DB643B"></path>
                <path d="M475.606,58.6543 C477.632,58.6543 479.221,58.1733 480.375,57.2113 C481.527,56.2483 482.103,54.9183 482.103,53.2213 C482.103,51.4483 481.514,50.0673 480.336,49.0803 C479.159,48.0913 477.531,47.5983 475.454,47.5983 L471.92,47.5983 L471.92,58.6543 L475.606,58.6543 Z M488.79,75.7903 L483.775,74.0043 L473.896,59.9083 L471.92,59.9083 L471.92,71.5723 L474.39,73.9663 L474.39,74.2703 L466.145,74.2703 L466.145,73.9663 L468.577,71.5723 L468.577,49.0423 L466.145,46.6483 L466.145,46.3443 L475.795,46.3443 C478.835,46.3443 481.242,46.9143 483.015,48.0533 C484.788,49.1943 485.674,50.8023 485.674,52.8803 C485.674,55.0323 484.782,56.7423 482.996,58.0083 C481.21,59.2753 478.759,59.9083 475.644,59.9083 L475.15,59.9083 L478.835,61.1623 L488.942,75.5993 L488.79,75.7903 Z" id="Fill-95" fill="#DB643B"></path>
                <polygon id="Fill-97" fill="#DB643B" points="493.9614 71.5723 493.9614 49.0423 491.9094 46.6483 491.9094 46.3443 499.3944 46.3443 499.3944 46.6483 497.3044 49.0423 497.3044 71.5723 499.7734 73.9663 499.7734 74.2703 491.5294 74.2703 491.5294 73.9663"></polygon>
                <path d="M521.2993,73.7198 C520.1723,74.0868 518.6583,74.2708 516.7593,74.2708 L504.2593,74.2708 L504.2593,73.9658 L506.6913,71.5728 L506.6913,49.0418 L504.2593,46.6488 L504.2593,46.3448 L521.3193,46.3448 L522.3443,52.1188 L521.9643,52.1188 L517.8993,47.5988 L510.0333,47.5988 L510.0333,58.9958 L515.6953,58.9958 L518.0133,56.3748 L518.3553,56.3748 L518.3553,62.8338 L518.0133,62.8338 L515.6953,60.2118 L510.0333,60.2118 L510.0333,73.0168 L516.1893,73.0168 C517.4303,73.0168 518.4693,72.6808 519.3053,72.0098 C520.1413,71.3378 520.7613,70.3948 521.1663,69.1788 L521.3193,69.1408 L524.1683,71.8388 C523.3833,72.7258 522.4263,73.3528 521.2993,73.7198" id="Fill-99" fill="#DB643B"></path>
                <path d="M528.8823,72.2569 L527.0593,74.2709 L526.7933,74.2709 L526.7933,66.6709 L528.0463,66.6709 C528.3763,68.8499 529.1803,70.5399 530.4593,71.7429 C531.7383,72.9469 533.3653,73.5489 535.3413,73.5489 C537.0893,73.5489 538.5213,73.0479 539.6353,72.0479 C540.7493,71.0469 541.3073,69.6729 541.3073,67.9249 C541.3073,66.8869 541.0983,65.9749 540.6803,65.1899 C540.2623,64.4039 539.5593,63.6629 538.5703,62.9669 C537.5833,62.2709 536.2153,61.5419 534.4683,60.7819 C531.9603,59.6939 530.1493,58.5159 529.0343,57.2489 C527.9203,55.9829 527.3623,54.4879 527.3623,52.7659 C527.3623,51.2709 527.7423,50.0049 528.5023,48.9659 C529.2623,47.9279 530.2563,47.1489 531.4853,46.6289 C532.7133,46.1109 534.0373,45.8509 535.4553,45.8509 C537.1783,45.8509 538.7303,46.2429 540.1103,47.0279 C541.4903,47.8139 542.5353,48.9029 543.2443,50.2959 L540.3953,52.8039 L540.1673,52.6899 C540.1673,50.9159 539.7243,49.5239 538.8373,48.5099 C537.9503,47.4969 536.7353,46.9899 535.1903,46.9899 C533.7453,46.9899 532.5553,47.4029 531.6183,48.2259 C530.6813,49.0479 530.2123,50.1819 530.2123,51.6259 C530.2123,52.9679 530.6873,54.1079 531.6373,55.0449 C532.5873,55.9829 534.2783,56.9699 536.7093,58.0089 C539.3443,59.1739 541.2433,60.4459 542.4083,61.8269 C543.5733,63.2079 544.1563,64.8479 544.1563,66.7469 C544.1563,68.3679 543.7643,69.7869 542.9793,71.0029 C542.1943,72.2189 541.1423,73.1499 539.8243,73.7949 C538.5083,74.4419 537.0643,74.7649 535.4933,74.7649 C534.1763,74.7649 532.9543,74.5489 531.8273,74.1179 C530.6993,73.6879 529.7183,73.0679 528.8823,72.2569" id="Fill-101" fill="#DB643B"></path>
                <polygon id="Stroke-103" stroke="#FFFFFF" stroke-width="0.5" points="558.4849 71.5723 558.4849 49.0423 556.4329 46.6483 556.4329 46.3443 563.9179 46.3443 563.9179 46.6483 561.8279 49.0423 561.8279 71.5723 564.2969 73.9663 564.2969 74.2703 556.0529 74.2703 556.0529 73.9663"></polygon>
                <polygon id="Stroke-105" stroke="#FFFFFF" stroke-width="0.5" points="596.3286 46.3448 596.3286 46.6488 593.3266 49.0418 593.3266 74.2708 592.0726 74.2708 573.1896 51.0178 573.1896 71.5728 576.1906 73.9658 576.1906 74.2708 568.7826 74.2708 568.7826 73.9658 571.7456 71.5728 571.7456 49.2698 569.5806 46.6488 569.5806 46.3448 573.8736 46.3448 589.4896 65.6078 591.8836 68.6478 591.8836 49.0418 588.8816 46.6488 588.8816 46.3448"></polygon>
                <polygon id="Stroke-107" stroke="#FFFFFF" stroke-width="0.5" points="617.4204 71.4971 617.4204 47.5991 611.2654 47.5991 607.1994 52.4991 606.8194 52.4991 607.8464 46.3451 630.3384 46.3451 631.3264 52.4991 630.9464 52.4991 626.8814 47.5991 620.7644 47.5991 620.7644 71.4971 623.1194 73.9661 623.1194 74.2701 615.0264 74.2701 615.0264 73.9661"></polygon>
                <polygon id="Stroke-109" stroke="#FFFFFF" stroke-width="0.5" points="661.1177 73.9658 661.1177 74.2708 652.8727 74.2708 652.8727 73.9658 655.3047 71.5718 655.3047 60.2118 639.6887 60.2118 639.6887 71.5718 642.1587 73.9658 642.1587 74.2708 633.9137 74.2708 633.9137 73.9658 636.3457 71.5718 636.3457 49.0418 633.9137 46.6488 633.9137 46.3448 642.1587 46.3448 642.1587 46.6488 639.6887 49.0418 639.6887 58.9958 655.3047 58.9958 655.3047 49.0418 653.0247 46.6488 653.0247 46.3448 660.9287 46.3448 660.9287 46.6488 658.6477 49.0418 658.6477 71.5718"></polygon>
                <path d="M682.646,73.7198 C681.519,74.0868 680.005,74.2708 678.106,74.2708 L665.606,74.2708 L665.606,73.9658 L668.038,71.5728 L668.038,49.0418 L665.606,46.6488 L665.606,46.3448 L682.666,46.3448 L683.691,52.1188 L683.311,52.1188 L679.246,47.5988 L671.38,47.5988 L671.38,58.9958 L677.042,58.9958 L679.36,56.3748 L679.702,56.3748 L679.702,62.8338 L679.36,62.8338 L677.042,60.2118 L671.38,60.2118 L671.38,73.0168 L677.536,73.0168 C678.777,73.0168 679.816,72.6808 680.652,72.0098 C681.488,71.3378 682.108,70.3948 682.513,69.1788 L682.666,69.1408 L685.515,71.8388 C684.73,72.7258 683.773,73.3528 682.646,73.7198 Z" id="Stroke-111" stroke="#FFFFFF" stroke-width="0.5"></path>
                <polygon id="Fill-113" fill="#B67CEE" points="724.1597 46.3448 724.1597 46.6488 721.1577 49.0418 721.1577 74.2708 719.9037 74.2708 701.0207 51.0178 701.0207 71.5728 704.0217 73.9658 704.0217 74.2708 696.6137 74.2708 696.6137 73.9658 699.5767 71.5728 699.5767 49.2698 697.4117 46.6488 697.4117 46.3448 701.7047 46.3448 717.3207 65.6078 719.7147 68.6478 719.7147 49.0418 716.7127 46.6488 716.7127 46.3448"></polygon>
                <path d="M742.6675,63.0615 L737.7285,51.5495 L732.8265,63.0615 L742.6675,63.0615 Z M752.3555,73.9655 L752.3555,74.2705 L743.8455,74.2705 L743.8455,73.9655 L746.3145,71.5725 L743.1985,64.3155 L732.2565,64.3155 L729.1795,71.5725 L731.6105,73.9655 L731.6105,74.2705 L724.9995,74.2705 L724.9995,73.9655 L727.6595,71.5725 L736.9685,49.8395 L735.8285,47.4465 L738.9815,46.0015 L750.0005,71.5725 L752.3555,73.9655 Z" id="Fill-115" fill="#B67CEE"></path>
                <polygon id="Fill-117" fill="#B67CEE" points="787.4282 73.9658 787.4282 74.2708 779.5262 74.2708 779.5262 73.9658 781.8432 71.5718 778.4242 51.7008 770.4452 74.2708 769.1922 74.2708 761.0992 51.6638 757.6412 71.5718 760.6052 73.9658 760.6052 74.2708 753.3862 74.2708 753.3862 73.9658 756.3112 71.5718 760.1872 49.1178 759.4652 47.1428 762.5422 45.9648 769.9132 66.5198 770.6732 69.4838 777.9302 49.0038 777.4362 46.5338 780.6652 45.9648 785.1872 71.5718"></polygon>
                <path d="M807.3989,73.7198 C806.2719,74.0868 804.7579,74.2708 802.8589,74.2708 L790.3579,74.2708 L790.3579,73.9658 L792.7899,71.5728 L792.7899,49.0418 L790.3579,46.6488 L790.3579,46.3448 L807.4179,46.3448 L808.4439,52.1188 L808.0639,52.1188 L803.9989,47.5988 L796.1329,47.5988 L796.1329,58.9958 L801.7949,58.9958 L804.1129,56.3748 L804.4549,56.3748 L804.4549,62.8338 L804.1129,62.8338 L801.7949,60.2118 L796.1329,60.2118 L796.1329,73.0168 L802.2889,73.0168 C803.5299,73.0168 804.5679,72.6808 805.4039,72.0098 C806.2399,71.3378 806.8609,70.3948 807.2659,69.1788 L807.4179,69.1408 L810.2669,71.8388 C809.4819,72.7258 808.5259,73.3528 807.3989,73.7198" id="Fill-119" fill="#B67CEE"></path>
                <path d="M46.9126,98.5938 C46.1016,100.4928 45.6966,102.6848 45.6966,105.1668 C45.6966,107.8768 46.1596,110.3018 47.0836,112.4428 C48.0086,114.5828 49.2936,116.2478 50.9406,117.4388 C52.5866,118.6288 54.4486,119.2248 56.5256,119.2248 C58.4256,119.2248 60.1096,118.7048 61.5786,117.6668 C63.0476,116.6278 64.1936,115.1588 65.0166,113.2598 C65.8406,111.3598 66.2516,109.1568 66.2516,106.6488 C66.2516,103.9628 65.7896,101.5508 64.8656,99.4098 C63.9406,97.2708 62.6556,95.6048 61.0086,94.4138 C59.3626,93.2238 57.5006,92.6278 55.4236,92.6278 C53.5236,92.6278 51.8326,93.1478 50.3506,94.1868 C48.8696,95.2248 47.7236,96.6938 46.9126,98.5938 M43.7976,113.4488 C42.6066,111.2708 42.0116,108.7888 42.0116,106.0018 C42.0116,103.2158 42.6006,100.7148 43.7786,98.4978 C44.9556,96.2818 46.6026,94.5538 48.7176,93.3128 C50.8326,92.0718 53.2326,91.4498 55.9176,91.4498 C58.6276,91.4498 61.0466,92.0588 63.1746,93.2748 C65.3026,94.4898 66.9606,96.1878 68.1516,98.3648 C69.3426,100.5438 69.9376,103.0268 69.9376,105.8128 C69.9376,108.5988 69.3486,111.0998 68.1706,113.3168 C66.9926,115.5318 65.3466,117.2618 63.2316,118.5028 C61.1166,119.7438 58.7166,120.3648 56.0316,120.3648 C53.3216,120.3648 50.9026,119.7568 48.7746,118.5408 C46.6466,117.3248 44.9876,115.6278 43.7976,113.4488" id="Fill-121" fill="#B67CEE"></path>
                <polygon id="Fill-123" fill="#B67CEE" points="79.6685 93.1983 79.6685 104.5963 85.3305 104.5963 87.6855 101.8613 88.0275 101.8613 88.0275 108.5483 87.6855 108.5483 85.3305 105.8123 79.6685 105.8123 79.6685 117.1353 82.6325 119.5663 82.6325 119.8703 73.8935 119.8703 73.8935 119.5663 76.3255 117.1733 76.3255 94.6413 73.8935 92.2483 73.8935 91.9443 90.9535 91.9443 91.9795 97.7963 91.5995 97.7963 87.5335 93.1983"></polygon>
                <path d="M118.5786,108.6621 L113.6396,97.1491 L108.7386,108.6621 L118.5786,108.6621 Z M128.2666,119.5661 L128.2666,119.8701 L119.7566,119.8701 L119.7566,119.5661 L122.2256,117.1731 L119.1106,109.9161 L108.1676,109.9161 L105.0906,117.1731 L107.5226,119.5661 L107.5226,119.8701 L100.9116,119.8701 L100.9116,119.5661 L103.5706,117.1731 L112.8796,95.4401 L111.7396,93.0461 L114.8926,91.6021 L125.9116,117.1731 L128.2666,119.5661 Z" id="Fill-125" fill="#B67CEE"></path>
                <path d="M140.3149,104.2549 C142.3409,104.2549 143.9309,103.7739 145.0839,102.8109 C146.2359,101.8489 146.8119,100.5189 146.8119,98.8209 C146.8119,97.0489 146.2229,95.6679 145.0449,94.6799 C143.8679,93.6919 142.2399,93.1979 140.1629,93.1979 L136.6289,93.1979 L136.6289,104.2549 L140.3149,104.2549 Z M153.4989,121.3899 L148.4839,119.6049 L138.6059,105.5089 L136.6289,105.5089 L136.6289,117.1729 L139.0989,119.5669 L139.0989,119.8699 L130.8549,119.8699 L130.8549,119.5669 L133.2859,117.1729 L133.2859,94.6419 L130.8549,92.2479 L130.8549,91.9439 L140.5049,91.9439 C143.5439,91.9439 145.9509,92.5149 147.7239,93.6539 C149.4969,94.7939 150.3839,96.4019 150.3839,98.4799 C150.3839,100.6329 149.4909,102.3419 147.7049,103.6089 C145.9189,104.8749 143.4689,105.5089 140.3529,105.5089 L139.8589,105.5089 L143.5439,106.7629 L153.6509,121.1999 L153.4989,121.3899 Z" id="Fill-127" fill="#B67CEE"></path>
                <polygon id="Fill-129" fill="#B67CEE" points="163.229 117.0967 163.229 93.1987 157.074 93.1987 153.008 98.0997 152.628 98.0997 153.654 91.9447 176.147 91.9447 177.135 98.0997 176.755 98.0997 172.689 93.1987 166.572 93.1987 166.572 117.0967 168.928 119.5667 168.928 119.8697 160.835 119.8697 160.835 119.5667"></polygon>
                <polygon id="Fill-131" fill="#B67CEE" points="182.1538 117.1729 182.1538 94.6419 180.1018 92.2479 180.1018 91.9439 187.5868 91.9439 187.5868 92.2479 185.4968 94.6419 185.4968 117.1729 187.9668 119.5669 187.9668 119.8699 179.7218 119.8699 179.7218 119.5669"></polygon>
                <path d="M194.0098,117.8565 L192.1858,119.8705 L191.9208,119.8705 L191.9208,112.2715 L193.1738,112.2715 C193.5038,114.4505 194.3078,116.1405 195.5868,117.3435 C196.8658,118.5465 198.4928,119.1485 200.4688,119.1485 C202.2168,119.1485 203.6478,118.6485 204.7618,117.6475 C205.8768,116.6475 206.4338,115.2735 206.4338,113.5255 C206.4338,112.4865 206.2248,111.5755 205.8068,110.7905 C205.3888,110.0045 204.6868,109.2635 203.6978,108.5675 C202.7108,107.8705 201.3428,107.1425 199.5948,106.3825 C197.0878,105.2935 195.2768,104.1155 194.1618,102.8485 C193.0478,101.5825 192.4898,100.0875 192.4898,98.3655 C192.4898,96.8715 192.8698,95.6045 193.6298,94.5665 C194.3898,93.5275 195.3838,92.7495 196.6128,92.2295 C197.8408,91.7105 199.1648,91.4505 200.5828,91.4505 C202.3048,91.4505 203.8568,91.8425 205.2378,92.6275 C206.6178,93.4145 207.6628,94.5025 208.3718,95.8955 L205.5218,98.4035 L205.2948,98.2895 C205.2948,96.5165 204.8508,95.1235 203.9648,94.1105 C203.0778,93.0965 201.8628,92.5905 200.3168,92.5905 C198.8728,92.5905 197.6828,93.0025 196.7458,93.8255 C195.8078,94.6485 195.3398,95.7825 195.3398,97.2255 C195.3398,98.5685 195.8148,99.7085 196.7648,100.6455 C197.7148,101.5825 199.4058,102.5705 201.8368,103.6085 C204.4708,104.7735 206.3708,106.0465 207.5358,107.4265 C208.7008,108.8075 209.2838,110.4475 209.2838,112.3475 C209.2838,113.9685 208.8908,115.3865 208.1058,116.6025 C207.3208,117.8185 206.2698,118.7505 204.9518,119.3955 C203.6348,120.0415 202.1918,120.3645 200.6208,120.3645 C199.3038,120.3645 198.0818,120.1495 196.9548,119.7185 C195.8268,119.2885 194.8458,118.6675 194.0098,117.8565" id="Fill-133" fill="#B67CEE"></path>
                <polygon id="Fill-135" fill="#B67CEE" points="220.9888 117.0967 220.9888 93.1987 214.8338 93.1987 210.7678 98.0997 210.3878 98.0997 211.4138 91.9447 233.9068 91.9447 234.8948 98.0997 234.5148 98.0997 230.4488 93.1987 224.3318 93.1987 224.3318 117.0967 226.6878 119.5667 226.6878 119.8697 218.5948 119.8697 218.5948 119.5667"></polygon>
                <path d="M246.9424,104.2549 C248.9684,104.2549 250.5584,103.7739 251.7114,102.8109 C252.8634,101.8489 253.4394,100.5189 253.4394,98.8209 C253.4394,97.0489 252.8504,95.6679 251.6724,94.6799 C250.4954,93.6919 248.8674,93.1979 246.7904,93.1979 L243.2564,93.1979 L243.2564,104.2549 L246.9424,104.2549 Z M260.1264,121.3899 L255.1114,119.6049 L245.2334,105.5089 L243.2564,105.5089 L243.2564,117.1729 L245.7264,119.5669 L245.7264,119.8699 L237.4824,119.8699 L237.4824,119.5669 L239.9134,117.1729 L239.9134,94.6419 L237.4824,92.2479 L237.4824,91.9439 L247.1324,91.9439 C250.1714,91.9439 252.5784,92.5149 254.3514,93.6539 C256.1244,94.7939 257.0114,96.4019 257.0114,98.4799 C257.0114,100.6329 256.1184,102.3419 254.3324,103.6089 C252.5464,104.8749 250.0964,105.5089 246.9804,105.5089 L246.4864,105.5089 L250.1714,106.7629 L260.2784,121.1999 L260.1264,121.3899 Z" id="Fill-137" fill="#B67CEE"></path>
                <polygon id="Fill-139" fill="#B67CEE" points="270.085 117.1729 270.085 106.4579 261.574 94.6419 258.497 92.2479 258.497 91.9439 268.376 91.9439 268.376 92.2479 265.716 94.6799 272.821 104.5589 279.888 94.6799 277.266 92.2479 277.266 91.9439 284.409 91.9439 284.409 92.2479 281.597 94.6419 273.429 105.9649 273.429 117.1729 275.898 119.5669 275.898 119.8699 267.615 119.8699 267.615 119.5669"></polygon>
                <mask id="mask-2" fill="white">
                    <use xlink:href="#path-1"></use>
                </mask>
                <g id="Clip-142"></g>
                <polygon id="Stroke-141" stroke="#FFFFFF" stroke-width="0.5" mask="url(#mask-2)" points="284.185 110.105 310.021 110.105 310.021 108.738 284.185 108.738"></polygon>
                <polygon id="Stroke-143" stroke="#FFFFFF" stroke-width="0.5" mask="url(#mask-2)" points="320.7778 117.0967 320.7778 93.1987 314.6228 93.1987 310.5568 98.0997 310.1768 98.0997 311.2028 91.9447 333.6958 91.9447 334.6838 98.0997 334.3038 98.0997 330.2378 93.1987 324.1208 93.1987 324.1208 117.0967 326.4768 119.5667 326.4768 119.8697 318.3838 119.8697 318.3838 119.5667"></polygon>
                <path d="M341.6401,98.5938 C340.8291,100.4928 340.4241,102.6848 340.4241,105.1668 C340.4241,107.8768 340.8871,110.3018 341.8111,112.4428 C342.7361,114.5828 344.0211,116.2478 345.6681,117.4388 C347.3141,118.6288 349.1761,119.2248 351.2531,119.2248 C353.1531,119.2248 354.8371,118.7048 356.3061,117.6668 C357.7751,116.6278 358.9211,115.1588 359.7441,113.2598 C360.5681,111.3598 360.9791,109.1568 360.9791,106.6488 C360.9791,103.9628 360.5171,101.5508 359.5931,99.4098 C358.6681,97.2708 357.3831,95.6048 355.7361,94.4138 C354.0901,93.2238 352.2281,92.6278 350.1511,92.6278 C348.2511,92.6278 346.5601,93.1478 345.0781,94.1868 C343.5971,95.2248 342.4511,96.6938 341.6401,98.5938 Z M338.5251,113.4488 C337.3341,111.2708 336.7391,108.7888 336.7391,106.0018 C336.7391,103.2158 337.3281,100.7148 338.5061,98.4978 C339.6831,96.2818 341.3301,94.5538 343.4451,93.3128 C345.5601,92.0718 347.9601,91.4498 350.6451,91.4498 C353.3551,91.4498 355.7741,92.0588 357.9021,93.2748 C360.0301,94.4898 361.6881,96.1878 362.8791,98.3648 C364.0701,100.5438 364.6651,103.0268 364.6651,105.8128 C364.6651,108.5988 364.0761,111.0998 362.8981,113.3168 C361.7201,115.5318 360.0741,117.2618 357.9591,118.5028 C355.8441,119.7438 353.4441,120.3648 350.7591,120.3648 C348.0491,120.3648 345.6301,119.7568 343.5021,118.5408 C341.3741,117.3248 339.7151,115.6278 338.5251,113.4488 Z" id="Stroke-144" stroke="#FFFFFF" stroke-width="0.5" mask="url(#mask-2)"></path>
                <path d="M398.7134,106.876 C398.7134,102.697 397.7004,99.372 395.6734,96.902 C393.6474,94.434 390.5954,93.198 386.5174,93.198 L382.3374,93.198 L382.3374,115.881 C383.0214,116.869 383.9714,117.642 385.1874,118.198 C386.4024,118.756 387.7964,119.034 389.3664,119.034 C392.3304,119.034 394.6294,117.989 396.2624,115.9 C397.8964,113.811 398.7134,110.803 398.7134,106.876 M400.5564,98.954 C401.7594,101.171 402.3604,103.748 402.3604,106.687 C402.3604,109.447 401.8544,111.86 400.8404,113.924 C399.8274,115.988 398.3834,117.578 396.5094,118.692 C394.6354,119.807 392.4444,120.364 389.9364,120.364 C388.2134,120.364 386.7074,120.117 385.4154,119.623 C384.1234,119.13 383.0724,118.401 382.2614,117.439 L382.2614,119.87 L376.5624,119.87 L376.5624,119.566 L378.9944,117.173 L378.9944,94.642 L376.5624,92.248 L376.5624,91.944 L386.2894,91.944 C389.7844,91.944 392.7354,92.559 395.1414,93.787 C397.5474,95.016 399.3524,96.738 400.5564,98.954" id="Fill-145" fill="#B67CEE" mask="url(#mask-2)"></path>
                <path d="M423.5083,119.3194 C422.3813,119.6864 420.8673,119.8704 418.9683,119.8704 L406.4683,119.8704 L406.4683,119.5664 L408.9003,117.1734 L408.9003,94.6414 L406.4683,92.2484 L406.4683,91.9444 L423.5283,91.9444 L424.5533,97.7194 L424.1733,97.7194 L420.1083,93.1984 L412.2433,93.1984 L412.2433,104.5964 L417.9043,104.5964 L420.2223,101.9744 L420.5643,101.9744 L420.5643,108.4334 L420.2223,108.4334 L417.9043,105.8124 L412.2433,105.8124 L412.2433,118.6164 L418.3983,118.6164 C419.6393,118.6164 420.6783,118.2814 421.5143,117.6094 C422.3503,116.9384 422.9703,115.9954 423.3753,114.7794 L423.5283,114.7414 L426.3773,117.4384 C425.5923,118.3254 424.6353,118.9524 423.5083,119.3194" id="Fill-146" fill="#B67CEE" mask="url(#mask-2)"></path>
                <polygon id="Fill-147" fill="#B67CEE" mask="url(#mask-2)" points="462.019 119.5664 462.019 119.8704 454.116 119.8704 454.116 119.5664 456.433 117.1724 453.014 97.3014 445.035 119.8704 443.782 119.8704 435.689 97.2634 432.231 117.1724 435.195 119.5664 435.195 119.8704 427.976 119.8704 427.976 119.5664 430.901 117.1724 434.777 94.7174 434.055 92.7424 437.132 91.5644 444.503 112.1194 445.263 115.0834 452.52 94.6044 452.026 92.1344 455.255 91.5644 459.777 117.1724"></polygon>
                <path d="M468.7485,98.5938 C467.9375,100.4928 467.5325,102.6848 467.5325,105.1668 C467.5325,107.8768 467.9945,110.3018 468.9195,112.4428 C469.8445,114.5828 471.1295,116.2478 472.7755,117.4388 C474.4225,118.6288 476.2835,119.2248 478.3605,119.2248 C480.2615,119.2248 481.9445,118.7048 483.4145,117.6668 C484.8835,116.6278 486.0295,115.1588 486.8525,113.2598 C487.6765,111.3598 488.0875,109.1568 488.0875,106.6488 C488.0875,103.9628 487.6255,101.5508 486.7005,99.4098 C485.7755,97.2708 484.4905,95.6048 482.8445,94.4138 C481.1975,93.2238 479.3365,92.6278 477.2595,92.6278 C475.3595,92.6278 473.6685,93.1478 472.1865,94.1868 C470.7055,95.2248 469.5595,96.6938 468.7485,98.5938 M465.6335,113.4488 C464.4425,111.2708 463.8475,108.7888 463.8475,106.0018 C463.8475,103.2158 464.4365,100.7148 465.6135,98.4978 C466.7915,96.2818 468.4375,94.5538 470.5535,93.3128 C472.6685,92.0718 475.0675,91.4498 477.7535,91.4498 C480.4635,91.4498 482.8825,92.0588 485.0105,93.2748 C487.1385,94.4898 488.7965,96.1878 489.9875,98.3648 C491.1785,100.5438 491.7725,103.0268 491.7725,105.8128 C491.7725,108.5988 491.1845,111.0998 490.0065,113.3168 C488.8285,115.5318 487.1825,117.2618 485.0665,118.5028 C482.9515,119.7438 480.5525,120.3648 477.8665,120.3648 C475.1565,120.3648 472.7375,119.7568 470.6095,118.5408 C468.4825,117.3248 466.8235,115.6278 465.6335,113.4488" id="Fill-148" fill="#B67CEE" mask="url(#mask-2)"></path>
                <path d="M498.1606,94.6416 L495.8816,92.2476 L495.8816,91.9446 L504.1636,91.9446 L504.1636,92.2476 L501.5046,94.6416 L501.5046,118.6166 L507.3176,118.6166 C508.5586,118.6166 509.5976,118.2816 510.4326,117.6096 C511.2686,116.9386 511.8896,115.9956 512.2946,114.7796 L512.4466,114.7416 L515.2966,117.4386 C514.5366,118.3256 513.5936,118.9526 512.4656,119.3196 C511.3386,119.6866 509.8116,119.8706 507.8876,119.8706 L495.7286,119.8706 L495.7286,119.5666 L498.1606,117.1726 L498.1606,94.6416 Z" id="Fill-149" fill="#B67CEE" mask="url(#mask-2)"></path>
                <polygon id="Fill-150" fill="#B67CEE" mask="url(#mask-2)" points="520.3149 117.1729 520.3149 94.6419 518.2629 92.2479 518.2629 91.9439 525.7479 91.9439 525.7479 92.2479 523.6579 94.6419 523.6579 117.1729 526.1269 119.5669 526.1269 119.8699 517.8829 119.8699 517.8829 119.5669"></polygon>
                <path d="M532.1704,117.8565 L530.3464,119.8705 L530.0804,119.8705 L530.0804,112.2715 L531.3344,112.2715 C531.6634,114.4505 532.4684,116.1405 533.7464,117.3435 C535.0254,118.5465 536.6534,119.1485 538.6294,119.1485 C540.3774,119.1485 541.8084,118.6485 542.9224,117.6475 C544.0374,116.6475 544.5944,115.2735 544.5944,113.5255 C544.5944,112.4865 544.3854,111.5755 543.9674,110.7905 C543.5494,110.0045 542.8474,109.2635 541.8584,108.5675 C540.8704,107.8705 539.5034,107.1425 537.7554,106.3825 C535.2474,105.2935 533.4374,104.1155 532.3214,102.8485 C531.2074,101.5825 530.6504,100.0875 530.6504,98.3655 C530.6504,96.8715 531.0304,95.6045 531.7904,94.5665 C532.5504,93.5275 533.5444,92.7495 534.7734,92.2295 C536.0014,91.7105 537.3244,91.4505 538.7434,91.4505 C540.4654,91.4505 542.0174,91.8425 543.3984,92.6275 C544.7774,93.4145 545.8224,94.5025 546.5314,95.8955 L543.6824,98.4035 L543.4544,98.2895 C543.4544,96.5165 543.0114,95.1235 542.1244,94.1105 C541.2374,93.0965 540.0224,92.5905 538.4774,92.5905 C537.0334,92.5905 535.8434,93.0025 534.9054,93.8255 C533.9684,94.6485 533.5004,95.7825 533.5004,97.2255 C533.5004,98.5685 533.9754,99.7085 534.9254,100.6455 C535.8744,101.5825 537.5664,102.5705 539.9974,103.6085 C542.6314,104.7735 544.5304,106.0465 545.6954,107.4265 C546.8614,108.8075 547.4434,110.4475 547.4434,112.3475 C547.4434,113.9685 547.0514,115.3865 546.2664,116.6025 C545.4814,117.8185 544.4304,118.7505 543.1124,119.3955 C541.7954,120.0415 540.3524,120.3645 538.7814,120.3645 C537.4644,120.3645 536.2414,120.1495 535.1144,119.7185 C533.9874,119.2885 533.0064,118.6675 532.1704,117.8565" id="Fill-151" fill="#B67CEE" mask="url(#mask-2)"></path>
                <polygon id="Fill-152" fill="#B67CEE" mask="url(#mask-2)" points="578.603 119.5664 578.603 119.8704 570.358 119.8704 570.358 119.5664 572.79 117.1724 572.79 105.8124 557.173 105.8124 557.173 117.1724 559.643 119.5664 559.643 119.8704 551.399 119.8704 551.399 119.5664 553.831 117.1724 553.831 94.6414 551.399 92.2484 551.399 91.9444 559.643 91.9444 559.643 92.2484 557.173 94.6414 557.173 104.5964 572.79 104.5964 572.79 94.6414 570.51 92.2484 570.51 91.9444 578.413 91.9444 578.413 92.2484 576.133 94.6414 576.133 117.1724"></polygon>
                <path d="M606.8003,108.6621 L601.8613,97.1491 L596.9593,108.6621 L606.8003,108.6621 Z M616.4883,119.5661 L616.4883,119.8701 L607.9783,119.8701 L607.9783,119.5661 L610.4473,117.1731 L607.3313,109.9161 L596.3893,109.9161 L593.3123,117.1731 L595.7433,119.5661 L595.7433,119.8701 L589.1323,119.8701 L589.1323,119.5661 L591.7923,117.1731 L601.1013,95.4401 L599.9613,93.0461 L603.1143,91.6021 L614.1333,117.1731 L616.4883,119.5661 Z" id="Stroke-153" stroke="#FFFFFF" stroke-width="0.5" mask="url(#mask-2)"></path>
                <path d="M621.5083,94.6416 L619.2283,92.2476 L619.2283,91.9446 L627.5113,91.9446 L627.5113,92.2476 L624.8513,94.6416 L624.8513,118.6166 L630.6643,118.6166 C631.9053,118.6166 632.9443,118.2816 633.7793,117.6096 C634.6153,116.9386 635.2373,115.9956 635.6423,114.7796 L635.7933,114.7416 L638.6433,117.4386 C637.8833,118.3256 636.9403,118.9526 635.8133,119.3196 C634.6863,119.6866 633.1593,119.8706 631.2353,119.8706 L619.0763,119.8706 L619.0763,119.5666 L621.5083,117.1726 L621.5083,94.6416 Z" id="Stroke-154" stroke="#FFFFFF" stroke-width="0.5" mask="url(#mask-2)"></path>
                <path d="M643.6616,94.6416 L641.3816,92.2476 L641.3816,91.9446 L649.6646,91.9446 L649.6646,92.2476 L647.0046,94.6416 L647.0046,118.6166 L652.8176,118.6166 C654.0586,118.6166 655.0976,118.2816 655.9326,117.6096 C656.7686,116.9386 657.3906,115.9956 657.7956,114.7796 L657.9466,114.7416 L660.7966,117.4386 C660.0366,118.3256 659.0936,118.9526 657.9666,119.3196 C656.8396,119.6866 655.3126,119.8706 653.3886,119.8706 L641.2296,119.8706 L641.2296,119.5666 L643.6616,117.1726 L643.6616,94.6416 Z" id="Stroke-155" stroke="#FFFFFF" stroke-width="0.5" mask="url(#mask-2)"></path>
                <polygon id="Stroke-156" stroke="#FFFFFF" stroke-width="0.5" mask="url(#mask-2)" points="680.0259 117.0967 680.0259 93.1987 673.8709 93.1987 669.8049 98.0997 669.4249 98.0997 670.4519 91.9447 692.9439 91.9447 693.9319 98.0997 693.5519 98.0997 689.4869 93.1987 683.3699 93.1987 683.3699 117.0967 685.7249 119.5667 685.7249 119.8697 677.6319 119.8697 677.6319 119.5667"></polygon>
                <polygon id="Stroke-157" stroke="#FFFFFF" stroke-width="0.5" mask="url(#mask-2)" points="723.7231 119.5664 723.7231 119.8704 715.4781 119.8704 715.4781 119.5664 717.9101 117.1724 717.9101 105.8124 702.2941 105.8124 702.2941 117.1724 704.7641 119.5664 704.7641 119.8704 696.5191 119.8704 696.5191 119.5664 698.9511 117.1724 698.9511 94.6414 696.5191 92.2484 696.5191 91.9444 704.7641 91.9444 704.7641 92.2484 702.2941 94.6414 702.2941 104.5964 717.9101 104.5964 717.9101 94.6414 715.6301 92.2484 715.6301 91.9444 723.5341 91.9444 723.5341 92.2484 721.2531 94.6414 721.2531 117.1724"></polygon>
                <path d="M743.0288,108.6621 L738.0898,97.1491 L733.1888,108.6621 L743.0288,108.6621 Z M752.7168,119.5661 L752.7168,119.8701 L744.2068,119.8701 L744.2068,119.5661 L746.6758,117.1731 L743.5608,109.9161 L732.6188,109.9161 L729.5418,117.1731 L731.9728,119.5661 L731.9728,119.8701 L725.3618,119.8701 L725.3618,119.5661 L728.0208,117.1731 L737.3298,95.4401 L736.1898,93.0461 L739.3428,91.6021 L750.3618,117.1731 L752.7168,119.5661 Z" id="Stroke-158" stroke="#FFFFFF" stroke-width="0.5" mask="url(#mask-2)"></path>
                <polygon id="Stroke-159" stroke="#FFFFFF" stroke-width="0.5" mask="url(#mask-2)" points="761.1558 117.0967 761.1558 93.1987 755.0008 93.1987 750.9348 98.0997 750.5548 98.0997 751.5818 91.9447 774.0738 91.9447 775.0618 98.0997 774.6818 98.0997 770.6168 93.1987 764.4998 93.1987 764.4998 117.0967 766.8548 119.5667 766.8548 119.8697 758.7618 119.8697 758.7618 119.5667"></polygon>
                <path d="M46.2295,163.4561 L44.4055,165.4701 L44.1405,165.4701 L44.1405,157.8711 L45.3935,157.8711 C45.7235,160.0491 46.5275,161.7401 47.8065,162.9431 C49.0855,164.1461 50.7125,164.7481 52.6885,164.7481 C54.4365,164.7481 55.8675,164.2481 56.9815,163.2471 C58.0965,162.2461 58.6535,160.8721 58.6535,159.1251 C58.6535,158.0861 58.4445,157.1741 58.0265,156.3891 C57.6085,155.6031 56.9065,154.8631 55.9175,154.1661 C54.9305,153.4701 53.5625,152.7411 51.8145,151.9811 C49.3075,150.8931 47.4965,149.7151 46.3815,148.4481 C45.2675,147.1821 44.7095,145.6871 44.7095,143.9651 C44.7095,142.4711 45.0895,141.2041 45.8495,140.1661 C46.6095,139.1271 47.6035,138.3491 48.8325,137.8291 C50.0605,137.3101 51.3845,137.0501 52.8025,137.0501 C54.5245,137.0501 56.0765,137.4421 57.4575,138.2271 C58.8375,139.0141 59.8825,140.1021 60.5915,141.4951 L57.7415,144.0031 L57.5145,143.8891 C57.5145,142.1161 57.0705,140.7231 56.1845,139.7101 C55.2975,138.6961 54.0825,138.1901 52.5365,138.1901 C51.0925,138.1901 49.9025,138.6021 48.9655,139.4251 C48.0275,140.2481 47.5595,141.3821 47.5595,142.8251 C47.5595,144.1681 48.0345,145.3081 48.9845,146.2441 C49.9345,147.1821 51.6255,148.1701 54.0565,149.2081 C56.6905,150.3731 58.5905,151.6461 59.7555,153.0261 C60.9205,154.4071 61.5035,156.0471 61.5035,157.9471 C61.5035,159.5681 61.1105,160.9861 60.3255,162.2021 C59.5405,163.4181 58.4895,164.3491 57.1715,164.9951 C55.8545,165.6411 54.4115,165.9641 52.8405,165.9641 C51.5235,165.9641 50.3015,165.7481 49.1745,165.3171 C48.0465,164.8871 47.0655,164.2671 46.2295,163.4561 Z" id="Stroke-160" stroke="#FFFFFF" stroke-width="0.5" mask="url(#mask-2)"></path>
                <polygon id="Stroke-161" stroke="#FFFFFF" stroke-width="0.5" mask="url(#mask-2)" points="73.2085 162.6963 73.2085 138.7983 67.0535 138.7983 62.9875 143.6993 62.6075 143.6993 63.6335 137.5443 86.1265 137.5443 87.1145 143.6993 86.7345 143.6993 82.6685 138.7983 76.5515 138.7983 76.5515 162.6963 78.9075 165.1663 78.9075 165.4693 70.8145 165.4693 70.8145 165.1663"></polygon>
                <path d="M103,154.2617 L98.061,142.7487 L93.16,154.2617 L103,154.2617 Z M112.688,165.1657 L112.688,165.4697 L104.178,165.4697 L104.178,165.1657 L106.647,162.7727 L103.532,155.5157 L92.59,155.5157 L89.512,162.7727 L91.944,165.1657 L91.944,165.4697 L85.333,165.4697 L85.333,165.1657 L87.992,162.7727 L97.301,141.0397 L96.161,138.6457 L99.314,137.2017 L110.333,162.7727 L112.688,165.1657 Z" id="Stroke-162" stroke="#FFFFFF" stroke-width="0.5" mask="url(#mask-2)"></path>
                <polygon id="Stroke-163" stroke="#FFFFFF" stroke-width="0.5" mask="url(#mask-2)" points="142.8218 137.544 142.8218 137.848 139.8208 140.241 139.8208 165.47 138.5668 165.47 119.6828 142.218 119.6828 162.773 122.6848 165.166 122.6848 165.47 115.2758 165.47 115.2758 165.166 118.2388 162.773 118.2388 140.47 116.0738 137.848 116.0738 137.544 120.3668 137.544 135.9828 156.807 138.3768 159.847 138.3768 140.241 135.3748 137.848 135.3748 137.544"></polygon>
                <path d="M169.4229,152.4756 C169.4229,148.2956 168.4099,144.9716 166.3829,142.5016 C164.3569,140.0336 161.3049,138.7976 157.2269,138.7976 L153.0469,138.7976 L153.0469,161.4806 C153.7309,162.4676 154.6809,163.2416 155.8969,163.7976 C157.1119,164.3556 158.5059,164.6336 160.0759,164.6336 C163.0399,164.6336 165.3389,163.5886 166.9719,161.4986 C168.6059,159.4096 169.4229,156.4016 169.4229,152.4756 Z M171.2659,144.5536 C172.4689,146.7706 173.0699,149.3476 173.0699,152.2866 C173.0699,155.0466 172.5639,157.4586 171.5499,159.5236 C170.5369,161.5876 169.0929,163.1776 167.2189,164.2916 C165.3449,165.4066 163.1539,165.9636 160.6459,165.9636 C158.9229,165.9636 157.4169,165.7166 156.1249,165.2226 C154.8329,164.7286 153.7819,164.0006 152.9709,163.0386 L152.9709,165.4696 L147.2719,165.4696 L147.2719,165.1656 L149.7039,162.7726 L149.7039,140.2416 L147.2719,137.8476 L147.2719,137.5436 L156.9989,137.5436 C160.4939,137.5436 163.4449,138.1586 165.8509,139.3866 C168.2569,140.6156 170.0619,142.3376 171.2659,144.5536 Z" id="Stroke-164" stroke="#FFFFFF" stroke-width="0.5" mask="url(#mask-2)"></path>
                <path d="M178.7349,163.4561 L176.9109,165.4701 L176.6459,165.4701 L176.6459,157.8711 L177.8989,157.8711 C178.2289,160.0491 179.0329,161.7401 180.3119,162.9431 C181.5909,164.1461 183.2179,164.7481 185.1939,164.7481 C186.9419,164.7481 188.3729,164.2481 189.4869,163.2471 C190.6019,162.2461 191.1589,160.8721 191.1589,159.1251 C191.1589,158.0861 190.9499,157.1741 190.5319,156.3891 C190.1139,155.6031 189.4119,154.8631 188.4229,154.1661 C187.4359,153.4701 186.0679,152.7411 184.3199,151.9811 C181.8129,150.8931 180.0019,149.7151 178.8869,148.4481 C177.7729,147.1821 177.2149,145.6871 177.2149,143.9651 C177.2149,142.4711 177.5949,141.2041 178.3549,140.1661 C179.1149,139.1271 180.1089,138.3491 181.3379,137.8291 C182.5659,137.3101 183.8899,137.0501 185.3079,137.0501 C187.0299,137.0501 188.5819,137.4421 189.9629,138.2271 C191.3429,139.0141 192.3879,140.1021 193.0969,141.4951 L190.2469,144.0031 L190.0199,143.8891 C190.0199,142.1161 189.5759,140.7231 188.6899,139.7101 C187.8029,138.6961 186.5869,138.1901 185.0419,138.1901 C183.5979,138.1901 182.4079,138.6021 181.4709,139.4251 C180.5329,140.2481 180.0649,141.3821 180.0649,142.8251 C180.0649,144.1681 180.5399,145.3081 181.4899,146.2441 C182.4399,147.1821 184.1309,148.1701 186.5619,149.2081 C189.1959,150.3731 191.0959,151.6461 192.2609,153.0261 C193.4259,154.4071 194.0089,156.0471 194.0089,157.9471 C194.0089,159.5681 193.6159,160.9861 192.8309,162.2021 C192.0459,163.4181 190.9949,164.3491 189.6769,164.9951 C188.3599,165.6411 186.9169,165.9641 185.3459,165.9641 C184.0289,165.9641 182.8069,165.7481 181.6799,165.3171 C180.5519,164.8871 179.5709,164.2671 178.7349,163.4561 Z" id="Stroke-165" stroke="#FFFFFF" stroke-width="0.5" mask="url(#mask-2)"></path>
                <polygon id="Stroke-166" stroke="#FFFFFF" stroke-width="0.5" mask="url(#mask-2)" points="208.3369 162.7725 208.3369 140.2415 206.2849 137.8475 206.2849 137.5435 213.7699 137.5435 213.7699 137.8475 211.6799 140.2415 211.6799 162.7725 214.1499 165.1665 214.1499 165.4695 205.9049 165.4695 205.9049 165.1665"></polygon>
                <polygon id="Stroke-167" stroke="#FFFFFF" stroke-width="0.5" mask="url(#mask-2)" points="246.1807 137.544 246.1807 137.848 243.1797 140.241 243.1797 165.47 241.9257 165.47 223.0417 142.218 223.0417 162.773 226.0437 165.166 226.0437 165.47 218.6347 165.47 218.6347 165.166 221.5977 162.773 221.5977 140.47 219.4327 137.848 219.4327 137.544 223.7257 137.544 239.3417 156.807 241.7357 159.847 241.7357 140.241 238.7337 137.848 238.7337 137.544"></polygon>
                <polygon id="Stroke-168" stroke="#FFFFFF" stroke-width="0.5" mask="url(#mask-2)" points="267.2734 162.6963 267.2734 138.7983 261.1184 138.7983 257.0524 143.6993 256.6724 143.6993 257.6984 137.5443 280.1914 137.5443 281.1794 143.6993 280.7994 143.6993 276.7334 138.7983 270.6174 138.7983 270.6174 162.6963 272.9724 165.1663 272.9724 165.4693 264.8794 165.4693 264.8794 165.1663"></polygon>
                <polygon id="Stroke-169" stroke="#FFFFFF" stroke-width="0.5" mask="url(#mask-2)" points="310.9707 165.166 310.9707 165.47 302.7257 165.47 302.7257 165.166 305.1577 162.772 305.1577 151.412 289.5417 151.412 289.5417 162.772 292.0117 165.166 292.0117 165.47 283.7667 165.47 283.7667 165.166 286.1987 162.772 286.1987 140.241 283.7667 137.848 283.7667 137.544 292.0117 137.544 292.0117 137.848 289.5417 140.241 289.5417 150.196 305.1577 150.196 305.1577 140.241 302.8777 137.848 302.8777 137.544 310.7807 137.544 310.7807 137.848 308.5007 140.241 308.5007 162.772"></polygon>
                <path d="M332.499,164.919 C331.372,165.286 329.858,165.47 327.958,165.47 L315.458,165.47 L315.458,165.166 L317.89,162.773 L317.89,140.241 L315.458,137.848 L315.458,137.544 L332.518,137.544 L333.544,143.319 L333.164,143.319 L329.099,138.798 L321.233,138.798 L321.233,150.196 L326.895,150.196 L329.212,147.574 L329.554,147.574 L329.554,154.033 L329.212,154.033 L326.895,151.412 L321.233,151.412 L321.233,164.216 L327.389,164.216 C328.63,164.216 329.668,163.88 330.504,163.209 C331.34,162.538 331.961,161.595 332.366,160.379 L332.518,160.341 L335.368,163.038 C334.582,163.925 333.626,164.552 332.499,164.919 Z" id="Stroke-170" stroke="#FFFFFF" stroke-width="0.5" mask="url(#mask-2)"></path>
                <polygon id="Stroke-171" stroke="#FFFFFF" stroke-width="0.5" mask="url(#mask-2)" points="384.8027 137.544 384.8027 137.848 382.5227 140.241 372.9867 165.47 371.5427 165.47 364.8177 146.055 357.9407 165.47 356.5347 165.47 347.0357 140.241 344.5667 137.848 344.5667 137.544 352.6977 137.544 352.6977 137.848 350.6457 140.241 357.2567 158.023 358.2067 161.024 364.1337 144.117 361.7777 137.848 361.7777 137.544 368.9967 137.544 368.9967 137.848 366.2607 140.241 372.3787 158.023 373.2907 160.986 381.1167 140.241 378.8377 137.848 378.8377 137.544"></polygon>
                <path d="M397.6499,154.2617 L392.7109,142.7487 L387.8099,154.2617 L397.6499,154.2617 Z M407.3379,165.1657 L407.3379,165.4697 L398.8279,165.4697 L398.8279,165.1657 L401.2969,162.7727 L398.1819,155.5157 L387.2389,155.5157 L384.1619,162.7727 L386.5939,165.1657 L386.5939,165.4697 L379.9829,165.4697 L379.9829,165.1657 L382.6419,162.7727 L391.9509,141.0397 L390.8109,138.6457 L393.9639,137.2017 L404.9829,162.7727 L407.3379,165.1657 Z" id="Stroke-172" stroke="#FFFFFF" stroke-width="0.5" mask="url(#mask-2)"></path>
                <polygon id="Stroke-173" stroke="#FFFFFF" stroke-width="0.5" mask="url(#mask-2)" points="415.6245 162.7725 415.6245 152.0575 407.1135 140.2415 404.0365 137.8475 404.0365 137.5435 413.9145 137.5435 413.9145 137.8475 411.2555 140.2795 418.3595 150.1585 425.4275 140.2795 422.8055 137.8475 422.8055 137.5435 429.9475 137.5435 429.9475 137.8475 427.1365 140.2415 418.9685 151.5635 418.9685 162.7725 421.4365 165.1665 421.4365 165.4695 413.1545 165.4695 413.1545 165.1665"></polygon>
                <path d="M444.8472,144.1924 C444.0362,146.0924 443.6312,148.2834 443.6312,150.7654 C443.6312,153.4764 444.0932,155.9014 445.0182,158.0424 C445.9432,160.1824 447.2282,161.8474 448.8742,163.0384 C450.5212,164.2284 452.3822,164.8244 454.4592,164.8244 C456.3602,164.8244 458.0432,164.3044 459.5132,163.2654 C460.9822,162.2274 462.1282,160.7584 462.9512,158.8584 C463.7752,156.9594 464.1862,154.7554 464.1862,152.2484 C464.1862,149.5624 463.7242,147.1504 462.7992,145.0094 C461.8742,142.8704 460.5892,141.2044 458.9432,140.0134 C457.2962,138.8234 455.4352,138.2274 453.3582,138.2274 C451.4582,138.2274 449.7672,138.7474 448.2852,139.7864 C446.8042,140.8244 445.6582,142.2934 444.8472,144.1924 Z M441.7322,159.0484 C440.5412,156.8704 439.9462,154.3874 439.9462,151.6014 C439.9462,148.8154 440.5352,146.3144 441.7122,144.0974 C442.8902,141.8814 444.5362,140.1534 446.6522,138.9124 C448.7672,137.6714 451.1662,137.0494 453.8522,137.0494 C456.5622,137.0494 458.9812,137.6584 461.1092,138.8744 C463.2372,140.0894 464.8952,141.7874 466.0862,143.9644 C467.2772,146.1434 467.8712,148.6264 467.8712,151.4124 C467.8712,154.1984 467.2832,156.6994 466.1052,158.9164 C464.9272,161.1314 463.2812,162.8604 461.1652,164.1014 C459.0502,165.3424 456.6512,165.9634 453.9652,165.9634 C451.2552,165.9634 448.8362,165.3554 446.7082,164.1394 C444.5812,162.9234 442.9222,161.2264 441.7322,159.0484 Z" id="Stroke-174" stroke="#FFFFFF" stroke-width="0.5" mask="url(#mask-2)"></path>
                <polygon id="Stroke-175" stroke="#FFFFFF" stroke-width="0.5" mask="url(#mask-2)" points="477.603 138.7979 477.603 150.1959 483.264 150.1959 485.62 147.4599 485.961 147.4599 485.961 154.1479 485.62 154.1479 483.264 151.4119 477.603 151.4119 477.603 162.7349 480.567 165.1659 480.567 165.4699 471.828 165.4699 471.828 165.1659 474.259 162.7729 474.259 140.2409 471.828 137.8479 471.828 137.5439 488.887 137.5439 489.914 143.3949 489.534 143.3949 485.468 138.7979"></polygon>
                <polygon id="Fill-176" fill="#DB643B" mask="url(#mask-2)" points="503.1772 162.7725 503.1772 140.2415 501.1252 137.8475 501.1252 137.5435 508.6102 137.5435 508.6102 137.8475 506.5202 140.2415 506.5202 162.7725 508.9892 165.1665 508.9892 165.4695 500.7452 165.4695 500.7452 165.1665"></polygon>
                <polygon id="Fill-177" fill="#DB643B" mask="url(#mask-2)" points="545.9604 165.166 545.9604 165.47 538.0574 165.47 538.0574 165.166 540.3744 162.772 536.9554 142.901 528.9764 165.47 527.7234 165.47 519.6304 142.863 516.1724 162.772 519.1364 165.166 519.1364 165.47 511.9174 165.47 511.9174 165.166 514.8424 162.772 518.7184 140.317 517.9964 138.342 521.0734 137.164 528.4444 157.719 529.2044 160.683 536.4614 140.204 535.9674 137.734 539.1964 137.164 543.7184 162.772"></polygon>
                <path d="M564.6587,154.2617 L559.7197,142.7487 L554.8177,154.2617 L564.6587,154.2617 Z M574.3467,165.1657 L574.3467,165.4697 L565.8367,165.4697 L565.8367,165.1657 L568.3057,162.7727 L565.1897,155.5157 L554.2477,155.5157 L551.1707,162.7727 L553.6017,165.1657 L553.6017,165.4697 L546.9907,165.4697 L546.9907,165.1657 L549.6507,162.7727 L558.9597,141.0397 L557.8197,138.6457 L560.9727,137.2017 L571.9917,162.7727 L574.3467,165.1657 Z" id="Fill-178" fill="#DB643B" mask="url(#mask-2)"></path>
                <path d="M600.8706,152.3614 L600.8706,165.4694 L600.4906,165.4694 L598.1736,160.7584 C597.1846,162.4054 595.8616,163.6834 594.2026,164.5954 C592.5436,165.5074 590.6506,165.9644 588.5226,165.9644 C586.0156,165.9644 583.7356,165.3554 581.6836,164.1394 C579.6326,162.9244 578.0166,161.2264 576.8396,159.0484 C575.6616,156.8704 575.0726,154.4004 575.0726,151.6394 C575.0726,148.8534 575.6616,146.3524 576.8396,144.1354 C578.0166,141.9204 579.6506,140.1844 581.7406,138.9304 C583.8306,137.6764 586.2186,137.0494 588.9026,137.0494 C591.7906,137.0494 594.3356,137.7594 596.5396,139.1774 C598.7436,140.5964 600.2756,142.4704 601.1376,144.8004 L598.1356,147.1184 L597.9076,147.0054 C597.5776,144.3444 596.5706,142.2174 594.8876,140.6224 C593.2026,139.0254 591.0816,138.2274 588.5226,138.2274 C586.6236,138.2274 584.9326,138.7214 583.4506,139.7104 C581.9696,140.6974 580.8156,142.0964 579.9926,143.9084 C579.1696,145.7184 578.7586,147.8154 578.7586,150.1964 C578.7586,152.8044 579.2146,155.1354 580.1266,157.1864 C581.0376,159.2384 582.3236,160.8404 583.9826,161.9934 C585.6416,163.1454 587.5476,163.7214 589.7006,163.7214 C592.2336,163.7214 594.3046,162.9874 595.9126,161.5184 C597.5206,160.0484 598.4136,158.0484 598.5916,155.5154 L591.7906,152.7414 L591.7906,152.3614 L600.8706,152.3614 Z" id="Fill-179" fill="#DB643B" mask="url(#mask-2)"></path>
                <polygon id="Fill-180" fill="#DB643B" mask="url(#mask-2)" points="608.0181 162.7725 608.0181 140.2415 605.9661 137.8475 605.9661 137.5435 613.4511 137.5435 613.4511 137.8475 611.3611 140.2415 611.3611 162.7725 613.8301 165.1665 613.8301 165.4695 605.5861 165.4695 605.5861 165.1665"></polygon>
                <polygon id="Fill-181" fill="#DB643B" mask="url(#mask-2)" points="645.8618 137.544 645.8618 137.848 642.8598 140.241 642.8598 165.47 641.6058 165.47 622.7228 142.218 622.7228 162.773 625.7238 165.166 625.7238 165.47 618.3158 165.47 618.3158 165.166 621.2788 162.773 621.2788 140.47 619.1138 137.848 619.1138 137.544 623.4068 137.544 639.0228 156.807 641.4168 159.847 641.4168 140.241 638.4148 137.848 638.4148 137.544"></polygon>
                <path d="M664.3696,154.2617 L659.4306,142.7487 L654.5286,154.2617 L664.3696,154.2617 Z M674.0576,165.1657 L674.0576,165.4697 L665.5476,165.4697 L665.5476,165.1657 L668.0166,162.7727 L664.9006,155.5157 L653.9586,155.5157 L650.8816,162.7727 L653.3126,165.1657 L653.3126,165.4697 L646.7016,165.4697 L646.7016,165.1657 L649.3616,162.7727 L658.6706,141.0397 L657.5306,138.6457 L660.6836,137.2017 L671.7026,162.7727 L674.0576,165.1657 Z" id="Fill-182" fill="#DB643B" mask="url(#mask-2)"></path>
                <polygon id="Fill-183" fill="#DB643B" mask="url(#mask-2)" points="682.4966 162.6963 682.4966 138.7983 676.3416 138.7983 672.2756 143.6993 671.8956 143.6993 672.9216 137.5443 695.4146 137.5443 696.4016 143.6993 696.0216 143.6993 691.9566 138.7983 685.8396 138.7983 685.8396 162.6963 688.1956 165.1663 688.1956 165.4693 680.1026 165.4693 680.1026 165.1663"></polygon>
                <polygon id="Fill-184" fill="#DB643B" mask="url(#mask-2)" points="701.4214 162.7725 701.4214 140.2415 699.3694 137.8475 699.3694 137.5435 706.8544 137.5435 706.8544 137.8475 704.7644 140.2415 704.7644 162.7725 707.2334 165.1665 707.2334 165.4695 698.9894 165.4695 698.9894 165.1665"></polygon>
                <path d="M716.0884,144.1924 C715.2774,146.0924 714.8724,148.2834 714.8724,150.7654 C714.8724,153.4764 715.3344,155.9014 716.2594,158.0424 C717.1844,160.1824 718.4694,161.8474 720.1154,163.0384 C721.7624,164.2284 723.6234,164.8244 725.7004,164.8244 C727.6014,164.8244 729.2844,164.3044 730.7544,163.2654 C732.2234,162.2274 733.3694,160.7584 734.1924,158.8584 C735.0164,156.9594 735.4274,154.7554 735.4274,152.2484 C735.4274,149.5624 734.9654,147.1504 734.0404,145.0094 C733.1154,142.8704 731.8304,141.2044 730.1844,140.0134 C728.5374,138.8234 726.6764,138.2274 724.5994,138.2274 C722.6994,138.2274 721.0084,138.7474 719.5264,139.7864 C718.0454,140.8244 716.8994,142.2934 716.0884,144.1924 M712.9734,159.0484 C711.7824,156.8704 711.1874,154.3874 711.1874,151.6014 C711.1874,148.8154 711.7764,146.3144 712.9534,144.0974 C714.1314,141.8814 715.7774,140.1534 717.8934,138.9124 C720.0084,137.6714 722.4074,137.0494 725.0934,137.0494 C727.8034,137.0494 730.2224,137.6584 732.3504,138.8744 C734.4784,140.0894 736.1364,141.7874 737.3274,143.9644 C738.5184,146.1434 739.1124,148.6264 739.1124,151.4124 C739.1124,154.1984 738.5244,156.6994 737.3464,158.9164 C736.1684,161.1314 734.5224,162.8604 732.4064,164.1014 C730.2914,165.3424 727.8924,165.9634 725.2064,165.9634 C722.4964,165.9634 720.0774,165.3554 717.9494,164.1394 C715.8224,162.9234 714.1634,161.2264 712.9734,159.0484" id="Fill-185" fill="#DB643B" mask="url(#mask-2)"></path>
                <polygon id="Fill-186" fill="#DB643B" mask="url(#mask-2)" points="770.6147 137.544 770.6147 137.848 767.6127 140.241 767.6127 165.47 766.3587 165.47 747.4757 142.218 747.4757 162.773 750.4767 165.166 750.4767 165.47 743.0687 165.47 743.0687 165.166 746.0317 162.773 746.0317 140.47 743.8667 137.848 743.8667 137.544 748.1597 137.544 763.7757 156.807 766.1697 159.847 766.1697 140.241 763.1677 137.848 763.1677 137.544"></polygon>
                <polygon id="Stroke-187" stroke="#FFFFFF" stroke-width="0.5" mask="url(#mask-2)" points="777.0405 161.0244 779.6995 163.8744 777.0405 166.6854 774.3425 163.8744"></polygon>
            </g>
        </g>
    </g>
</svg>