<?xml version="1.0" encoding="UTF-8"?>
<svg width="318px" height="448px" viewBox="0 0 318 448" version="1.1" xmlns="http://www.w3.org/2000/svg" xmlns:xlink="http://www.w3.org/1999/xlink">
    <title>manifestoMobile_03</title>
    <defs>
        <polygon id="path-1" points="0 -5.68434189e-14 15.9968 -5.68434189e-14 15.9968 26.638 0 26.638"></polygon>
        <polygon id="path-3" points="0 447.916 317.521 447.916 317.521 0 0 0"></polygon>
    </defs>
    <g id="Page-1" stroke="none" stroke-width="1" fill="none" fill-rule="evenodd">
        <g id="03M.-Manifesto-Mobile" transform="translate(-36.000000, -2449.000000)">
            <g id="manifestoMobile_03" transform="translate(36.000000, 2449.000000)">
                <polygon id="Stroke-1" stroke="#FFFFFF" stroke-width="0.5" points="83.9502 0.7055 83.9502 0.9855 81.8502 3.1905 73.0642 26.4335 71.7342 26.4335 65.5382 8.5465 59.2032 26.4335 57.9072 26.4335 49.1562 3.1905 46.8822 0.9855 46.8822 0.7055 54.3722 0.7055 54.3722 0.9855 52.4822 3.1905 58.5722 19.5725 59.4482 22.3375 64.9082 6.7615 62.7382 0.9855 62.7382 0.7055 69.3882 0.7055 69.3882 0.9855 66.8682 3.1905 72.5042 19.5725 73.3442 22.3025 80.5542 3.1905 78.4552 0.9855 78.4552 0.7055"></polygon>
                <path d="M102.0264,25.9257 C100.9874,26.2637 99.5934,26.4327 97.8424,26.4327 L86.3274,26.4327 L86.3274,26.1537 L88.5674,23.9477 L88.5674,3.1907 L86.3274,0.9857 L86.3274,0.7057 L102.0444,0.7057 L102.9884,6.0257 L102.6384,6.0257 L98.8934,1.8607 L91.6474,1.8607 L91.6474,12.3617 L96.8634,12.3617 L98.9984,9.9467 L99.3134,9.9467 L99.3134,15.8967 L98.9984,15.8967 L96.8634,13.4817 L91.6474,13.4817 L91.6474,25.2777 L97.3184,25.2777 C98.4624,25.2777 99.4184,24.9687 100.1884,24.3507 C100.9584,23.7317 101.5304,22.8627 101.9034,21.7427 L102.0444,21.7077 L104.6694,24.1927 C103.9454,25.0097 103.0644,25.5877 102.0264,25.9257 Z" id="Stroke-3" stroke="#FFFFFF" stroke-width="0.5"></path>
                <path d="M130.5869,25.9257 C129.5479,26.2637 128.1539,26.4327 126.4029,26.4327 L114.8879,26.4327 L114.8879,26.1537 L117.1279,23.9477 L117.1279,3.1907 L114.8879,0.9857 L114.8879,0.7057 L130.6049,0.7057 L131.5489,6.0257 L131.1989,6.0257 L127.4539,1.8607 L120.2079,1.8607 L120.2079,12.3617 L125.4239,12.3617 L127.5589,9.9467 L127.8739,9.9467 L127.8739,15.8967 L127.5589,15.8967 L125.4239,13.4817 L120.2079,13.4817 L120.2079,25.2777 L125.8789,25.2777 C127.0229,25.2777 127.9789,24.9687 128.7489,24.3507 C129.5189,23.7317 130.0909,22.8627 130.4639,21.7427 L130.6049,21.7077 L133.2299,24.1927 C132.5059,25.0097 131.6249,25.5877 130.5869,25.9257 Z" id="Stroke-5" stroke="#FFFFFF" stroke-width="0.5"></path>
                <polygon id="Stroke-7" stroke="#FFFFFF" stroke-width="0.5" points="158.9902 26.1532 158.9902 26.4332 150.5892 26.4332 150.5892 26.1532 152.5502 23.9832 146.0392 14.4972 139.2482 23.9472 141.4882 26.1532 141.4882 26.4332 134.6972 26.4332 134.6972 26.1532 137.6732 23.9472 145.2682 13.3772 138.1632 3.1902 135.5722 0.9852 135.5722 0.7052 143.9732 0.7052 143.9732 0.9852 142.0132 3.1552 147.6142 11.3462 153.4592 3.1902 151.5692 0.9852 151.5692 0.7052 158.1152 0.7052 158.1152 0.9852 155.0342 3.1902 148.3482 12.3962 156.3642 23.9472"></polygon>
                <polygon id="Stroke-9" stroke="#FFFFFF" stroke-width="0.5" points="163.9229 23.9476 163.9229 3.1906 162.0319 0.9856 162.0319 0.7056 168.9279 0.7056 168.9279 0.9856 167.0029 3.1906 167.0029 23.9476 169.2779 26.1536 169.2779 26.4326 161.6829 26.4326 161.6829 26.1536"></polygon>
                <path d="M174.8418,24.578 L173.1618,26.433 L172.9168,26.433 L172.9168,19.432 L174.0718,19.432 C174.3748,21.439 175.1158,22.997 176.2948,24.105 C177.4738,25.214 178.9728,25.768 180.7928,25.768 C182.4038,25.768 183.7218,25.307 184.7478,24.385 C185.7758,23.464 186.2878,22.198 186.2878,20.587 C186.2878,19.631 186.0958,18.79 185.7108,18.067 C185.3258,17.344 184.6778,16.661 183.7688,16.019 C182.8588,15.378 181.5978,14.707 179.9878,14.007 C177.6778,13.003 176.0088,11.918 174.9828,10.751 C173.9548,9.584 173.4428,8.208 173.4428,6.621 C173.4428,5.244 173.7918,4.078 174.4918,3.12 C175.1928,2.164 176.1088,1.446 177.2398,0.968 C178.3718,0.49 179.5908,0.25 180.8978,0.25 C182.4848,0.25 183.9138,0.612 185.1858,1.335 C186.4578,2.059 187.4198,3.062 188.0728,4.346 L185.4478,6.656 L185.2378,6.551 C185.2378,4.917 184.8298,3.634 184.0128,2.701 C183.1958,1.767 182.0758,1.3 180.6528,1.3 C179.3218,1.3 178.2258,1.68 177.3628,2.438 C176.4988,3.196 176.0678,4.241 176.0678,5.571 C176.0678,6.807 176.5048,7.858 177.3798,8.721 C178.2548,9.584 179.8128,10.495 182.0528,11.452 C184.4798,12.525 186.2308,13.698 187.3038,14.969 C188.3768,16.241 188.9138,17.752 188.9138,19.502 C188.9138,20.996 188.5518,22.303 187.8278,23.423 C187.1058,24.543 186.1368,25.4 184.9228,25.995 C183.7098,26.591 182.3798,26.888 180.9328,26.888 C179.7198,26.888 178.5938,26.69 177.5548,26.293 C176.5168,25.896 175.6128,25.325 174.8418,24.578 Z" id="Stroke-11" stroke="#FFFFFF" stroke-width="0.5"></path>
                <polygon id="Stroke-13" stroke="#FFFFFF" stroke-width="0.5" points="199.6924 23.8778 199.6924 1.8598 194.0214 1.8598 190.2764 6.3758 189.9264 6.3758 190.8714 0.7058 211.5934 0.7058 212.5044 6.3758 212.1534 6.3758 208.4084 1.8598 202.7724 1.8598 202.7724 23.8778 204.9434 26.1528 204.9434 26.4328 197.4874 26.4328 197.4874 26.1528"></polygon>
                <polygon id="Stroke-15" stroke="#FFFFFF" stroke-width="0.5" points="230.2129 23.8778 230.2129 1.8598 224.5419 1.8598 220.7969 6.3758 220.4469 6.3758 221.3919 0.7058 242.1139 0.7058 243.0249 6.3758 242.6739 6.3758 238.9289 1.8598 233.2929 1.8598 233.2929 23.8778 235.4639 26.1528 235.4639 26.4328 228.0079 26.4328 228.0079 26.1528"></polygon>
                <path d="M249.4277,6.8309 C248.6807,8.5809 248.3077,10.5999 248.3077,12.8869 C248.3077,15.3839 248.7337,17.6179 249.5847,19.5899 C250.4367,21.5609 251.6207,23.0959 253.1377,24.1929 C254.6547,25.2889 256.3697,25.8379 258.2827,25.8379 C260.0327,25.8379 261.5857,25.3599 262.9387,24.4029 C264.2917,23.4459 265.3487,22.0929 266.1067,20.3419 C266.8647,18.5919 267.2437,16.5619 267.2437,14.2519 C267.2437,11.7779 266.8187,9.5559 265.9667,7.5829 C265.1157,5.6119 263.9307,4.0779 262.4137,2.9799 C260.8977,1.8839 259.1817,1.3349 257.2687,1.3349 C255.5187,1.3349 253.9607,1.8139 252.5957,2.7699 C251.2307,3.7269 250.1737,5.0809 249.4277,6.8309 Z M246.5577,20.5179 C245.4607,18.5109 244.9117,16.2239 244.9117,13.6569 C244.9117,11.0899 245.4547,8.7859 246.5397,6.7439 C247.6247,4.7019 249.1417,3.1089 251.0897,1.9649 C253.0387,0.8219 255.2497,0.2499 257.7237,0.2499 C260.2207,0.2499 262.4487,0.8099 264.4087,1.9309 C266.3687,3.0509 267.8977,4.6139 268.9937,6.6209 C270.0917,8.6279 270.6397,10.9149 270.6397,13.4819 C270.6397,16.0489 270.0977,18.3529 269.0117,20.3949 C267.9267,22.4369 266.4097,24.0289 264.4617,25.1729 C262.5127,26.3159 260.3017,26.8879 257.8277,26.8879 C255.3307,26.8879 253.1027,26.3279 251.1427,25.2079 C249.1827,24.0879 247.6547,22.5239 246.5577,20.5179 Z" id="Stroke-17" stroke="#FFFFFF" stroke-width="0.5"></path>
                <path d="M81.2539,67.9257 C80.2149,68.2637 78.8209,68.4327 77.0699,68.4327 L65.5549,68.4327 L65.5549,68.1537 L67.7949,65.9477 L67.7949,45.1907 L65.5549,42.9857 L65.5549,42.7057 L81.2719,42.7057 L82.2159,48.0257 L81.8659,48.0257 L78.1209,43.8607 L70.8749,43.8607 L70.8749,54.3617 L76.0909,54.3617 L78.2259,51.9467 L78.5409,51.9467 L78.5409,57.8967 L78.2259,57.8967 L76.0909,55.4817 L70.8749,55.4817 L70.8749,67.2777 L76.5459,67.2777 C77.6899,67.2777 78.6459,66.9687 79.4159,66.3507 C80.1859,65.7317 80.7579,64.8627 81.1309,63.7427 L81.2719,63.7077 L83.8969,66.1927 C83.1729,67.0097 82.2919,67.5877 81.2539,67.9257" id="Fill-19" fill="#B67CEE"></path>
                <path d="M95.5156,54.0463 C97.3826,54.0463 98.8466,53.6033 99.9086,52.7163 C100.9706,51.8293 101.5006,50.6043 101.5006,49.0413 C101.5006,47.4073 100.9586,46.1353 99.8726,45.2253 C98.7876,44.3153 97.2886,43.8603 95.3756,43.8603 L92.1196,43.8603 L92.1196,54.0463 L95.5156,54.0463 Z M107.6616,69.8333 L103.0406,68.1883 L93.9406,55.2013 L92.1196,55.2013 L92.1196,65.9473 L94.3956,68.1533 L94.3956,68.4333 L86.7996,68.4333 L86.7996,68.1533 L89.0396,65.9473 L89.0396,45.1903 L86.7996,42.9853 L86.7996,42.7053 L95.6906,42.7053 C98.4916,42.7053 100.7076,43.2303 102.3406,44.2803 C103.9746,45.3303 104.7906,46.8123 104.7906,48.7263 C104.7906,50.7093 103.9686,52.2843 102.3236,53.4513 C100.6786,54.6183 98.4206,55.2013 95.5506,55.2013 L95.0956,55.2013 L98.4916,56.3573 L107.8016,69.6583 L107.6616,69.8333 Z" id="Fill-21" fill="#B67CEE"></path>
                <path d="M124.7061,58.1068 L120.1551,47.5008 L115.6401,58.1068 L124.7061,58.1068 Z M133.6321,68.1528 L133.6321,68.4328 L125.7911,68.4328 L125.7911,68.1528 L128.0661,65.9478 L125.1961,59.2618 L115.1151,59.2618 L112.2791,65.9478 L114.5191,68.1528 L114.5191,68.4328 L108.4301,68.4328 L108.4301,68.1528 L110.8801,65.9478 L119.4551,45.9258 L118.4051,43.7208 L121.3101,42.3908 L131.4621,65.9478 L133.6321,68.1528 Z" id="Fill-23" fill="#B67CEE"></path>
                <path d="M137.4443,66.578 L135.7643,68.433 L135.5193,68.433 L135.5193,61.432 L136.6743,61.432 C136.9773,63.439 137.7183,64.997 138.8973,66.105 C140.0763,67.214 141.5753,67.768 143.3953,67.768 C145.0063,67.768 146.3243,67.307 147.3503,66.385 C148.3783,65.464 148.8903,64.198 148.8903,62.587 C148.8903,61.631 148.6983,60.79 148.3133,60.067 C147.9283,59.344 147.2803,58.661 146.3713,58.019 C145.4613,57.378 144.2003,56.707 142.5903,56.007 C140.2803,55.003 138.6113,53.918 137.5853,52.751 C136.5573,51.584 136.0453,50.208 136.0453,48.621 C136.0453,47.244 136.3943,46.078 137.0943,45.12 C137.7953,44.164 138.7113,43.446 139.8423,42.968 C140.9743,42.49 142.1933,42.25 143.5003,42.25 C145.0873,42.25 146.5163,42.612 147.7883,43.335 C149.0603,44.059 150.0223,45.062 150.6753,46.346 L148.0503,48.656 L147.8403,48.551 C147.8403,46.917 147.4323,45.634 146.6153,44.701 C145.7983,43.767 144.6783,43.3 143.2553,43.3 C141.9243,43.3 140.8283,43.68 139.9653,44.438 C139.1013,45.196 138.6703,46.241 138.6703,47.571 C138.6703,48.807 139.1073,49.858 139.9823,50.721 C140.8573,51.584 142.4153,52.495 144.6553,53.452 C147.0823,54.525 148.8333,55.698 149.9063,56.969 C150.9793,58.241 151.5163,59.752 151.5163,61.502 C151.5163,62.996 151.1543,64.303 150.4303,65.423 C149.7083,66.543 148.7393,67.4 147.5253,67.995 C146.3123,68.591 144.9823,68.888 143.5353,68.888 C142.3223,68.888 141.1963,68.69 140.1573,68.293 C139.1193,67.896 138.2153,67.325 137.4443,66.578" id="Fill-25" fill="#B67CEE"></path>
                <path d="M170.8535,67.9257 C169.8145,68.2637 168.4205,68.4327 166.6695,68.4327 L155.1545,68.4327 L155.1545,68.1537 L157.3945,65.9477 L157.3945,45.1907 L155.1545,42.9857 L155.1545,42.7057 L170.8715,42.7057 L171.8155,48.0257 L171.4655,48.0257 L167.7205,43.8607 L160.4745,43.8607 L160.4745,54.3617 L165.6905,54.3617 L167.8255,51.9467 L168.1405,51.9467 L168.1405,57.8967 L167.8255,57.8967 L165.6905,55.4817 L160.4745,55.4817 L160.4745,67.2777 L166.1455,67.2777 C167.2895,67.2777 168.2455,66.9687 169.0155,66.3507 C169.7855,65.7317 170.3575,64.8627 170.7305,63.7427 L170.8715,63.7077 L173.4965,66.1927 C172.7725,67.0097 171.8915,67.5877 170.8535,67.9257" id="Fill-27" fill="#B67CEE"></path>
                <polygon id="Stroke-29" stroke="#FFFFFF" stroke-width="0.5" points="191.7305 65.8778 191.7305 43.8598 186.0595 43.8598 182.3145 48.3758 181.9645 48.3758 182.9095 42.7058 203.6315 42.7058 204.5425 48.3758 204.1915 48.3758 200.4465 43.8598 194.8105 43.8598 194.8105 65.8778 196.9815 68.1528 196.9815 68.4328 189.5255 68.4328 189.5255 68.1528"></polygon>
                <polygon id="Stroke-31" stroke="#FFFFFF" stroke-width="0.5" points="231.9824 68.1532 231.9824 68.4332 224.3864 68.4332 224.3864 68.1532 226.6274 65.9472 226.6274 55.4822 212.2404 55.4822 212.2404 65.9472 214.5154 68.1532 214.5154 68.4332 206.9204 68.4332 206.9204 68.1532 209.1604 65.9472 209.1604 45.1902 206.9204 42.9852 206.9204 42.7052 214.5154 42.7052 214.5154 42.9852 212.2404 45.1902 212.2404 54.3612 226.6274 54.3612 226.6274 45.1902 224.5264 42.9852 224.5264 42.7052 231.8074 42.7052 231.8074 42.9852 229.7074 45.1902 229.7074 65.9472"></polygon>
                <path d="M251.8096,67.9257 C250.7706,68.2637 249.3766,68.4327 247.6256,68.4327 L236.1106,68.4327 L236.1106,68.1537 L238.3506,65.9477 L238.3506,45.1907 L236.1106,42.9857 L236.1106,42.7057 L251.8276,42.7057 L252.7716,48.0257 L252.4216,48.0257 L248.6766,43.8607 L241.4306,43.8607 L241.4306,54.3617 L246.6466,54.3617 L248.7816,51.9467 L249.0966,51.9467 L249.0966,57.8967 L248.7816,57.8967 L246.6466,55.4817 L241.4306,55.4817 L241.4306,67.2777 L247.1016,67.2777 C248.2456,67.2777 249.2016,66.9687 249.9716,66.3507 C250.7416,65.7317 251.3136,64.8627 251.6866,63.7427 L251.8276,63.7077 L254.4526,66.1927 C253.7286,67.0097 252.8476,67.5877 251.8096,67.9257 Z" id="Stroke-33" stroke="#FFFFFF" stroke-width="0.5"></path>
                <path d="M16.2764,100.1068 L11.7254,89.5008 L7.2104,100.1068 L16.2764,100.1068 Z M25.2024,110.1528 L25.2024,110.4328 L17.3614,110.4328 L17.3614,110.1528 L19.6364,107.9478 L16.7664,101.2618 L6.6854,101.2618 L3.8494,107.9478 L6.0894,110.1528 L6.0894,110.4328 L0.0004,110.4328 L0.0004,110.1528 L2.4504,107.9478 L11.0254,87.9258 L9.9754,85.7208 L12.8804,84.3908 L23.0324,107.9478 L25.2024,110.1528 Z" id="Fill-35" fill="#DB643B"></path>
                <path d="M36.2959,96.0463 C38.1629,96.0463 39.6269,95.6033 40.6889,94.7163 C41.7509,93.8293 42.2809,92.6043 42.2809,91.0413 C42.2809,89.4073 41.7389,88.1353 40.6529,87.2253 C39.5679,86.3153 38.0689,85.8603 36.1549,85.8603 L32.8999,85.8603 L32.8999,96.0463 L36.2959,96.0463 Z M48.4419,111.8333 L43.8209,110.1883 L34.7209,97.2013 L32.8999,97.2013 L32.8999,107.9473 L35.1759,110.1533 L35.1759,110.4333 L27.5799,110.4333 L27.5799,110.1533 L29.8199,107.9473 L29.8199,87.1903 L27.5799,84.9853 L27.5799,84.7053 L36.4709,84.7053 C39.2719,84.7053 41.4879,85.2303 43.1209,86.2803 C44.7549,87.3303 45.5709,88.8123 45.5709,90.7263 C45.5709,92.7093 44.7489,94.2843 43.1039,95.4513 C41.4589,96.6183 39.2009,97.2013 36.3309,97.2013 L35.8759,97.2013 L39.2719,98.3573 L48.5819,111.6583 L48.4419,111.8333 Z" id="Fill-37" fill="#DB643B"></path>
                <path d="M66.5361,103.8871 C66.5361,101.8571 65.9301,100.2471 64.7161,99.0571 C63.5031,97.8661 61.7871,97.2711 59.5701,97.2711 L56.2801,97.2711 L56.2801,106.5481 C56.7001,107.5511 57.3531,108.3211 58.2401,108.8581 C59.1271,109.3941 60.1541,109.6631 61.3211,109.6631 C62.9311,109.6631 64.2031,109.1381 65.1361,108.0881 C66.0691,107.0371 66.5361,105.6371 66.5361,103.8871 L66.5361,103.8871 Z M56.2801,96.1511 L59.0461,96.1511 C60.9121,96.1511 62.3481,95.6911 63.3501,94.7691 C64.3541,93.8471 64.8561,92.5341 64.8561,90.8311 C64.8561,89.2201 64.3721,87.9901 63.4031,87.1381 C62.4351,86.2861 61.0291,85.8601 59.1851,85.8601 L56.2801,85.8601 L56.2801,96.1511 Z M68.8111,99.6871 C69.5821,100.7371 69.9671,102.0201 69.9671,103.5371 C69.9671,104.9141 69.6341,106.1621 68.9691,107.2831 C68.3041,108.4031 67.3531,109.2831 66.1161,109.9261 C64.8801,110.5671 63.4441,110.8881 61.8101,110.8881 C59.1741,110.8881 57.3071,110.0011 56.2101,108.2281 L56.2101,110.4331 L50.9601,110.4331 L50.9601,110.1531 L53.2001,107.9481 L53.2001,87.1901 L50.9601,84.9851 L50.9601,84.7051 L59.3951,84.7051 C61.9631,84.7051 63.9991,85.2191 65.5041,86.2451 C67.0091,87.2721 67.7621,88.6841 67.7621,90.4811 C67.7621,91.5541 67.4871,92.5231 66.9381,93.3861 C66.3901,94.2491 65.6731,94.9491 64.7861,95.4861 C63.8991,96.0231 62.9541,96.3621 61.9511,96.5011 C63.3051,96.5251 64.5941,96.7991 65.8181,97.3241 C67.0441,97.8491 68.0421,98.6371 68.8111,99.6871 L68.8111,99.6871 Z" id="Fill-39" fill="#DB643B"></path>
                <polygon id="Fill-41" fill="#DB643B" points="76.1602 107.9476 76.1602 87.1906 74.2692 84.9856 74.2692 84.7056 81.1652 84.7056 81.1652 84.9856 79.2402 87.1906 79.2402 107.9476 81.5152 110.1536 81.5152 110.4326 73.9202 110.4326 73.9202 110.1536"></polygon>
                <polygon id="Fill-43" fill="#DB643B" points="93.6602 107.8778 93.6602 85.8598 87.9892 85.8598 84.2442 90.3758 83.8942 90.3758 84.8392 84.7058 105.5612 84.7058 106.4722 90.3758 106.1212 90.3758 102.3762 85.8598 96.7402 85.8598 96.7402 107.8778 98.9112 110.1528 98.9112 110.4328 91.4552 110.4328 91.4552 110.1528"></polygon>
                <path d="M117.5654,96.0463 C119.4324,96.0463 120.8964,95.6033 121.9584,94.7163 C123.0204,93.8293 123.5504,92.6043 123.5504,91.0413 C123.5504,89.4073 123.0084,88.1353 121.9224,87.2253 C120.8374,86.3153 119.3384,85.8603 117.4244,85.8603 L114.1694,85.8603 L114.1694,96.0463 L117.5654,96.0463 Z M129.7114,111.8333 L125.0904,110.1883 L115.9904,97.2013 L114.1694,97.2013 L114.1694,107.9473 L116.4454,110.1533 L116.4454,110.4333 L108.8494,110.4333 L108.8494,110.1533 L111.0894,107.9473 L111.0894,87.1903 L108.8494,84.9853 L108.8494,84.7053 L117.7404,84.7053 C120.5414,84.7053 122.7574,85.2303 124.3904,86.2803 C126.0244,87.3303 126.8404,88.8123 126.8404,90.7263 C126.8404,92.7093 126.0184,94.2843 124.3734,95.4513 C122.7284,96.6183 120.4704,97.2013 117.6004,97.2013 L117.1454,97.2013 L120.5414,98.3573 L129.8514,111.6583 L129.7114,111.8333 Z" id="Fill-45" fill="#DB643B"></path>
                <path d="M146.7559,100.1068 L142.2049,89.5008 L137.6899,100.1068 L146.7559,100.1068 Z M155.6819,110.1528 L155.6819,110.4328 L147.8409,110.4328 L147.8409,110.1528 L150.1159,107.9478 L147.2459,101.2618 L137.1649,101.2618 L134.3289,107.9478 L136.5689,110.1528 L136.5689,110.4328 L130.4799,110.4328 L130.4799,110.1528 L132.9299,107.9478 L141.5049,87.9258 L140.4549,85.7208 L143.3599,84.3908 L153.5119,107.9478 L155.6819,110.1528 Z" id="Fill-47" fill="#DB643B"></path>
                <path d="M166.7754,96.0463 C168.6424,96.0463 170.1064,95.6033 171.1684,94.7163 C172.2304,93.8293 172.7604,92.6043 172.7604,91.0413 C172.7604,89.4073 172.2184,88.1353 171.1324,87.2253 C170.0474,86.3153 168.5484,85.8603 166.6354,85.8603 L163.3794,85.8603 L163.3794,96.0463 L166.7754,96.0463 Z M178.9214,111.8333 L174.3004,110.1883 L165.2004,97.2013 L163.3794,97.2013 L163.3794,107.9473 L165.6554,110.1533 L165.6554,110.4333 L158.0594,110.4333 L158.0594,110.1533 L160.2994,107.9473 L160.2994,87.1903 L158.0594,84.9853 L158.0594,84.7053 L166.9504,84.7053 C169.7514,84.7053 171.9674,85.2303 173.6004,86.2803 C175.2344,87.3303 176.0504,88.8123 176.0504,90.7263 C176.0504,92.7093 175.2284,94.2843 173.5834,95.4513 C171.9384,96.6183 169.6804,97.2013 166.8104,97.2013 L166.3554,97.2013 L169.7514,98.3573 L179.0614,111.6583 L178.9214,111.8333 Z" id="Fill-49" fill="#DB643B"></path>
                <polygon id="Fill-51" fill="#DB643B" points="188.0908 107.9476 188.0908 98.0766 180.2498 87.1906 177.4148 84.9856 177.4148 84.7056 186.5158 84.7056 186.5158 84.9856 184.0658 87.2256 190.6118 96.3266 197.1218 87.2256 194.7058 84.9856 194.7058 84.7056 201.2868 84.7056 201.2868 84.9856 198.6968 87.1906 191.1708 97.6216 191.1708 107.9476 193.4458 110.1536 193.4458 110.4326 185.8158 110.4326 185.8158 110.1536"></polygon>
                <path d="M219.6963,96.0463 C221.5633,96.0463 223.0273,95.6033 224.0893,94.7163 C225.1513,93.8293 225.6813,92.6043 225.6813,91.0413 C225.6813,89.4073 225.1393,88.1353 224.0533,87.2253 C222.9683,86.3153 221.4693,85.8603 219.5553,85.8603 L216.3003,85.8603 L216.3003,96.0463 L219.6963,96.0463 Z M231.8423,111.8333 L227.2213,110.1883 L218.1213,97.2013 L216.3003,97.2013 L216.3003,107.9473 L218.5763,110.1533 L218.5763,110.4333 L210.9803,110.4333 L210.9803,110.1533 L213.2203,107.9473 L213.2203,87.1903 L210.9803,84.9853 L210.9803,84.7053 L219.8713,84.7053 C222.6723,84.7053 224.8883,85.2303 226.5213,86.2803 C228.1553,87.3303 228.9713,88.8123 228.9713,90.7263 C228.9713,92.7093 228.1493,94.2843 226.5043,95.4513 C224.8593,96.6183 222.6013,97.2013 219.7313,97.2013 L219.2763,97.2013 L222.6723,98.3573 L231.9823,111.6583 L231.8423,111.8333 Z" id="Fill-53" fill="#DB643B"></path>
                <path d="M236.1807,106.705 C235.3867,105.387 234.9907,103.876 234.9907,102.172 L234.9907,87.19 L233.0657,84.985 L233.0657,84.705 L240.2057,84.705 L240.2057,84.985 L238.1057,87.19 L238.1057,101.927 C238.1057,104.354 238.7297,106.256 239.9787,107.633 C241.2267,109.01 243.0647,109.698 245.4917,109.698 C247.8717,109.698 249.7267,109.004 251.0567,107.615 C252.3867,106.227 253.0517,104.342 253.0517,101.962 L253.0517,87.19 L250.8117,84.985 L250.8117,84.705 L256.6577,84.705 L256.6577,84.985 L254.3817,87.19 L254.3817,101.717 C254.3817,104.541 253.5657,106.775 251.9317,108.42 C250.2987,110.065 247.9887,110.888 245.0007,110.888 C242.9247,110.888 241.1337,110.52 239.6277,109.786 C238.1227,109.05 236.9737,108.023 236.1807,106.705" id="Fill-55" fill="#DB643B"></path>
                <path d="M262.6055,87.1903 L260.5045,84.9853 L260.5045,84.7053 L268.1355,84.7053 L268.1355,84.9853 L265.6855,87.1903 L265.6855,109.2773 L271.0415,109.2773 C272.1845,109.2773 273.1415,108.9683 273.9115,108.3503 C274.6815,107.7323 275.2525,106.8623 275.6265,105.7423 L275.7665,105.7073 L278.3915,108.1923 C277.6915,109.0093 276.8225,109.5873 275.7845,109.9253 C274.7465,110.2633 273.3395,110.4333 271.5665,110.4333 L260.3655,110.4333 L260.3655,110.1533 L262.6055,107.9473 L262.6055,87.1903 Z" id="Fill-57" fill="#DB643B"></path>
                <path d="M296.4687,109.9257 C295.4297,110.2637 294.0357,110.4327 292.2847,110.4327 L280.7697,110.4327 L280.7697,110.1537 L283.0097,107.9477 L283.0097,87.1907 L280.7697,84.9857 L280.7697,84.7057 L296.4867,84.7057 L297.4307,90.0257 L297.0807,90.0257 L293.3357,85.8607 L286.0897,85.8607 L286.0897,96.3617 L291.3057,96.3617 L293.4407,93.9467 L293.7557,93.9467 L293.7557,99.8967 L293.4407,99.8967 L291.3057,97.4817 L286.0897,97.4817 L286.0897,109.2777 L291.7607,109.2777 C292.9047,109.2777 293.8607,108.9687 294.6307,108.3507 C295.4007,107.7317 295.9727,106.8627 296.3457,105.7427 L296.4867,105.7077 L299.1117,108.1927 C298.3877,109.0097 297.5067,109.5877 296.4687,109.9257" id="Fill-59" fill="#DB643B"></path>
                <g id="Group-63" transform="translate(301.524200, 84.250000)">
                    <mask id="mask-2" fill="white">
                        <use xlink:href="#path-1"></use>
                    </mask>
                    <g id="Clip-62"></g>
                    <path d="M1.925,24.328 L0.245,26.183 L0,26.183 L0,19.182 L1.155,19.182 C1.458,21.189 2.199,22.747 3.378,23.855 C4.557,24.964 6.056,25.518 7.876,25.518 C9.487,25.518 10.805,25.057 11.831,24.135 C12.859,23.214 13.371,21.948 13.371,20.337 C13.371,19.381 13.179,18.54 12.794,17.817 C12.409,17.094 11.761,16.411 10.852,15.769 C9.942,15.128 8.681,14.457 7.071,13.757 C4.761,12.753 3.092,11.668 2.066,10.501 C1.038,9.334 0.526,7.958 0.526,6.371 C0.526,4.994 0.875,3.828 1.575,2.87 C2.276,1.914 3.192,1.196 4.323,0.718 C5.455,0.24 6.674,-5.68434189e-14 7.981,-5.68434189e-14 C9.568,-5.68434189e-14 10.997,0.362 12.269,1.085 C13.541,1.809 14.503,2.812 15.156,4.096 L12.531,6.406 L12.321,6.301 C12.321,4.667 11.913,3.384 11.096,2.451 C10.279,1.517 9.159,1.05 7.736,1.05 C6.405,1.05 5.309,1.43 4.446,2.188 C3.582,2.946 3.151,3.991 3.151,5.321 C3.151,6.557 3.588,7.608 4.463,8.471 C5.338,9.334 6.896,10.245 9.136,11.202 C11.563,12.275 13.314,13.448 14.387,14.719 C15.46,15.991 15.997,17.502 15.997,19.252 C15.997,20.746 15.635,22.053 14.911,23.173 C14.189,24.293 13.22,25.15 12.006,25.745 C10.793,26.341 9.463,26.638 8.016,26.638 C6.803,26.638 5.677,26.44 4.638,26.043 C3.6,25.646 2.696,25.075 1.925,24.328" id="Fill-61" fill="#DB643B" mask="url(#mask-2)"></path>
                </g>
                <path d="M48.0742,142.1068 L43.5232,131.5008 L39.0082,142.1068 L48.0742,142.1068 Z M57.0002,152.1528 L57.0002,152.4328 L49.1592,152.4328 L49.1592,152.1528 L51.4342,149.9478 L48.5642,143.2618 L38.4832,143.2618 L35.6472,149.9478 L37.8872,152.1528 L37.8872,152.4328 L31.7982,152.4328 L31.7982,152.1528 L34.2482,149.9478 L42.8232,129.9258 L41.7732,127.7208 L44.6782,126.3908 L54.8302,149.9478 L57.0002,152.1528 Z" id="Stroke-64" stroke="#FFFFFF" stroke-width="0.5"></path>
                <polygon id="Stroke-66" stroke="#FFFFFF" stroke-width="0.5" points="84.7549 126.7055 84.7549 126.9855 81.9899 129.1905 81.9899 152.4335 80.8349 152.4335 63.4389 131.0105 63.4389 149.9475 66.2029 152.1535 66.2029 152.4335 59.3779 152.4335 59.3779 152.1535 62.1089 149.9475 62.1089 129.4005 60.1119 126.9855 60.1119 126.7055 64.0679 126.7055 78.4549 144.4525 80.6599 147.2525 80.6599 129.1905 77.8949 126.9855 77.8949 126.7055"></polygon>
                <path d="M109.2549,140.4618 C109.2549,136.6108 108.3209,133.5488 106.4539,131.2738 C104.5879,128.9978 101.7759,127.8598 98.0189,127.8598 L94.1679,127.8598 L94.1679,148.7578 C94.7979,149.6678 95.6729,150.3788 96.7929,150.8928 C97.9129,151.4058 99.1969,151.6628 100.6439,151.6628 C103.3739,151.6628 105.4909,150.6998 106.9969,148.7748 C108.5019,146.8498 109.2549,144.0788 109.2549,140.4618 Z M110.9519,133.1638 C112.0609,135.2058 112.6149,137.5798 112.6149,140.2868 C112.6149,142.8308 112.1489,145.0528 111.2149,146.9548 C110.2809,148.8568 108.9509,150.3208 107.2249,151.3478 C105.4969,152.3748 103.4789,152.8878 101.1689,152.8878 C99.5819,152.8878 98.1929,152.6608 97.0029,152.2058 C95.8139,151.7508 94.8449,151.0798 94.0979,150.1928 L94.0979,152.4328 L88.8479,152.4328 L88.8479,152.1528 L91.0879,149.9478 L91.0879,129.1908 L88.8479,126.9848 L88.8479,126.7058 L97.8089,126.7058 C101.0279,126.7058 103.7469,127.2718 105.9639,128.4028 C108.1809,129.5348 109.8439,131.1218 110.9519,133.1638 Z" id="Stroke-68" stroke="#FFFFFF" stroke-width="0.5"></path>
                <path d="M138.2344,142.1068 L133.6834,131.5008 L129.1684,142.1068 L138.2344,142.1068 Z M147.1604,152.1528 L147.1604,152.4328 L139.3194,152.4328 L139.3194,152.1528 L141.5944,149.9478 L138.7244,143.2618 L128.6434,143.2618 L125.8074,149.9478 L128.0474,152.1528 L128.0474,152.4328 L121.9584,152.4328 L121.9584,152.1528 L124.4084,149.9478 L132.9834,129.9258 L131.9334,127.7208 L134.8384,126.3908 L144.9904,149.9478 L147.1604,152.1528 Z" id="Fill-70" fill="#DB643B"></path>
                <path d="M158.2539,138.0463 C160.1209,138.0463 161.5849,137.6033 162.6469,136.7163 C163.7089,135.8293 164.2389,134.6043 164.2389,133.0413 C164.2389,131.4073 163.6969,130.1353 162.6109,129.2253 C161.5259,128.3153 160.0269,127.8603 158.1139,127.8603 L154.8579,127.8603 L154.8579,138.0463 L158.2539,138.0463 Z M170.3999,153.8333 L165.7789,152.1883 L156.6789,139.2013 L154.8579,139.2013 L154.8579,149.9473 L157.1339,152.1533 L157.1339,152.4333 L149.5379,152.4333 L149.5379,152.1533 L151.7779,149.9473 L151.7779,129.1903 L149.5379,126.9853 L149.5379,126.7053 L158.4289,126.7053 C161.2299,126.7053 163.4459,127.2303 165.0789,128.2803 C166.7129,129.3303 167.5289,130.8123 167.5289,132.7263 C167.5289,134.7093 166.7069,136.2843 165.0619,137.4513 C163.4169,138.6183 161.1589,139.2013 158.2889,139.2013 L157.8339,139.2013 L161.2299,140.3573 L170.5399,153.6583 L170.3999,153.8333 Z" id="Fill-72" fill="#DB643B"></path>
                <path d="M175.7187,132.6386 C174.9717,134.3066 174.5987,136.2146 174.5987,138.3616 C174.5987,140.7886 175.0247,142.9416 175.8757,144.8196 C176.7277,146.6986 177.9297,148.1686 179.4817,149.2306 C181.0327,150.2916 182.8357,150.8226 184.8897,150.8226 C186.7337,150.8226 188.4307,150.3906 189.9827,149.5276 C191.5337,148.6646 192.7657,147.4396 193.6757,145.8526 L194.4457,146.2376 C193.4887,148.3846 192.1067,150.0296 190.2977,151.1726 C188.4897,152.3166 186.3597,152.8886 183.9087,152.8886 C181.4587,152.8886 179.2717,152.3226 177.3467,151.1906 C175.4207,150.0586 173.9157,148.4836 172.8307,146.4646 C171.7457,144.4466 171.2027,142.1536 171.2027,139.5866 C171.2027,137.0426 171.7457,134.7566 172.8307,132.7256 C173.9157,130.6956 175.4267,129.1086 177.3637,127.9656 C179.3007,126.8226 181.4937,126.2506 183.9447,126.2506 C186.5117,126.2506 188.7697,126.9036 190.7177,128.2106 C192.6657,129.5176 194.0017,131.2436 194.7257,133.3906 L191.9947,135.5266 L191.7497,135.4216 C191.4927,132.9716 190.6297,131.0106 189.1597,129.5406 C187.6897,128.0706 185.8227,127.3356 183.5597,127.3356 C181.7857,127.3356 180.2227,127.8026 178.8687,128.7356 C177.5157,129.6686 176.4647,130.9706 175.7187,132.6386" id="Fill-74" fill="#DB643B"></path>
                <polygon id="Fill-76" fill="#DB643B" points="222.6553 152.1532 222.6553 152.4332 215.0593 152.4332 215.0593 152.1532 217.3003 149.9472 217.3003 139.4822 202.9133 139.4822 202.9133 149.9472 205.1883 152.1532 205.1883 152.4332 197.5933 152.4332 197.5933 152.1532 199.8333 149.9472 199.8333 129.1902 197.5933 126.9852 197.5933 126.7052 205.1883 126.7052 205.1883 126.9852 202.9133 129.1902 202.9133 138.3612 217.3003 138.3612 217.3003 129.1902 215.1993 126.9852 215.1993 126.7052 222.4803 126.7052 222.4803 126.9852 220.3803 129.1902 220.3803 149.9472"></polygon>
                <path d="M240.4346,142.1068 L235.8836,131.5008 L231.3686,142.1068 L240.4346,142.1068 Z M249.3606,152.1528 L249.3606,152.4328 L241.5196,152.4328 L241.5196,152.1528 L243.7946,149.9478 L240.9246,143.2618 L230.8436,143.2618 L228.0076,149.9478 L230.2476,152.1528 L230.2476,152.4328 L224.1586,152.4328 L224.1586,152.1528 L226.6086,149.9478 L235.1836,129.9258 L234.1336,127.7208 L237.0386,126.3908 L247.1906,149.9478 L249.3606,152.1528 Z" id="Fill-78" fill="#DB643B"></path>
                <polygon id="Fill-80" fill="#DB643B" points="253.9785 149.9476 253.9785 129.1906 252.0875 126.9856 252.0875 126.7056 258.9835 126.7056 258.9835 126.9856 257.0585 129.1906 257.0585 149.9476 259.3335 152.1536 259.3335 152.4326 251.7385 152.4326 251.7385 152.1536"></polygon>
                <path d="M267.4883,132.6386 C266.7413,134.3066 266.3683,136.2146 266.3683,138.3616 C266.3683,140.7886 266.7943,142.9416 267.6453,144.8196 C268.4973,146.6986 269.6993,148.1686 271.2513,149.2306 C272.8023,150.2916 274.6053,150.8226 276.6593,150.8226 C278.5033,150.8226 280.2003,150.3906 281.7523,149.5276 C283.3033,148.6646 284.5353,147.4396 285.4453,145.8526 L286.2153,146.2376 C285.2583,148.3846 283.8763,150.0296 282.0673,151.1726 C280.2593,152.3166 278.1293,152.8886 275.6783,152.8886 C273.2283,152.8886 271.0413,152.3226 269.1163,151.1906 C267.1903,150.0586 265.6853,148.4836 264.6003,146.4646 C263.5153,144.4466 262.9723,142.1536 262.9723,139.5866 C262.9723,137.0426 263.5153,134.7566 264.6003,132.7256 C265.6853,130.6956 267.1963,129.1086 269.1333,127.9656 C271.0703,126.8226 273.2633,126.2506 275.7143,126.2506 C278.2813,126.2506 280.5393,126.9036 282.4873,128.2106 C284.4353,129.5176 285.7713,131.2436 286.4953,133.3906 L283.7643,135.5266 L283.5193,135.4216 C283.2623,132.9716 282.3993,131.0106 280.9293,129.5406 C279.4593,128.0706 277.5923,127.3356 275.3293,127.3356 C273.5553,127.3356 271.9923,127.8026 270.6383,128.7356 C269.2853,129.6686 268.2343,130.9706 267.4883,132.6386" id="Fill-82" fill="#DB643B"></path>
                <path d="M35.0371,187.8871 C35.0371,185.8571 34.4311,184.2471 33.2171,183.0571 C32.0041,181.8661 30.2881,181.2711 28.0711,181.2711 L24.7811,181.2711 L24.7811,190.5481 C25.2011,191.5511 25.8541,192.3211 26.7411,192.8581 C27.6281,193.3941 28.6551,193.6631 29.8221,193.6631 C31.4321,193.6631 32.7041,193.1381 33.6381,192.0881 C34.5701,191.0371 35.0371,189.6371 35.0371,187.8871 L35.0371,187.8871 Z M24.7811,180.1511 L27.5471,180.1511 C29.4131,180.1511 30.8491,179.6911 31.8511,178.7691 C32.8551,177.8471 33.3571,176.5341 33.3571,174.8311 C33.3571,173.2201 32.8731,171.9901 31.9041,171.1381 C30.9361,170.2861 29.5301,169.8601 27.6861,169.8601 L24.7811,169.8601 L24.7811,180.1511 Z M37.3121,183.6871 C38.0831,184.7371 38.4681,186.0201 38.4681,187.5371 C38.4681,188.9141 38.1351,190.1621 37.4701,191.2831 C36.8051,192.4031 35.8541,193.2831 34.6171,193.9261 C33.3811,194.5671 31.9451,194.8881 30.3111,194.8881 C27.6751,194.8881 25.8081,194.0011 24.7111,192.2281 L24.7111,194.4331 L19.4611,194.4331 L19.4611,194.1531 L21.7011,191.9481 L21.7011,171.1901 L19.4611,168.9851 L19.4611,168.7051 L27.8961,168.7051 C30.4641,168.7051 32.5001,169.2191 34.0051,170.2451 C35.5101,171.2721 36.2631,172.6841 36.2631,174.4811 C36.2631,175.5541 35.9881,176.5231 35.4391,177.3861 C34.8911,178.2491 34.1741,178.9491 33.2871,179.4861 C32.4001,180.0231 31.4551,180.3621 30.4521,180.5011 C31.8061,180.5251 33.0951,180.7991 34.3191,181.3241 C35.5451,181.8491 36.5431,182.6371 37.3121,183.6871 L37.3121,183.6871 Z" id="Fill-84" fill="#DB643B"></path>
                <path d="M46.4463,174.8309 C45.6993,176.5809 45.3263,178.5999 45.3263,180.8869 C45.3263,183.3839 45.7523,185.6179 46.6033,187.5899 C47.4553,189.5609 48.6393,191.0959 50.1563,192.1929 C51.6733,193.2889 53.3883,193.8379 55.3013,193.8379 C57.0513,193.8379 58.6043,193.3599 59.9583,192.4029 C61.3103,191.4459 62.3673,190.0929 63.1253,188.3419 C63.8833,186.5919 64.2623,184.5619 64.2623,182.2519 C64.2623,179.7779 63.8373,177.5559 62.9853,175.5829 C62.1343,173.6119 60.9493,172.0779 59.4323,170.9799 C57.9163,169.8839 56.2003,169.3349 54.2873,169.3349 C52.5373,169.3349 50.9793,169.8139 49.6143,170.7699 C48.2493,171.7269 47.1923,173.0809 46.4463,174.8309 M43.5763,188.5179 C42.4793,186.5109 41.9303,184.2239 41.9303,181.6569 C41.9303,179.0899 42.4733,176.7859 43.5583,174.7439 C44.6433,172.7019 46.1603,171.1089 48.1083,169.9649 C50.0573,168.8219 52.2683,168.2499 54.7423,168.2499 C57.2393,168.2499 59.4673,168.8099 61.4273,169.9309 C63.3873,171.0509 64.9163,172.6139 66.0123,174.6209 C67.1103,176.6279 67.6583,178.9149 67.6583,181.4819 C67.6583,184.0489 67.1163,186.3529 66.0303,188.3949 C64.9453,190.4369 63.4283,192.0289 61.4803,193.1729 C59.5313,194.3159 57.3203,194.8879 54.8463,194.8879 C52.3493,194.8879 50.1213,194.3279 48.1613,193.2079 C46.2013,192.0879 44.6733,190.5239 43.5763,188.5179" id="Fill-86" fill="#DB643B"></path>
                <path d="M73.9912,190.705 C73.1972,189.387 72.8012,187.876 72.8012,186.172 L72.8012,171.19 L70.8762,168.985 L70.8762,168.705 L78.0162,168.705 L78.0162,168.985 L75.9162,171.19 L75.9162,185.927 C75.9162,188.354 76.5402,190.256 77.7892,191.633 C79.0372,193.01 80.8752,193.698 83.3022,193.698 C85.6822,193.698 87.5372,193.004 88.8672,191.615 C90.1972,190.227 90.8622,188.342 90.8622,185.962 L90.8622,171.19 L88.6222,168.985 L88.6222,168.705 L94.4682,168.705 L94.4682,168.985 L92.1922,171.19 L92.1922,185.717 C92.1922,188.541 91.3762,190.775 89.7422,192.42 C88.1092,194.065 85.7992,194.888 82.8112,194.888 C80.7352,194.888 78.9442,194.52 77.4382,193.786 C75.9332,193.05 74.7842,192.023 73.9912,190.705" id="Fill-88" fill="#DB643B"></path>
                <polygon id="Fill-90" fill="#DB643B" points="123.5537 168.7055 123.5537 168.9855 120.7877 171.1905 120.7877 194.4335 119.6327 194.4335 102.2367 173.0105 102.2367 191.9475 105.0007 194.1535 105.0007 194.4335 98.1757 194.4335 98.1757 194.1535 100.9067 191.9475 100.9067 171.4005 98.9107 168.9855 98.9107 168.7055 102.8667 168.7055 117.2527 186.4525 119.4577 189.2525 119.4577 171.1905 116.6927 168.9855 116.6927 168.7055"></polygon>
                <path d="M148.0527,182.4618 C148.0527,178.6108 147.1187,175.5488 145.2517,173.2738 C143.3857,170.9978 140.5737,169.8598 136.8167,169.8598 L132.9657,169.8598 L132.9657,190.7578 C133.5957,191.6678 134.4707,192.3788 135.5907,192.8928 C136.7107,193.4058 137.9947,193.6628 139.4417,193.6628 C142.1717,193.6628 144.2887,192.6998 145.7947,190.7748 C147.2997,188.8498 148.0527,186.0788 148.0527,182.4618 M149.7497,175.1638 C150.8587,177.2058 151.4127,179.5798 151.4127,182.2868 C151.4127,184.8308 150.9467,187.0528 150.0127,188.9548 C149.0787,190.8568 147.7487,192.3208 146.0227,193.3478 C144.2947,194.3748 142.2767,194.8878 139.9667,194.8878 C138.3797,194.8878 136.9907,194.6608 135.8007,194.2058 C134.6117,193.7508 133.6427,193.0798 132.8957,192.1928 L132.8957,194.4328 L127.6457,194.4328 L127.6457,194.1528 L129.8857,191.9478 L129.8857,171.1908 L127.6457,168.9848 L127.6457,168.7058 L136.6067,168.7058 C139.8257,168.7058 142.5447,169.2718 144.7617,170.4028 C146.9787,171.5348 148.6417,173.1218 149.7497,175.1638" id="Fill-92" fill="#DB643B"></path>
                <path d="M168.1416,184.1068 L163.5906,173.5008 L159.0756,184.1068 L168.1416,184.1068 Z M177.0676,194.1528 L177.0676,194.4328 L169.2266,194.4328 L169.2266,194.1528 L171.5016,191.9478 L168.6316,185.2618 L158.5506,185.2618 L155.7146,191.9478 L157.9546,194.1528 L157.9546,194.4328 L151.8656,194.4328 L151.8656,194.1528 L154.3156,191.9478 L162.8906,171.9258 L161.8406,169.7208 L164.7456,168.3908 L174.8976,191.9478 L177.0676,194.1528 Z" id="Fill-94" fill="#DB643B"></path>
                <path d="M188.1611,180.0463 C190.0281,180.0463 191.4921,179.6033 192.5541,178.7163 C193.6161,177.8293 194.1461,176.6043 194.1461,175.0413 C194.1461,173.4073 193.6041,172.1353 192.5181,171.2253 C191.4331,170.3153 189.9341,169.8603 188.0201,169.8603 L184.7651,169.8603 L184.7651,180.0463 L188.1611,180.0463 Z M200.3071,195.8333 L195.6861,194.1883 L186.5861,181.2013 L184.7651,181.2013 L184.7651,191.9473 L187.0411,194.1533 L187.0411,194.4333 L179.4451,194.4333 L179.4451,194.1533 L181.6851,191.9473 L181.6851,171.1903 L179.4451,168.9853 L179.4451,168.7053 L188.3361,168.7053 C191.1371,168.7053 193.3531,169.2303 194.9861,170.2803 C196.6201,171.3303 197.4361,172.8123 197.4361,174.7263 C197.4361,176.7093 196.6141,178.2843 194.9691,179.4513 C193.3241,180.6183 191.0661,181.2013 188.1961,181.2013 L187.7411,181.2013 L191.1371,182.3573 L200.4471,195.6583 L200.3071,195.8333 Z" id="Fill-96" fill="#DB643B"></path>
                <polygon id="Fill-98" fill="#DB643B" points="205.0654 191.9476 205.0654 171.1906 203.1744 168.9856 203.1744 168.7056 210.0704 168.7056 210.0704 168.9856 208.1454 171.1906 208.1454 191.9476 210.4204 194.1536 210.4204 194.4326 202.8254 194.4326 202.8254 194.1536"></polygon>
                <path d="M230.249,193.9257 C229.21,194.2637 227.816,194.4327 226.065,194.4327 L214.55,194.4327 L214.55,194.1537 L216.79,191.9477 L216.79,171.1907 L214.55,168.9857 L214.55,168.7057 L230.267,168.7057 L231.211,174.0257 L230.861,174.0257 L227.116,169.8607 L219.87,169.8607 L219.87,180.3617 L225.086,180.3617 L227.221,177.9467 L227.536,177.9467 L227.536,183.8967 L227.221,183.8967 L225.086,181.4817 L219.87,181.4817 L219.87,193.2777 L225.541,193.2777 C226.685,193.2777 227.641,192.9687 228.411,192.3507 C229.181,191.7317 229.753,190.8627 230.126,189.7427 L230.267,189.7077 L232.892,192.1927 C232.168,193.0097 231.287,193.5877 230.249,193.9257" id="Fill-100" fill="#DB643B"></path>
                <path d="M237.2295,192.578 L235.5495,194.433 L235.3045,194.433 L235.3045,187.433 L236.4595,187.433 C236.7625,189.439 237.5035,190.997 238.6825,192.105 C239.8615,193.214 241.3605,193.768 243.1805,193.768 C244.7915,193.768 246.1095,193.307 247.1355,192.385 C248.1635,191.464 248.6755,190.198 248.6755,188.587 C248.6755,187.631 248.4835,186.79 248.0985,186.067 C247.7135,185.344 247.0655,184.661 246.1565,184.019 C245.2465,183.378 243.9855,182.707 242.3755,182.007 C240.0655,181.003 238.3965,179.918 237.3705,178.751 C236.3425,177.584 235.8305,176.208 235.8305,174.621 C235.8305,173.244 236.1795,172.078 236.8795,171.12 C237.5805,170.164 238.4965,169.446 239.6275,168.968 C240.7595,168.49 241.9785,168.25 243.2855,168.25 C244.8725,168.25 246.3015,168.612 247.5735,169.335 C248.8455,170.059 249.8075,171.062 250.4605,172.346 L247.8355,174.656 L247.6255,174.551 C247.6255,172.917 247.2175,171.634 246.4005,170.701 C245.5835,169.767 244.4635,169.3 243.0405,169.3 C241.7095,169.3 240.6135,169.68 239.7505,170.438 C238.8865,171.196 238.4555,172.241 238.4555,173.571 C238.4555,174.808 238.8925,175.858 239.7675,176.721 C240.6425,177.584 242.2005,178.495 244.4405,179.452 C246.8675,180.525 248.6185,181.698 249.6915,182.969 C250.7645,184.241 251.3015,185.752 251.3015,187.502 C251.3015,188.996 250.9395,190.303 250.2155,191.423 C249.4935,192.543 248.5245,193.4 247.3105,193.995 C246.0975,194.591 244.7675,194.888 243.3205,194.888 C242.1075,194.888 240.9815,194.69 239.9425,194.293 C238.9045,193.896 238.0005,193.325 237.2295,192.578" id="Fill-102" fill="#DB643B"></path>
                <polygon id="Stroke-104" stroke="#FFFFFF" stroke-width="0.5" points="264.4951 191.9476 264.4951 171.1906 262.6041 168.9856 262.6041 168.7056 269.5001 168.7056 269.5001 168.9856 267.5751 171.1906 267.5751 191.9476 269.8501 194.1536 269.8501 194.4326 262.2551 194.4326 262.2551 194.1536"></polygon>
                <polygon id="Stroke-106" stroke="#FFFFFF" stroke-width="0.5" points="299.3564 168.7055 299.3564 168.9855 296.5914 171.1905 296.5914 194.4335 295.4364 194.4335 278.0404 173.0105 278.0404 191.9475 280.8044 194.1535 280.8044 194.4335 273.9794 194.4335 273.9794 194.1535 276.7104 191.9475 276.7104 171.4005 274.7134 168.9855 274.7134 168.7055 278.6694 168.7055 293.0564 186.4525 295.2614 189.2525 295.2614 171.1905 292.4964 168.9855 292.4964 168.7055"></polygon>
                <polygon id="Stroke-108" stroke="#FFFFFF" stroke-width="0.5" points="47.4434 233.8778 47.4434 211.8598 41.7724 211.8598 38.0274 216.3758 37.6774 216.3758 38.6224 210.7058 59.3444 210.7058 60.2554 216.3758 59.9044 216.3758 56.1594 211.8598 50.5234 211.8598 50.5234 233.8778 52.6944 236.1528 52.6944 236.4328 45.2384 236.4328 45.2384 236.1528"></polygon>
                <polygon id="Stroke-110" stroke="#FFFFFF" stroke-width="0.5" points="87.6953 236.1532 87.6953 236.4332 80.0993 236.4332 80.0993 236.1532 82.3403 233.9472 82.3403 223.4822 67.9533 223.4822 67.9533 233.9472 70.2283 236.1532 70.2283 236.4332 62.6333 236.4332 62.6333 236.1532 64.8733 233.9472 64.8733 213.1902 62.6333 210.9852 62.6333 210.7052 70.2283 210.7052 70.2283 210.9852 67.9533 213.1902 67.9533 222.3612 82.3403 222.3612 82.3403 213.1902 80.2393 210.9852 80.2393 210.7052 87.5203 210.7052 87.5203 210.9852 85.4203 213.1902 85.4203 233.9472"></polygon>
                <path d="M107.5225,235.9257 C106.4835,236.2637 105.0895,236.4327 103.3385,236.4327 L91.8235,236.4327 L91.8235,236.1537 L94.0635,233.9477 L94.0635,213.1907 L91.8235,210.9857 L91.8235,210.7057 L107.5405,210.7057 L108.4845,216.0257 L108.1345,216.0257 L104.3895,211.8607 L97.1435,211.8607 L97.1435,222.3617 L102.3595,222.3617 L104.4945,219.9467 L104.8095,219.9467 L104.8095,225.8967 L104.4945,225.8967 L102.3595,223.4817 L97.1435,223.4817 L97.1435,235.2777 L102.8145,235.2777 C103.9585,235.2777 104.9145,234.9687 105.6845,234.3507 C106.4545,233.7317 107.0265,232.8627 107.3995,231.7427 L107.5405,231.7077 L110.1655,234.1927 C109.4415,235.0097 108.5605,235.5877 107.5225,235.9257 Z" id="Stroke-112" stroke="#FFFFFF" stroke-width="0.5"></path>
                <polygon id="Fill-114" fill="#B67CEE" points="145.7607 210.7054 145.7607 210.9854 142.9957 213.1904 142.9957 236.4334 141.8407 236.4334 124.4447 215.0104 124.4447 233.9474 127.2087 236.1534 127.2087 236.4334 120.3837 236.4334 120.3837 236.1534 123.1147 233.9474 123.1147 213.4004 121.1177 210.9854 121.1177 210.7054 125.0737 210.7054 139.4607 228.4524 141.6657 231.2524 141.6657 213.1904 138.9007 210.9854 138.9007 210.7054"></polygon>
                <path d="M162.8047,226.1068 L158.2537,215.5008 L153.7387,226.1068 L162.8047,226.1068 Z M171.7307,236.1528 L171.7307,236.4328 L163.8897,236.4328 L163.8897,236.1528 L166.1647,233.9478 L163.2947,227.2618 L153.2137,227.2618 L150.3777,233.9478 L152.6177,236.1528 L152.6177,236.4328 L146.5287,236.4328 L146.5287,236.1528 L148.9787,233.9478 L157.5537,213.9258 L156.5037,211.7208 L159.4087,210.3908 L169.5607,233.9478 L171.7307,236.1528 Z" id="Fill-116" fill="#B67CEE"></path>
                <polygon id="Fill-118" fill="#B67CEE" points="204.0361 236.1532 204.0361 236.4332 196.7561 236.4332 196.7561 236.1532 198.8901 233.9472 195.7401 215.6412 188.3901 236.4332 187.2341 236.4332 179.7781 215.6062 176.5941 233.9472 179.3231 236.1532 179.3231 236.4332 172.6731 236.4332 172.6731 236.1532 175.3681 233.9472 178.9381 213.2602 178.2731 211.4402 181.1091 210.3552 187.8991 229.2922 188.5991 232.0222 195.2851 213.1552 194.8301 210.8802 197.8061 210.3552 201.9711 233.9472"></polygon>
                <path d="M222.4277,235.9257 C221.3887,236.2637 219.9947,236.4327 218.2437,236.4327 L206.7287,236.4327 L206.7287,236.1537 L208.9687,233.9477 L208.9687,213.1907 L206.7287,210.9857 L206.7287,210.7057 L222.4457,210.7057 L223.3897,216.0257 L223.0397,216.0257 L219.2947,211.8607 L212.0487,211.8607 L212.0487,222.3617 L217.2647,222.3617 L219.3997,219.9467 L219.7147,219.9467 L219.7147,225.8967 L219.3997,225.8967 L217.2647,223.4817 L212.0487,223.4817 L212.0487,235.2777 L217.7197,235.2777 C218.8637,235.2777 219.8197,234.9687 220.5897,234.3507 C221.3597,233.7317 221.9317,232.8627 222.3047,231.7427 L222.4457,231.7077 L225.0707,234.1927 C224.3467,235.0097 223.4657,235.5877 222.4277,235.9257" id="Fill-120" fill="#B67CEE"></path>
                <path d="M239.3145,216.8309 C238.5675,218.5809 238.1945,220.5999 238.1945,222.8869 C238.1945,225.3839 238.6205,227.6179 239.4715,229.5899 C240.3235,231.5609 241.5075,233.0959 243.0245,234.1929 C244.5415,235.2889 246.2565,235.8379 248.1695,235.8379 C249.9195,235.8379 251.4725,235.3599 252.8255,234.4029 C254.1785,233.4459 255.2355,232.0929 255.9935,230.3419 C256.7515,228.5919 257.1305,226.5619 257.1305,224.2519 C257.1305,221.7779 256.7055,219.5559 255.8535,217.5829 C255.0025,215.6119 253.8175,214.0779 252.3005,212.9799 C250.7845,211.8839 249.0685,211.3349 247.1555,211.3349 C245.4055,211.3349 243.8475,211.8139 242.4825,212.7699 C241.1175,213.7269 240.0605,215.0809 239.3145,216.8309 M236.4445,230.5179 C235.3475,228.5109 234.7985,226.2239 234.7985,223.6569 C234.7985,221.0899 235.3415,218.7859 236.4265,216.7439 C237.5115,214.7019 239.0285,213.1089 240.9765,211.9649 C242.9255,210.8219 245.1365,210.2499 247.6105,210.2499 C250.1075,210.2499 252.3355,210.8099 254.2955,211.9309 C256.2555,213.0509 257.7845,214.6139 258.8805,216.6209 C259.9785,218.6279 260.5265,220.9149 260.5265,223.4819 C260.5265,226.0489 259.9845,228.3529 258.8985,230.3949 C257.8135,232.4369 256.2965,234.0289 254.3485,235.1729 C252.3995,236.3159 250.1885,236.8879 247.7145,236.8879 C245.2175,236.8879 242.9895,236.3279 241.0295,235.2079 C239.0695,234.0879 237.5415,232.5239 236.4445,230.5179" id="Fill-122" fill="#B67CEE"></path>
                <polygon id="Fill-124" fill="#B67CEE" points="269.4844 211.8602 269.4844 222.3612 274.7004 222.3612 276.8704 219.8412 277.1854 219.8412 277.1854 226.0022 276.8704 226.0022 274.7004 223.4822 269.4844 223.4822 269.4844 233.9132 272.2144 236.1532 272.2144 236.4332 264.1644 236.4332 264.1644 236.1532 266.4044 233.9472 266.4044 213.1902 264.1644 210.9852 264.1644 210.7052 279.8804 210.7052 280.8254 216.0962 280.4754 216.0962 276.7304 211.8602"></polygon>
                <path d="M53.5684,268.1068 L49.0174,257.5008 L44.5024,268.1068 L53.5684,268.1068 Z M62.4944,278.1528 L62.4944,278.4328 L54.6534,278.4328 L54.6534,278.1528 L56.9284,275.9478 L54.0584,269.2618 L43.9774,269.2618 L41.1414,275.9478 L43.3814,278.1528 L43.3814,278.4328 L37.2924,278.4328 L37.2924,278.1528 L39.7424,275.9478 L48.3174,255.9258 L47.2674,253.7208 L50.1724,252.3908 L60.3244,275.9478 L62.4944,278.1528 Z" id="Fill-126" fill="#B67CEE"></path>
                <path d="M73.5879,264.0463 C75.4549,264.0463 76.9189,263.6033 77.9809,262.7163 C79.0429,261.8293 79.5729,260.6043 79.5729,259.0413 C79.5729,257.4073 79.0309,256.1353 77.9449,255.2253 C76.8599,254.3153 75.3609,253.8603 73.4479,253.8603 L70.1919,253.8603 L70.1919,264.0463 L73.5879,264.0463 Z M85.7339,279.8333 L81.1129,278.1883 L72.0129,265.2013 L70.1919,265.2013 L70.1919,275.9473 L72.4679,278.1533 L72.4679,278.4333 L64.8719,278.4333 L64.8719,278.1533 L67.1119,275.9473 L67.1119,255.1903 L64.8719,252.9853 L64.8719,252.7053 L73.7629,252.7053 C76.5639,252.7053 78.7799,253.2303 80.4129,254.2803 C82.0469,255.3303 82.8629,256.8123 82.8629,258.7263 C82.8629,260.7093 82.0409,262.2843 80.3959,263.4513 C78.7509,264.6183 76.4929,265.2013 73.6229,265.2013 L73.1679,265.2013 L76.5639,266.3573 L85.8739,279.6583 L85.7339,279.8333 Z" id="Fill-128" fill="#B67CEE"></path>
                <polygon id="Fill-130" fill="#B67CEE" points="94.6924 275.8778 94.6924 253.8598 89.0214 253.8598 85.2764 258.3758 84.9264 258.3758 85.8714 252.7058 106.5934 252.7058 107.5044 258.3758 107.1534 258.3758 103.4084 253.8598 97.7724 253.8598 97.7724 275.8778 99.9434 278.1528 99.9434 278.4328 92.4874 278.4328 92.4874 278.1528"></polygon>
                <polygon id="Fill-132" fill="#B67CEE" points="112.1221 275.9476 112.1221 255.1906 110.2311 252.9856 110.2311 252.7056 117.1271 252.7056 117.1271 252.9856 115.2021 255.1906 115.2021 275.9476 117.4771 278.1536 117.4771 278.4326 109.8821 278.4326 109.8821 278.1536"></polygon>
                <path d="M123.041,276.578 L121.361,278.433 L121.116,278.433 L121.116,271.432 L122.271,271.432 C122.574,273.439 123.315,274.997 124.494,276.105 C125.673,277.214 127.172,277.768 128.992,277.768 C130.603,277.768 131.921,277.307 132.947,276.385 C133.975,275.464 134.487,274.198 134.487,272.587 C134.487,271.631 134.295,270.79 133.91,270.067 C133.525,269.344 132.877,268.661 131.968,268.019 C131.058,267.378 129.797,266.707 128.187,266.007 C125.877,265.003 124.208,263.918 123.182,262.751 C122.154,261.584 121.642,260.208 121.642,258.621 C121.642,257.244 121.991,256.078 122.691,255.12 C123.392,254.164 124.308,253.446 125.439,252.968 C126.571,252.49 127.79,252.25 129.097,252.25 C130.684,252.25 132.113,252.612 133.385,253.335 C134.657,254.059 135.619,255.062 136.272,256.346 L133.647,258.656 L133.437,258.551 C133.437,256.917 133.029,255.634 132.212,254.701 C131.395,253.767 130.275,253.3 128.852,253.3 C127.521,253.3 126.425,253.68 125.562,254.438 C124.698,255.196 124.267,256.241 124.267,257.571 C124.267,258.807 124.704,259.858 125.579,260.721 C126.454,261.584 128.012,262.495 130.252,263.452 C132.679,264.525 134.43,265.698 135.503,266.969 C136.576,268.241 137.113,269.752 137.113,271.502 C137.113,272.996 136.751,274.303 136.027,275.423 C135.305,276.543 134.336,277.4 133.122,277.995 C131.909,278.591 130.579,278.888 129.132,278.888 C127.919,278.888 126.793,278.69 125.754,278.293 C124.716,277.896 123.812,277.325 123.041,276.578" id="Fill-134" fill="#B67CEE"></path>
                <polygon id="Fill-136" fill="#B67CEE" points="147.8916 275.8778 147.8916 253.8598 142.2206 253.8598 138.4756 258.3758 138.1256 258.3758 139.0706 252.7058 159.7926 252.7058 160.7036 258.3758 160.3526 258.3758 156.6076 253.8598 150.9716 253.8598 150.9716 275.8778 153.1426 278.1528 153.1426 278.4328 145.6866 278.4328 145.6866 278.1528"></polygon>
                <path d="M171.7969,264.0463 C173.6639,264.0463 175.1279,263.6033 176.1899,262.7163 C177.2519,261.8293 177.7819,260.6043 177.7819,259.0413 C177.7819,257.4073 177.2399,256.1353 176.1539,255.2253 C175.0689,254.3153 173.5699,253.8603 171.6569,253.8603 L168.4009,253.8603 L168.4009,264.0463 L171.7969,264.0463 Z M183.9429,279.8333 L179.3219,278.1883 L170.2219,265.2013 L168.4009,265.2013 L168.4009,275.9473 L170.6769,278.1533 L170.6769,278.4333 L163.0809,278.4333 L163.0809,278.1533 L165.3209,275.9473 L165.3209,255.1903 L163.0809,252.9853 L163.0809,252.7053 L171.9719,252.7053 C174.7729,252.7053 176.9889,253.2303 178.6219,254.2803 C180.2559,255.3303 181.0719,256.8123 181.0719,258.7263 C181.0719,260.7093 180.2499,262.2843 178.6049,263.4513 C176.9599,264.6183 174.7019,265.2013 171.8319,265.2013 L171.3769,265.2013 L174.7729,266.3573 L184.0829,279.6583 L183.9429,279.8333 Z" id="Fill-138" fill="#B67CEE"></path>
                <polygon id="Fill-140" fill="#B67CEE" points="193.1123 275.9476 193.1123 266.0766 185.2713 255.1906 182.4363 252.9856 182.4363 252.7056 191.5373 252.7056 191.5373 252.9856 189.0873 255.2256 195.6333 264.3266 202.1433 255.2256 199.7273 252.9856 199.7273 252.7056 206.3083 252.7056 206.3083 252.9856 203.7183 255.1906 196.1923 265.6216 196.1923 275.9476 198.4673 278.1536 198.4673 278.4326 190.8373 278.4326 190.8373 278.1536"></polygon>
                <mask id="mask-4" fill="white">
                    <use xlink:href="#path-3"></use>
                </mask>
                <g id="Clip-143"></g>
                <polygon id="Stroke-142" stroke="#FFFFFF" stroke-width="0.5" mask="url(#mask-4)" points="206.096 269.437 229.899 269.437 229.899 268.177 206.096 268.177"></polygon>
                <polygon id="Stroke-144" stroke="#FFFFFF" stroke-width="0.5" mask="url(#mask-4)" points="239.8027 275.8778 239.8027 253.8598 234.1317 253.8598 230.3867 258.3758 230.0367 258.3758 230.9817 252.7058 251.7037 252.7058 252.6147 258.3758 252.2637 258.3758 248.5187 253.8598 242.8827 253.8598 242.8827 275.8778 245.0537 278.1528 245.0537 278.4328 237.5977 278.4328 237.5977 278.1528"></polygon>
                <path d="M259.0176,258.8309 C258.2706,260.5809 257.8976,262.5999 257.8976,264.8869 C257.8976,267.3839 258.3236,269.6179 259.1746,271.5899 C260.0266,273.5609 261.2106,275.0959 262.7276,276.1929 C264.2446,277.2889 265.9596,277.8379 267.8726,277.8379 C269.6226,277.8379 271.1756,277.3599 272.5286,276.4029 C273.8816,275.4459 274.9386,274.0929 275.6966,272.3419 C276.4546,270.5919 276.8336,268.5619 276.8336,266.2519 C276.8336,263.7779 276.4086,261.5559 275.5566,259.5829 C274.7056,257.6119 273.5206,256.0779 272.0036,254.9799 C270.4876,253.8839 268.7716,253.3349 266.8586,253.3349 C265.1086,253.3349 263.5506,253.8139 262.1856,254.7699 C260.8206,255.7269 259.7636,257.0809 259.0176,258.8309 Z M256.1476,272.5179 C255.0506,270.5109 254.5016,268.2239 254.5016,265.6569 C254.5016,263.0899 255.0446,260.7859 256.1296,258.7439 C257.2146,256.7019 258.7316,255.1089 260.6796,253.9649 C262.6286,252.8219 264.8396,252.2499 267.3136,252.2499 C269.8106,252.2499 272.0386,252.8099 273.9986,253.9309 C275.9586,255.0509 277.4876,256.6139 278.5836,258.6209 C279.6816,260.6279 280.2296,262.9149 280.2296,265.4819 C280.2296,268.0489 279.6876,270.3529 278.6016,272.3949 C277.5166,274.4369 275.9996,276.0289 274.0516,277.1729 C272.1026,278.3159 269.8916,278.8879 267.4176,278.8879 C264.9206,278.8879 262.6926,278.3279 260.7326,277.2079 C258.7726,276.0879 257.2446,274.5239 256.1476,272.5179 Z" id="Stroke-145" stroke="#FFFFFF" stroke-width="0.5" mask="url(#mask-4)"></path>
                <path d="M49.7725,308.4618 C49.7725,304.6108 48.8385,301.5488 46.9715,299.2738 C45.1055,296.9978 42.2935,295.8598 38.5365,295.8598 L34.6855,295.8598 L34.6855,316.7578 C35.3155,317.6678 36.1905,318.3788 37.3105,318.8928 C38.4305,319.4058 39.7145,319.6628 41.1615,319.6628 C43.8915,319.6628 46.0085,318.6998 47.5145,316.7748 C49.0195,314.8498 49.7725,312.0788 49.7725,308.4618 M51.4695,301.1628 C52.5785,303.2048 53.1325,305.5798 53.1325,308.2858 C53.1325,310.8298 52.6665,313.0528 51.7325,314.9548 C50.7985,316.8568 49.4685,318.3208 47.7425,319.3478 C46.0145,320.3748 43.9965,320.8878 41.6865,320.8878 C40.0995,320.8878 38.7105,320.6598 37.5205,320.2048 C36.3315,319.7498 35.3625,319.0788 34.6155,318.1918 L34.6155,320.4328 L29.3655,320.4328 L29.3655,320.1528 L31.6055,317.9468 L31.6055,297.1908 L29.3655,294.9848 L29.3655,294.7048 L38.3265,294.7048 C41.5455,294.7048 44.2645,295.2718 46.4815,296.4028 C48.6985,297.5338 50.3615,299.1208 51.4695,301.1628" id="Fill-146" fill="#B67CEE" mask="url(#mask-4)"></path>
                <path d="M72.6094,319.9257 C71.5704,320.2637 70.1764,320.4327 68.4254,320.4327 L56.9104,320.4327 L56.9104,320.1537 L59.1504,317.9467 L59.1504,297.1907 L56.9104,294.9857 L56.9104,294.7047 L72.6274,294.7047 L73.5714,300.0257 L73.2214,300.0257 L69.4764,295.8607 L62.2304,295.8607 L62.2304,306.3617 L67.4464,306.3617 L69.5814,303.9467 L69.8964,303.9467 L69.8964,309.8967 L69.5814,309.8967 L67.4464,307.4817 L62.2304,307.4817 L62.2304,319.2777 L67.9014,319.2777 C69.0454,319.2777 70.0014,318.9687 70.7714,318.3507 C71.5414,317.7317 72.1134,316.8627 72.4864,315.7417 L72.6274,315.7067 L75.2524,318.1927 C74.5284,319.0097 73.6474,319.5867 72.6094,319.9257" id="Fill-147" fill="#B67CEE" mask="url(#mask-4)"></path>
                <polygon id="Fill-148" fill="#B67CEE" mask="url(#mask-4)" points="108.083 320.1532 108.083 320.4322 100.803 320.4322 100.803 320.1532 102.937 317.9472 99.787 299.6402 92.437 320.4322 91.281 320.4322 83.825 299.6052 80.641 317.9472 83.37 320.1532 83.37 320.4322 76.72 320.4322 76.72 320.1532 79.415 317.9472 82.985 297.2602 82.32 295.4402 85.156 294.3552 91.946 313.2922 92.646 316.0222 99.332 297.1552 98.877 294.8802 101.853 294.3552 106.018 317.9472"></polygon>
                <path d="M114.2754,300.8309 C113.5284,302.5809 113.1554,304.5999 113.1554,306.8869 C113.1554,309.3839 113.5814,311.6179 114.4324,313.5899 C115.2844,315.5609 116.4684,317.0959 117.9854,318.1919 C119.5024,319.2889 121.2174,319.8379 123.1304,319.8379 C124.8804,319.8379 126.4334,319.3589 127.7864,318.4019 C129.1394,317.4459 130.1964,316.0929 130.9544,314.3419 C131.7124,312.5919 132.0914,310.5609 132.0914,308.2519 C132.0914,305.7779 131.6664,303.5559 130.8144,301.5829 C129.9634,299.6109 128.7784,298.0769 127.2614,296.9799 C125.7454,295.8839 124.0294,295.3349 122.1164,295.3349 C120.3664,295.3349 118.8084,295.8129 117.4434,296.7699 C116.0784,297.7269 115.0214,299.0809 114.2754,300.8309 M111.4054,314.5179 C110.3084,312.5109 109.7594,310.2239 109.7594,307.6559 C109.7594,305.0899 110.3024,302.7849 111.3874,300.7429 C112.4724,298.7009 113.9894,297.1079 115.9374,295.9649 C117.8864,294.8219 120.0974,294.2499 122.5714,294.2499 C125.0684,294.2499 127.2964,294.8099 129.2564,295.9309 C131.2164,297.0509 132.7454,298.6139 133.8414,300.6209 C134.9394,302.6279 135.4874,304.9149 135.4874,307.4809 C135.4874,310.0489 134.9454,312.3519 133.8594,314.3939 C132.7744,316.4359 131.2574,318.0289 129.3094,319.1729 C127.3604,320.3159 125.1494,320.8879 122.6754,320.8879 C120.1784,320.8879 117.9504,320.3279 115.9904,319.2079 C114.0304,318.0879 112.5024,316.5239 111.4054,314.5179" id="Fill-149" fill="#B67CEE" mask="url(#mask-4)"></path>
                <path d="M141.3652,297.1903 L139.2642,294.9853 L139.2642,294.7053 L146.8952,294.7053 L146.8952,294.9853 L144.4452,297.1903 L144.4452,319.2773 L149.8012,319.2773 C150.9442,319.2773 151.9012,318.9683 152.6712,318.3503 C153.4412,317.7313 154.0122,316.8623 154.3862,315.7423 L154.5262,315.7073 L157.1512,318.1923 C156.4512,319.0093 155.5822,319.5863 154.5442,319.9253 C153.5062,320.2633 152.0992,320.4323 150.3262,320.4323 L139.1252,320.4323 L139.1252,320.1533 L141.3652,317.9473 L141.3652,297.1903 Z" id="Fill-150" fill="#B67CEE" mask="url(#mask-4)"></path>
                <polygon id="Fill-151" fill="#B67CEE" mask="url(#mask-4)" points="161.7695 317.9471 161.7695 297.1901 159.8785 294.9851 159.8785 294.7051 166.7745 294.7051 166.7745 294.9851 164.8495 297.1901 164.8495 317.9471 167.1245 320.1531 167.1245 320.4321 159.5295 320.4321 159.5295 320.1531"></polygon>
                <path d="M172.6885,318.578 L171.0085,320.432 L170.7635,320.432 L170.7635,313.432 L171.9185,313.432 C172.2215,315.439 172.9625,316.997 174.1415,318.105 C175.3205,319.214 176.8195,319.767 178.6395,319.767 C180.2505,319.767 181.5685,319.307 182.5945,318.385 C183.6225,317.464 184.1345,316.197 184.1345,314.587 C184.1345,313.631 183.9425,312.79 183.5575,312.067 C183.1725,311.344 182.5245,310.661 181.6155,310.019 C180.7055,309.378 179.4445,308.707 177.8345,308.007 C175.5245,307.003 173.8555,305.918 172.8295,304.751 C171.8015,303.584 171.2895,302.208 171.2895,300.621 C171.2895,299.244 171.6385,298.077 172.3385,297.12 C173.0395,296.164 173.9555,295.446 175.0865,294.968 C176.2185,294.489 177.4375,294.25 178.7445,294.25 C180.3315,294.25 181.7605,294.612 183.0325,295.335 C184.3045,296.058 185.2665,297.062 185.9195,298.346 L183.2945,300.656 L183.0845,300.551 C183.0845,298.917 182.6765,297.634 181.8595,296.7 C181.0425,295.766 179.9225,295.3 178.4995,295.3 C177.1685,295.3 176.0725,295.68 175.2095,296.437 C174.3455,297.196 173.9145,298.24 173.9145,299.57 C173.9145,300.807 174.3515,301.857 175.2265,302.721 C176.1015,303.584 177.6595,304.494 179.8995,305.451 C182.3265,306.524 184.0775,307.697 185.1505,308.969 C186.2235,310.241 186.7605,311.752 186.7605,313.502 C186.7605,314.996 186.3985,316.303 185.6745,317.423 C184.9525,318.543 183.9835,319.4 182.7695,319.995 C181.5565,320.591 180.2265,320.888 178.7795,320.888 C177.5665,320.888 176.4405,320.689 175.4015,320.293 C174.3635,319.896 173.4595,319.324 172.6885,318.578" id="Fill-152" fill="#B67CEE" mask="url(#mask-4)"></path>
                <polygon id="Fill-153" fill="#B67CEE" mask="url(#mask-4)" points="215.4609 320.1532 215.4609 320.4322 207.8649 320.4322 207.8649 320.1532 210.1059 317.9472 210.1059 307.4812 195.7189 307.4812 195.7189 317.9472 197.9939 320.1532 197.9939 320.4322 190.3989 320.4322 190.3989 320.1532 192.6389 317.9472 192.6389 297.1902 190.3989 294.9852 190.3989 294.7052 197.9939 294.7052 197.9939 294.9852 195.7189 297.1902 195.7189 306.3612 210.1059 306.3612 210.1059 297.1902 208.0049 294.9852 208.0049 294.7052 215.2859 294.7052 215.2859 294.9852 213.1859 297.1902 213.1859 317.9472"></polygon>
                <path d="M241.4307,310.1063 L236.8797,299.5013 L232.3647,310.1063 L241.4307,310.1063 Z M250.3567,320.1533 L250.3567,320.4323 L242.5157,320.4323 L242.5157,320.1533 L244.7907,317.9473 L241.9207,311.2613 L231.8397,311.2613 L229.0037,317.9473 L231.2437,320.1533 L231.2437,320.4323 L225.1547,320.4323 L225.1547,320.1533 L227.6047,317.9473 L236.1797,297.9253 L235.1297,295.7203 L238.0347,294.3903 L248.1867,317.9473 L250.3567,320.1533 Z" id="Stroke-154" stroke="#FFFFFF" stroke-width="0.5" mask="url(#mask-4)"></path>
                <path d="M254.9746,297.1903 L252.8736,294.9853 L252.8736,294.7053 L260.5046,294.7053 L260.5046,294.9853 L258.0546,297.1903 L258.0546,319.2773 L263.4106,319.2773 C264.5536,319.2773 265.5106,318.9683 266.2806,318.3503 C267.0506,317.7313 267.6216,316.8623 267.9956,315.7423 L268.1356,315.7073 L270.7606,318.1923 C270.0606,319.0093 269.1916,319.5863 268.1536,319.9253 C267.1156,320.2633 265.7086,320.4323 263.9356,320.4323 L252.7346,320.4323 L252.7346,320.1533 L254.9746,317.9473 L254.9746,297.1903 Z" id="Stroke-155" stroke="#FFFFFF" stroke-width="0.5" mask="url(#mask-4)"></path>
                <path d="M275.3789,297.1903 L273.2779,294.9853 L273.2779,294.7053 L280.9089,294.7053 L280.9089,294.9853 L278.4589,297.1903 L278.4589,319.2773 L283.8149,319.2773 C284.9579,319.2773 285.9149,318.9683 286.6849,318.3503 C287.4549,317.7313 288.0259,316.8623 288.3999,315.7423 L288.5399,315.7073 L291.1649,318.1923 C290.4649,319.0093 289.5959,319.5863 288.5579,319.9253 C287.5199,320.2633 286.1129,320.4323 284.3399,320.4323 L273.1389,320.4323 L273.1389,320.1533 L275.3789,317.9473 L275.3789,297.1903 Z" id="Stroke-156" stroke="#FFFFFF" stroke-width="0.5" mask="url(#mask-4)"></path>
                <polygon id="Stroke-157" stroke="#FFFFFF" stroke-width="0.5" mask="url(#mask-4)" points="21.998 359.8778 21.998 337.8608 16.327 337.8608 12.582 342.3768 12.232 342.3768 13.177 336.7058 33.899 336.7058 34.81 342.3768 34.459 342.3768 30.714 337.8608 25.078 337.8608 25.078 359.8778 27.249 362.1528 27.249 362.4338 19.793 362.4338 19.793 362.1528"></polygon>
                <polygon id="Stroke-158" stroke="#FFFFFF" stroke-width="0.5" mask="url(#mask-4)" points="62.25 362.1532 62.25 362.4332 54.654 362.4332 54.654 362.1532 56.895 359.9482 56.895 349.4822 42.508 349.4822 42.508 359.9482 44.783 362.1532 44.783 362.4332 37.188 362.4332 37.188 362.1532 39.428 359.9482 39.428 339.1912 37.188 336.9862 37.188 336.7062 44.783 336.7062 44.783 336.9862 42.508 339.1912 42.508 348.3622 56.895 348.3622 56.895 339.1912 54.794 336.9862 54.794 336.7062 62.075 336.7062 62.075 336.9862 59.975 339.1912 59.975 359.9482"></polygon>
                <path d="M80.0293,352.1073 L75.4783,341.5013 L70.9633,352.1073 L80.0293,352.1073 Z M88.9553,362.1533 L88.9553,362.4333 L81.1143,362.4333 L81.1143,362.1533 L83.3893,359.9483 L80.5193,353.2623 L70.4383,353.2623 L67.6023,359.9483 L69.8423,362.1533 L69.8423,362.4333 L63.7533,362.4333 L63.7533,362.1533 L66.2033,359.9483 L74.7783,339.9253 L73.7283,337.7203 L76.6333,336.3903 L86.7853,359.9483 L88.9553,362.1533 Z" id="Stroke-159" stroke="#FFFFFF" stroke-width="0.5" mask="url(#mask-4)"></path>
                <polygon id="Stroke-160" stroke="#FFFFFF" stroke-width="0.5" mask="url(#mask-4)" points="96.7236 359.8778 96.7236 337.8608 91.0526 337.8608 87.3076 342.3768 86.9576 342.3768 87.9026 336.7058 108.6246 336.7058 109.5356 342.3768 109.1846 342.3768 105.4396 337.8608 99.8036 337.8608 99.8036 359.8778 101.9746 362.1528 101.9746 362.4338 94.5186 362.4338 94.5186 362.1528"></polygon>
                <path d="M120.6631,360.578 L118.9831,362.433 L118.7381,362.433 L118.7381,355.432 L119.8931,355.432 C120.1961,357.439 120.9371,358.997 122.1161,360.105 C123.2951,361.214 124.7941,361.768 126.6141,361.768 C128.2251,361.768 129.5431,361.307 130.5691,360.386 C131.5971,359.464 132.1091,358.198 132.1091,356.588 C132.1091,355.631 131.9171,354.791 131.5321,354.067 C131.1471,353.345 130.4991,352.662 129.5901,352.019 C128.6801,351.378 127.4191,350.707 125.8091,350.007 C123.4991,349.004 121.8301,347.919 120.8041,346.752 C119.7761,345.585 119.2641,344.208 119.2641,342.621 C119.2641,341.245 119.6131,340.078 120.3131,339.121 C121.0141,338.164 121.9301,337.447 123.0611,336.969 C124.1931,336.49 125.4121,336.251 126.7191,336.251 C128.3061,336.251 129.7351,336.612 131.0071,337.336 C132.2791,338.059 133.2411,339.062 133.8941,340.347 L131.2691,342.656 L131.0591,342.552 C131.0591,340.918 130.6511,339.635 129.8341,338.701 C129.0171,337.767 127.8971,337.301 126.4741,337.301 C125.1431,337.301 124.0471,337.68 123.1841,338.438 C122.3201,339.197 121.8891,340.241 121.8891,341.571 C121.8891,342.808 122.3261,343.858 123.2011,344.722 C124.0761,345.585 125.6341,346.495 127.8741,347.452 C130.3011,348.525 132.0521,349.698 133.1251,350.97 C134.1981,352.242 134.7351,353.753 134.7351,355.503 C134.7351,356.996 134.3731,358.303 133.6491,359.423 C132.9271,360.543 131.9581,361.401 130.7441,361.996 C129.5311,362.591 128.2011,362.889 126.7541,362.889 C125.5411,362.889 124.4151,362.69 123.3761,362.294 C122.3381,361.896 121.4341,361.325 120.6631,360.578 Z" id="Stroke-161" stroke="#FFFFFF" stroke-width="0.5" mask="url(#mask-4)"></path>
                <polygon id="Stroke-162" stroke="#FFFFFF" stroke-width="0.5" mask="url(#mask-4)" points="145.5146 359.8778 145.5146 337.8608 139.8436 337.8608 136.0986 342.3768 135.7486 342.3768 136.6936 336.7058 157.4156 336.7058 158.3266 342.3768 157.9756 342.3768 154.2306 337.8608 148.5946 337.8608 148.5946 359.8778 150.7656 362.1528 150.7656 362.4338 143.3096 362.4338 143.3096 362.1528"></polygon>
                <path d="M172.9551,352.1073 L168.4041,341.5013 L163.8891,352.1073 L172.9551,352.1073 Z M181.8811,362.1533 L181.8811,362.4333 L174.0401,362.4333 L174.0401,362.1533 L176.3151,359.9483 L173.4451,353.2623 L163.3641,353.2623 L160.5281,359.9483 L162.7681,362.1533 L162.7681,362.4333 L156.6791,362.4333 L156.6791,362.1533 L159.1291,359.9483 L167.7041,339.9253 L166.6541,337.7203 L169.5591,336.3903 L179.7111,359.9483 L181.8811,362.1533 Z" id="Stroke-163" stroke="#FFFFFF" stroke-width="0.5" mask="url(#mask-4)"></path>
                <polygon id="Stroke-164" stroke="#FFFFFF" stroke-width="0.5" mask="url(#mask-4)" points="209.6357 336.7059 209.6357 336.9859 206.8707 339.1909 206.8707 362.4339 205.7157 362.4339 188.3197 341.0119 188.3197 359.9479 191.0837 362.1529 191.0837 362.4339 184.2587 362.4339 184.2587 362.1529 186.9897 359.9479 186.9897 339.4009 184.9927 336.9859 184.9927 336.7059 188.9487 336.7059 203.3357 354.4529 205.5407 357.2529 205.5407 339.1909 202.7757 336.9859 202.7757 336.7059"></polygon>
                <path d="M234.1357,350.4618 C234.1357,346.6118 233.2017,343.5488 231.3347,341.2738 C229.4687,338.9988 226.6567,337.8608 222.8997,337.8608 L219.0487,337.8608 L219.0487,358.7578 C219.6787,359.6678 220.5537,360.3798 221.6737,360.8938 C222.7937,361.4068 224.0777,361.6628 225.5247,361.6628 C228.2547,361.6628 230.3717,360.7008 231.8777,358.7748 C233.3827,356.8508 234.1357,354.0788 234.1357,350.4618 Z M235.8327,343.1638 C236.9417,345.2058 237.4957,347.5798 237.4957,350.2868 C237.4957,352.8308 237.0297,355.0538 236.0957,356.9548 C235.1617,358.8578 233.8317,360.3208 232.1057,361.3488 C230.3777,362.3748 228.3597,362.8888 226.0497,362.8888 C224.4627,362.8888 223.0737,362.6608 221.8837,362.2058 C220.6947,361.7508 219.7257,361.0798 218.9787,360.1928 L218.9787,362.4338 L213.7287,362.4338 L213.7287,362.1528 L215.9687,359.9478 L215.9687,339.1908 L213.7287,336.9858 L213.7287,336.7058 L222.6897,336.7058 C225.9087,336.7058 228.6277,337.2718 230.8447,338.4028 C233.0617,339.5348 234.7247,341.1218 235.8327,343.1638 Z" id="Stroke-165" stroke="#FFFFFF" stroke-width="0.5" mask="url(#mask-4)"></path>
                <path d="M242.708,360.578 L241.028,362.433 L240.783,362.433 L240.783,355.432 L241.938,355.432 C242.241,357.439 242.982,358.997 244.161,360.105 C245.34,361.214 246.839,361.768 248.659,361.768 C250.27,361.768 251.588,361.307 252.614,360.386 C253.642,359.464 254.154,358.198 254.154,356.588 C254.154,355.631 253.962,354.791 253.577,354.067 C253.192,353.345 252.544,352.662 251.635,352.019 C250.725,351.378 249.464,350.707 247.854,350.007 C245.544,349.004 243.875,347.919 242.849,346.752 C241.821,345.585 241.309,344.208 241.309,342.621 C241.309,341.245 241.658,340.078 242.358,339.121 C243.059,338.164 243.975,337.447 245.106,336.969 C246.238,336.49 247.457,336.251 248.764,336.251 C250.351,336.251 251.78,336.612 253.052,337.336 C254.324,338.059 255.286,339.062 255.939,340.347 L253.314,342.656 L253.104,342.552 C253.104,340.918 252.696,339.635 251.879,338.701 C251.062,337.767 249.942,337.301 248.519,337.301 C247.188,337.301 246.092,337.68 245.229,338.438 C244.365,339.197 243.934,340.241 243.934,341.571 C243.934,342.808 244.371,343.858 245.246,344.722 C246.121,345.585 247.679,346.495 249.919,347.452 C252.346,348.525 254.097,349.698 255.17,350.97 C256.243,352.242 256.78,353.753 256.78,355.503 C256.78,356.996 256.418,358.303 255.694,359.423 C254.972,360.543 254.003,361.401 252.789,361.996 C251.576,362.591 250.246,362.889 248.799,362.889 C247.586,362.889 246.46,362.69 245.421,362.294 C244.383,361.896 243.479,361.325 242.708,360.578 Z" id="Stroke-166" stroke="#FFFFFF" stroke-width="0.5" mask="url(#mask-4)"></path>
                <polygon id="Stroke-167" stroke="#FFFFFF" stroke-width="0.5" mask="url(#mask-4)" points="269.9736 359.9481 269.9736 339.1911 268.0826 336.9861 268.0826 336.7061 274.9786 336.7061 274.9786 336.9861 273.0536 339.1911 273.0536 359.9481 275.3286 362.1531 275.3286 362.4331 267.7336 362.4331 267.7336 362.1531"></polygon>
                <polygon id="Stroke-168" stroke="#FFFFFF" stroke-width="0.5" mask="url(#mask-4)" points="304.835 336.7059 304.835 336.9859 302.07 339.1909 302.07 362.4339 300.915 362.4339 283.519 341.0119 283.519 359.9479 286.283 362.1529 286.283 362.4339 279.458 362.4339 279.458 362.1529 282.189 359.9479 282.189 339.4009 280.192 336.9859 280.192 336.7059 284.148 336.7059 298.535 354.4529 300.74 357.2529 300.74 339.1909 297.975 336.9859 297.975 336.7059"></polygon>
                <polygon id="Stroke-169" stroke="#FFFFFF" stroke-width="0.5" mask="url(#mask-4)" points="61.5996 401.8778 61.5996 379.8608 55.9286 379.8608 52.1836 384.3768 51.8336 384.3768 52.7786 378.7058 73.5006 378.7058 74.4116 384.3768 74.0606 384.3768 70.3156 379.8608 64.6796 379.8608 64.6796 401.8778 66.8506 404.1528 66.8506 404.4338 59.3946 404.4338 59.3946 404.1528"></polygon>
                <polygon id="Stroke-170" stroke="#FFFFFF" stroke-width="0.5" mask="url(#mask-4)" points="101.8516 404.1532 101.8516 404.4332 94.2556 404.4332 94.2556 404.1532 96.4966 401.9482 96.4966 391.4822 82.1096 391.4822 82.1096 401.9482 84.3846 404.1532 84.3846 404.4332 76.7896 404.4332 76.7896 404.1532 79.0296 401.9482 79.0296 381.1912 76.7896 378.9862 76.7896 378.7062 84.3846 378.7062 84.3846 378.9862 82.1096 381.1912 82.1096 390.3622 96.4966 390.3622 96.4966 381.1912 94.3956 378.9862 94.3956 378.7062 101.6766 378.7062 101.6766 378.9862 99.5766 381.1912 99.5766 401.9482"></polygon>
                <path d="M121.6787,403.9257 C120.6397,404.2647 119.2457,404.4337 117.4947,404.4337 L105.9797,404.4337 L105.9797,404.1537 L108.2197,401.9477 L108.2197,381.1917 L105.9797,378.9867 L105.9797,378.7057 L121.6967,378.7057 L122.6407,384.0267 L122.2907,384.0267 L118.5457,379.8617 L111.2997,379.8617 L111.2997,390.3627 L116.5157,390.3627 L118.6507,387.9467 L118.9657,387.9467 L118.9657,393.8977 L118.6507,393.8977 L116.5157,391.4827 L111.2997,391.4827 L111.2997,403.2787 L116.9707,403.2787 C118.1147,403.2787 119.0707,402.9697 119.8407,402.3507 C120.6107,401.7327 121.1827,400.8627 121.5557,399.7427 L121.6967,399.7077 L124.3217,402.1937 C123.5977,403.0097 122.7167,403.5877 121.6787,403.9257 Z" id="Stroke-171" stroke="#FFFFFF" stroke-width="0.5" mask="url(#mask-4)"></path>
                <polygon id="Stroke-172" stroke="#FFFFFF" stroke-width="0.5" mask="url(#mask-4)" points="169.8584 378.7059 169.8584 378.9859 167.7584 381.1909 158.9724 404.4339 157.6424 404.4339 151.4464 386.5469 145.1114 404.4339 143.8154 404.4339 135.0644 381.1909 132.7904 378.9859 132.7904 378.7059 140.2804 378.7059 140.2804 378.9859 138.3904 381.1909 144.4804 397.5729 145.3564 400.3379 150.8164 384.7619 148.6464 378.9859 148.6464 378.7059 155.2964 378.7059 155.2964 378.9859 152.7764 381.1909 158.4124 397.5729 159.2524 400.3029 166.4624 381.1909 164.3634 378.9859 164.3634 378.7059"></polygon>
                <path d="M181.6875,394.1073 L177.1365,383.5013 L172.6215,394.1073 L181.6875,394.1073 Z M190.6135,404.1533 L190.6135,404.4333 L182.7725,404.4333 L182.7725,404.1533 L185.0475,401.9483 L182.1775,395.2623 L172.0965,395.2623 L169.2605,401.9483 L171.5005,404.1533 L171.5005,404.4333 L165.4115,404.4333 L165.4115,404.1533 L167.8615,401.9483 L176.4365,381.9253 L175.3865,379.7203 L178.2915,378.3903 L188.4435,401.9483 L190.6135,404.1533 Z" id="Stroke-173" stroke="#FFFFFF" stroke-width="0.5" mask="url(#mask-4)"></path>
                <polygon id="Stroke-174" stroke="#FFFFFF" stroke-width="0.5" mask="url(#mask-4)" points="198.2422 401.9481 198.2422 392.0771 190.4012 381.1911 187.5662 378.9861 187.5662 378.7061 196.6672 378.7061 196.6672 378.9861 194.2172 381.2261 200.7632 390.3271 207.2732 381.2261 204.8572 378.9861 204.8572 378.7061 211.4382 378.7061 211.4382 378.9861 208.8482 381.1911 201.3222 391.6221 201.3222 401.9481 203.5972 404.1531 203.5972 404.4331 195.9672 404.4331 195.9672 404.1531"></polygon>
                <path d="M225.1572,384.8319 C224.4102,386.5819 224.0372,388.6009 224.0372,390.8869 C224.0372,393.3839 224.4632,395.6179 225.3142,397.5909 C226.1662,399.5619 227.3502,401.0969 228.8672,402.1929 C230.3842,403.2899 232.0992,403.8389 234.0122,403.8389 C235.7622,403.8389 237.3152,403.3599 238.6692,402.4029 C240.0212,401.4459 241.0782,400.0929 241.8362,398.3429 C242.5942,396.5929 242.9732,394.5619 242.9732,392.2519 C242.9732,389.7779 242.5482,387.5559 241.6962,385.5839 C240.8452,383.6119 239.6602,382.0779 238.1432,380.9809 C236.6272,379.8849 234.9112,379.3359 232.9982,379.3359 C231.2482,379.3359 229.6902,379.8139 228.3252,380.7709 C226.9602,381.7279 225.9032,383.0809 225.1572,384.8319 Z M222.2872,398.5179 C221.1902,396.5109 220.6412,394.2249 220.6412,391.6569 C220.6412,389.0899 221.1842,386.7859 222.2692,384.7439 C223.3542,382.7019 224.8712,381.1089 226.8192,379.9659 C228.7682,378.8219 230.9792,378.2509 233.4532,378.2509 C235.9502,378.2509 238.1782,378.8109 240.1382,379.9309 C242.0982,381.0509 243.6272,382.6139 244.7232,384.6209 C245.8212,386.6279 246.3692,388.9149 246.3692,391.4819 C246.3692,394.0489 245.8272,396.3529 244.7412,398.3949 C243.6562,400.4369 242.1392,402.0299 240.1912,403.1739 C238.2422,404.3169 236.0312,404.8889 233.5572,404.8889 C231.0602,404.8889 228.8322,404.3279 226.8722,403.2079 C224.9122,402.0879 223.3842,400.5239 222.2872,398.5179 Z" id="Stroke-175" stroke="#FFFFFF" stroke-width="0.5" mask="url(#mask-4)"></path>
                <polygon id="Stroke-176" stroke="#FFFFFF" stroke-width="0.5" mask="url(#mask-4)" points="255.3271 379.8612 255.3271 390.3622 260.5431 390.3622 262.7131 387.8412 263.0281 387.8412 263.0281 394.0032 262.7131 394.0032 260.5431 391.4822 255.3271 391.4822 255.3271 401.9132 258.0571 404.1532 258.0571 404.4332 250.0071 404.4332 250.0071 404.1532 252.2471 401.9482 252.2471 381.1912 250.0071 378.9862 250.0071 378.7062 265.7231 378.7062 266.6681 384.0962 266.3181 384.0962 262.5731 379.8612"></polygon>
                <polygon id="Fill-177" fill="#DB643B" mask="url(#mask-4)" points="33.4961 443.9481 33.4961 423.1911 31.6051 420.9861 31.6051 420.7061 38.5011 420.7061 38.5011 420.9861 36.5761 423.1911 36.5761 443.9481 38.8511 446.1531 38.8511 446.4331 31.2561 446.4331 31.2561 446.1531"></polygon>
                <polygon id="Fill-178" fill="#DB643B" mask="url(#mask-4)" points="72.9082 446.1532 72.9082 446.4332 65.6282 446.4332 65.6282 446.1532 67.7622 443.9482 64.6122 425.6412 57.2622 446.4332 56.1062 446.4332 48.6502 425.6062 45.4662 443.9482 48.1962 446.1532 48.1962 446.4332 41.5452 446.4332 41.5452 446.1532 44.2402 443.9482 47.8102 423.2602 47.1452 421.4412 49.9812 420.3552 56.7712 439.2932 57.4712 442.0232 64.1572 423.1562 63.7022 420.8812 66.6782 420.3552 70.8432 443.9482"></polygon>
                <path d="M90.127,436.1073 L85.576,425.5013 L81.061,436.1073 L90.127,436.1073 Z M99.053,446.1533 L99.053,446.4333 L91.212,446.4333 L91.212,446.1533 L93.487,443.9483 L90.617,437.2623 L80.536,437.2623 L77.7,443.9483 L79.94,446.1533 L79.94,446.4333 L73.851,446.4333 L73.851,446.1533 L76.301,443.9483 L84.876,423.9253 L83.826,421.7203 L86.731,420.3903 L96.883,443.9483 L99.053,446.1533 Z" id="Fill-179" fill="#DB643B" mask="url(#mask-4)"></path>
                <path d="M123.4834,434.3573 L123.4834,446.4333 L123.1324,446.4333 L120.9984,442.0923 C120.0874,443.6103 118.8684,444.7883 117.3394,445.6283 C115.8114,446.4683 114.0674,446.8883 112.1074,446.8883 C109.7964,446.8883 107.6964,446.3283 105.8064,445.2083 C103.9164,444.0873 102.4284,442.5243 101.3434,440.5173 C100.2584,438.5103 99.7154,436.2363 99.7154,433.6923 C99.7154,431.1253 100.2584,428.8213 101.3434,426.7793 C102.4284,424.7373 103.9334,423.1383 105.8594,421.9833 C107.7844,420.8283 109.9834,420.2513 112.4574,420.2513 C115.1174,420.2513 117.4624,420.9043 119.4934,422.2113 C121.5234,423.5173 122.9344,425.2453 123.7284,427.3913 L120.9624,429.5263 L120.7534,429.4213 C120.4494,426.9713 119.5224,425.0113 117.9694,423.5413 C116.4184,422.0713 114.4634,421.3363 112.1074,421.3363 C110.3564,421.3363 108.7984,421.7913 107.4344,422.7013 C106.0694,423.6113 105.0064,424.9003 104.2494,426.5693 C103.4904,428.2373 103.1114,430.1693 103.1114,432.3623 C103.1114,434.7653 103.5314,436.9123 104.3714,438.8023 C105.2114,440.6933 106.3954,442.1693 107.9234,443.2303 C109.4524,444.2933 111.2094,444.8233 113.1924,444.8233 C115.5254,444.8233 117.4334,444.1463 118.9154,442.7933 C120.3974,441.4393 121.2194,439.5963 121.3824,437.2623 L115.1174,434.7073 L115.1174,434.3573 L123.4834,434.3573 Z" id="Fill-180" fill="#DB643B" mask="url(#mask-4)"></path>
                <polygon id="Fill-181" fill="#DB643B" mask="url(#mask-4)" points="130.0605 443.9481 130.0605 423.1911 128.1695 420.9861 128.1695 420.7061 135.0655 420.7061 135.0655 420.9861 133.1405 423.1911 133.1405 443.9481 135.4155 446.1531 135.4155 446.4331 127.8205 446.4331 127.8205 446.1531"></polygon>
                <polygon id="Fill-182" fill="#DB643B" mask="url(#mask-4)" points="164.9229 420.7059 164.9229 420.9859 162.1569 423.1909 162.1569 446.4339 161.0019 446.4339 143.6059 425.0119 143.6059 443.9479 146.3699 446.1529 146.3699 446.4339 139.5449 446.4339 139.5449 446.1529 142.2759 443.9479 142.2759 423.4009 140.2799 420.9859 140.2799 420.7059 144.2359 420.7059 158.6219 438.4529 160.8269 441.2529 160.8269 423.1909 158.0619 420.9859 158.0619 420.7059"></polygon>
                <path d="M181.9658,436.1073 L177.4148,425.5013 L172.8998,436.1073 L181.9658,436.1073 Z M190.8918,446.1533 L190.8918,446.4333 L183.0508,446.4333 L183.0508,446.1533 L185.3258,443.9483 L182.4558,437.2623 L172.3748,437.2623 L169.5388,443.9483 L171.7788,446.1533 L171.7788,446.4333 L165.6898,446.4333 L165.6898,446.1533 L168.1398,443.9483 L176.7148,423.9253 L175.6648,421.7203 L178.5698,420.3903 L188.7218,443.9483 L190.8918,446.1533 Z" id="Fill-183" fill="#DB643B" mask="url(#mask-4)"></path>
                <polygon id="Fill-184" fill="#DB643B" mask="url(#mask-4)" points="198.6602 443.8778 198.6602 421.8608 192.9892 421.8608 189.2442 426.3768 188.8942 426.3768 189.8392 420.7058 210.5612 420.7058 211.4722 426.3768 211.1212 426.3768 207.3762 421.8608 201.7402 421.8608 201.7402 443.8778 203.9112 446.1528 203.9112 446.4338 196.4552 446.4338 196.4552 446.1528"></polygon>
                <polygon id="Fill-185" fill="#DB643B" mask="url(#mask-4)" points="216.0898 443.9481 216.0898 423.1911 214.1988 420.9861 214.1988 420.7061 221.0948 420.7061 221.0948 420.9861 219.1698 423.1911 219.1698 443.9481 221.4448 446.1531 221.4448 446.4331 213.8498 446.4331 213.8498 446.1531"></polygon>
                <path d="M229.5996,426.8319 C228.8526,428.5819 228.4796,430.6009 228.4796,432.8869 C228.4796,435.3839 228.9056,437.6179 229.7566,439.5909 C230.6086,441.5619 231.7926,443.0969 233.3096,444.1929 C234.8266,445.2899 236.5416,445.8389 238.4546,445.8389 C240.2046,445.8389 241.7576,445.3599 243.1106,444.4029 C244.4636,443.4459 245.5206,442.0929 246.2786,440.3429 C247.0366,438.5929 247.4156,436.5619 247.4156,434.2519 C247.4156,431.7779 246.9906,429.5559 246.1386,427.5839 C245.2876,425.6119 244.1026,424.0779 242.5856,422.9809 C241.0696,421.8849 239.3536,421.3359 237.4406,421.3359 C235.6906,421.3359 234.1326,421.8139 232.7676,422.7709 C231.4026,423.7279 230.3456,425.0809 229.5996,426.8319 M226.7296,440.5179 C225.6326,438.5109 225.0836,436.2249 225.0836,433.6569 C225.0836,431.0899 225.6266,428.7859 226.7116,426.7439 C227.7966,424.7019 229.3136,423.1089 231.2616,421.9659 C233.2106,420.8219 235.4216,420.2509 237.8956,420.2509 C240.3926,420.2509 242.6206,420.8109 244.5806,421.9309 C246.5406,423.0509 248.0696,424.6139 249.1656,426.6209 C250.2636,428.6279 250.8116,430.9149 250.8116,433.4819 C250.8116,436.0489 250.2696,438.3529 249.1836,440.3949 C248.0986,442.4369 246.5816,444.0299 244.6336,445.1739 C242.6846,446.3169 240.4736,446.8889 237.9996,446.8889 C235.5026,446.8889 233.2746,446.3279 231.3146,445.2079 C229.3546,444.0879 227.8266,442.5239 226.7296,440.5179" id="Fill-186" fill="#DB643B" mask="url(#mask-4)"></path>
                <polygon id="Fill-187" fill="#DB643B" mask="url(#mask-4)" points="279.8271 420.7059 279.8271 420.9859 277.0611 423.1909 277.0611 446.4339 275.9061 446.4339 258.5101 425.0119 258.5101 443.9479 261.2741 446.1529 261.2741 446.4339 254.4491 446.4339 254.4491 446.1529 257.1801 443.9479 257.1801 423.4009 255.1841 420.9859 255.1841 420.7059 259.1401 420.7059 273.5261 438.4529 275.7311 441.2529 275.7311 423.1909 272.9661 420.9859 272.9661 420.7059"></polygon>
                <polygon id="Stroke-188" stroke="#FFFFFF" stroke-width="0.5" mask="url(#mask-4)" points="285.7393 442.3378 288.1893 444.9638 285.7393 447.5538 283.2543 444.9638"></polygon>
            </g>
        </g>
    </g>
</svg>