<?xml version="1.0" encoding="UTF-8"?><svg id="uuid-3ccf2b29-acac-42ec-a7d4-b91d872e3594" xmlns="http://www.w3.org/2000/svg" viewBox="0 0 1300.3 864.3"><defs><style>.uuid-ab6061aa-4502-4e25-ba3d-0c13893ce438{stroke:red;stroke-width:2px;}.uuid-ab6061aa-4502-4e25-ba3d-0c13893ce438,.uuid-4c3731b0-2683-45ea-af20-dcab2a38790f,.uuid-c5dad66e-6c87-495f-8e39-92a93100529a{fill:none;stroke-miterlimit:10;}.uuid-4c3731b0-2683-45ea-af20-dcab2a38790f{stroke:#aeb1b4;stroke-width:.2px;}.uuid-c5dad66e-6c87-495f-8e39-92a93100529a{stroke:#fff;stroke-width:.3px;}</style></defs><line class="uuid-4c3731b0-2683-45ea-af20-dcab2a38790f" x1="177.4227123" y1="117.968356" x2=".1500073" y2=".1499966"/><line class="uuid-4c3731b0-2683-45ea-af20-dcab2a38790f" x1="29.6954174" y1=".1499966" x2="198.910017" y2="117.9681729"/><line class="uuid-4c3731b0-2683-45ea-af20-dcab2a38790f" x1="220.3975658" y1="117.9681729" x2="59.2408276" y2=".1499966"/><line class="uuid-4c3731b0-2683-45ea-af20-dcab2a38790f" x1="88.7863598" y1=".1499966" x2="241.8851147" y2="117.9681729"/><line class="uuid-4c3731b0-2683-45ea-af20-dcab2a38790f" x1="263.3729076" y1="117.9681729" x2="118.331892" y2=".1499966"/><line class="uuid-4c3731b0-2683-45ea-af20-dcab2a38790f" x1="147.8773022" y1=".1499966" x2="284.8604565" y2="117.9681729"/><line class="uuid-4c3731b0-2683-45ea-af20-dcab2a38790f" x1="306.3480053" y1="117.9681729" x2="177.4227123" y2=".1499966"/><line class="uuid-4c3731b0-2683-45ea-af20-dcab2a38790f" x1="206.9681225" y1=".1499966" x2="327.8357983" y2="117.9681729"/><line class="uuid-4c3731b0-2683-45ea-af20-dcab2a38790f" x1="349.3233471" y1="117.9681729" x2="236.5135326" y2=".1499966"/><line class="uuid-4c3731b0-2683-45ea-af20-dcab2a38790f" x1="266.0589428" y1=".1499966" x2="370.8108959" y2="117.9681729"/><line class="uuid-4c3731b0-2683-45ea-af20-dcab2a38790f" x1="392.2984448" y1="117.9681729" x2="295.6045971" y2=".1499966"/><line class="uuid-4c3731b0-2683-45ea-af20-dcab2a38790f" x1="354.6954174" y1=".1499966" x2="435.2737865" y2="117.9681729"/><line class="uuid-4c3731b0-2683-45ea-af20-dcab2a38790f" x1="456.7613354" y1="117.9681729" x2="384.2408276" y2=".1499966"/><line class="uuid-4c3731b0-2683-45ea-af20-dcab2a38790f" x1="413.7864819" y1=".1499966" x2="478.2488842" y2="117.9681729"/><line class="uuid-4c3731b0-2683-45ea-af20-dcab2a38790f" x1="499.736433" y1="117.9681729" x2="443.331892" y2=".1499966"/><line class="uuid-4c3731b0-2683-45ea-af20-dcab2a38790f" x1="472.8773022" y1=".1499966" x2="521.224226" y2="117.9681729"/><line class="uuid-4c3731b0-2683-45ea-af20-dcab2a38790f" x1="542.7117748" y1="117.9681729" x2="502.4227123" y2=".1499966"/><line class="uuid-4c3731b0-2683-45ea-af20-dcab2a38790f" x1="531.9681225" y1=".1499966" x2="564.1993237" y2="117.9681729"/><line class="uuid-4c3731b0-2683-45ea-af20-dcab2a38790f" x1="585.6868725" y1="117.9681729" x2="561.5135326" y2=".1499966"/><line class="uuid-4c3731b0-2683-45ea-af20-dcab2a38790f" x1="591.0589428" y1=".1499966" x2="607.1744213" y2="117.9681729"/><line class="uuid-4c3731b0-2683-45ea-af20-dcab2a38790f" x1="620.6045971" y1=".1499966" x2="628.6622143" y2="117.9681729"/><line class="uuid-4c3731b0-2683-45ea-af20-dcab2a38790f" x1="671.6373119" y1="117.9681729" x2="679.6954174" y2=".1499966"/><line class="uuid-4c3731b0-2683-45ea-af20-dcab2a38790f" x1="709.2408276" y1=".1499966" x2="693.1248608" y2="117.9681729"/><line class="uuid-4c3731b0-2683-45ea-af20-dcab2a38790f" x1="738.7864819" y1=".1499966" x2="714.6126537" y2="117.9681729"/><line class="uuid-4c3731b0-2683-45ea-af20-dcab2a38790f" x1="768.331892" y1=".1499966" x2="736.1002026" y2="117.9681729"/><line class="uuid-4c3731b0-2683-45ea-af20-dcab2a38790f" x1="797.8773022" y1=".1499966" x2="757.5877514" y2="117.9681729"/><line class="uuid-4c3731b0-2683-45ea-af20-dcab2a38790f" x1="827.4227123" y1=".1499966" x2="779.0753002" y2="117.9681729"/><line class="uuid-4c3731b0-2683-45ea-af20-dcab2a38790f" x1="856.9681225" y1=".1499966" x2="800.562849" y2="117.9681729"/><line class="uuid-4c3731b0-2683-45ea-af20-dcab2a38790f" x1="886.5135326" y1=".1499966" x2="822.050642" y2="117.9681729"/><line class="uuid-4c3731b0-2683-45ea-af20-dcab2a38790f" x1="916.0589428" y1=".1499966" x2="843.5381908" y2="117.9681729"/><line class="uuid-4c3731b0-2683-45ea-af20-dcab2a38790f" x1="945.6045971" y1=".1499966" x2="865.0257397" y2="117.9681729"/><line class="uuid-4c3731b0-2683-45ea-af20-dcab2a38790f" x1="1004.6954174" y1=".1499966" x2="908.0010815" y2="117.9681729"/><line class="uuid-4c3731b0-2683-45ea-af20-dcab2a38790f" x1="1034.2408276" y1=".1499966" x2="929.4886303" y2="117.9681729"/><line class="uuid-4c3731b0-2683-45ea-af20-dcab2a38790f" x1="1063.7864819" y1=".1499966" x2="950.9761791" y2="117.9681729"/><line class="uuid-4c3731b0-2683-45ea-af20-dcab2a38790f" x1="1093.331892" y1=".1499966" x2="972.463728" y2="117.9681729"/><line class="uuid-4c3731b0-2683-45ea-af20-dcab2a38790f" x1="1122.8773022" y1=".1499966" x2="993.9515209" y2="117.9681729"/><line class="uuid-4c3731b0-2683-45ea-af20-dcab2a38790f" x1="1152.4227123" y1=".1499966" x2="1015.4390698" y2="117.9681729"/><line class="uuid-4c3731b0-2683-45ea-af20-dcab2a38790f" x1="1181.9681225" y1=".1499966" x2="1036.9266186" y2="117.9681729"/><line class="uuid-4c3731b0-2683-45ea-af20-dcab2a38790f" x1="1211.5135326" y1=".1499966" x2="1058.4141674" y2="117.9681729"/><line class="uuid-4c3731b0-2683-45ea-af20-dcab2a38790f" x1="1241.0589428" y1=".1499966" x2="1079.9017162" y2="117.9681729"/><line class="uuid-4c3731b0-2683-45ea-af20-dcab2a38790f" x1="1270.6045971" y1=".1499966" x2="1101.3895092" y2="117.9681729"/><line class="uuid-4c3731b0-2683-45ea-af20-dcab2a38790f" x1="1300.1500073" y1=".1499966" x2="1122.877058" y2="117.9681729"/><line class="uuid-4c3731b0-2683-45ea-af20-dcab2a38790f" x1=".1500073" y1="19.7863492" x2="177.4227123" y2="132.2493008"/><line class="uuid-4c3731b0-2683-45ea-af20-dcab2a38790f" x1="177.4227123" y1="146.5303067" x2=".1500073" y2="39.4227017"/><line class="uuid-4c3731b0-2683-45ea-af20-dcab2a38790f" x1=".1500073" y1="59.0591153" x2="177.4227123" y2="160.8113126"/><line class="uuid-4c3731b0-2683-45ea-af20-dcab2a38790f" x1="177.4227123" y1="175.0923184" x2=".1500073" y2="78.6954678"/><line class="uuid-4c3731b0-2683-45ea-af20-dcab2a38790f" x1=".1500073" y1="98.3318204" x2="177.4227123" y2="189.3732632"/><line class="uuid-4c3731b0-2683-45ea-af20-dcab2a38790f" x1="177.4227123" y1="203.6542691" x2=".1500073" y2="117.9681729"/><line class="uuid-4c3731b0-2683-45ea-af20-dcab2a38790f" x1=".1500073" y1="137.6045255" x2="177.4227123" y2="217.9352139"/><line class="uuid-4c3731b0-2683-45ea-af20-dcab2a38790f" x1="177.4227123" y1="232.2162198" x2=".1500073" y2="157.240878"/><line class="uuid-4c3731b0-2683-45ea-af20-dcab2a38790f" x1=".1500073" y1="176.8772305" x2="177.4227123" y2="246.4971646"/><line class="uuid-4c3731b0-2683-45ea-af20-dcab2a38790f" x1="177.4227123" y1="260.7781705" x2=".1500073" y2="196.5136441"/><line class="uuid-4c3731b0-2683-45ea-af20-dcab2a38790f" x1=".1500073" y1="235.7863492" x2="177.4227123" y2="289.3401212"/><line class="uuid-4c3731b0-2683-45ea-af20-dcab2a38790f" x1="177.4227123" y1="303.621127" x2=".1500073" y2="255.4227017"/><line class="uuid-4c3731b0-2683-45ea-af20-dcab2a38790f" x1=".1500073" y1="275.0590543" x2="177.4227123" y2="317.9020718"/><line class="uuid-4c3731b0-2683-45ea-af20-dcab2a38790f" x1="177.4227123" y1="332.1831387" x2=".1500073" y2="294.6954678"/><line class="uuid-4c3731b0-2683-45ea-af20-dcab2a38790f" x1=".1500073" y1="314.3318204" x2="177.4227123" y2="346.4640836"/><line class="uuid-4c3731b0-2683-45ea-af20-dcab2a38790f" x1="177.4227123" y1="360.7450894" x2=".1500073" y2="333.9681729"/><line class="uuid-4c3731b0-2683-45ea-af20-dcab2a38790f" x1=".1500073" y1="353.6045255" x2="177.4227123" y2="375.0260342"/><line class="uuid-4c3731b0-2683-45ea-af20-dcab2a38790f" x1="177.4227123" y1="389.3070401" x2=".1500073" y2="373.240878"/><line class="uuid-4c3731b0-2683-45ea-af20-dcab2a38790f" x1=".1500073" y1="392.8772305" x2="177.4227123" y2="403.5879849"/><line class="uuid-4c3731b0-2683-45ea-af20-dcab2a38790f" x1="177.4227123" y1="417.8689908" x2=".1500073" y2="412.5136441"/><line class="uuid-4c3731b0-2683-45ea-af20-dcab2a38790f" x1=".1500073" y1="451.7863492" x2="177.4227123" y2="446.4310025"/><line class="uuid-4c3731b0-2683-45ea-af20-dcab2a38790f" x1="177.4227123" y1="460.7119473" x2=".1500073" y2="471.4227017"/><line class="uuid-4c3731b0-2683-45ea-af20-dcab2a38790f" x1=".1500073" y1="491.0590543" x2="177.4227123" y2="474.9929532"/><line class="uuid-4c3731b0-2683-45ea-af20-dcab2a38790f" x1="177.4227123" y1="489.273959" x2=".1500073" y2="510.6954678"/><line class="uuid-4c3731b0-2683-45ea-af20-dcab2a38790f" x1=".1500073" y1="530.3318204" x2="177.4227123" y2="503.5549039"/><line class="uuid-4c3731b0-2683-45ea-af20-dcab2a38790f" x1="177.4227123" y1="517.8359097" x2=".1500073" y2="549.9681729"/><line class="uuid-4c3731b0-2683-45ea-af20-dcab2a38790f" x1=".1500073" y1="569.6045255" x2="177.4227123" y2="532.1168546"/><line class="uuid-4c3731b0-2683-45ea-af20-dcab2a38790f" x1="177.4227123" y1="546.3978604" x2=".1500073" y2="589.240878"/><line class="uuid-4c3731b0-2683-45ea-af20-dcab2a38790f" x1=".1500073" y1="608.8772305" x2="177.4227123" y2="560.6788052"/><line class="uuid-4c3731b0-2683-45ea-af20-dcab2a38790f" x1="177.4227123" y1="574.9598721" x2=".1500073" y2="628.5136441"/><line class="uuid-4c3731b0-2683-45ea-af20-dcab2a38790f" x1=".1500073" y1="667.7863492" x2="177.4227123" y2="603.5218228"/><line class="uuid-4c3731b0-2683-45ea-af20-dcab2a38790f" x1="177.4227123" y1="617.8027676" x2=".1500073" y2="687.4227017"/><line class="uuid-4c3731b0-2683-45ea-af20-dcab2a38790f" x1=".1500073" y1="707.0590543" x2="177.4227123" y2="632.0837735"/><line class="uuid-4c3731b0-2683-45ea-af20-dcab2a38790f" x1="177.4227123" y1="646.3647794" x2=".1500073" y2="726.6954678"/><line class="uuid-4c3731b0-2683-45ea-af20-dcab2a38790f" x1=".1500073" y1="746.3318204" x2="177.4227123" y2="660.6457242"/><line class="uuid-4c3731b0-2683-45ea-af20-dcab2a38790f" x1="177.4227123" y1="674.92673" x2=".1500073" y2="765.9681729"/><line class="uuid-4c3731b0-2683-45ea-af20-dcab2a38790f" x1=".1500073" y1="785.6045255" x2="177.4227123" y2="689.2076749"/><line class="uuid-4c3731b0-2683-45ea-af20-dcab2a38790f" x1="177.4227123" y1="703.4886807" x2=".1500073" y2="805.240878"/><line class="uuid-4c3731b0-2683-45ea-af20-dcab2a38790f" x1=".1500073" y1="824.8772305" x2="177.4227123" y2="717.7696255"/><line class="uuid-4c3731b0-2683-45ea-af20-dcab2a38790f" x1="177.4227123" y1="732.0506924" x2=".1500073" y2="844.5136441"/><line class="uuid-4c3731b0-2683-45ea-af20-dcab2a38790f" x1=".1500073" y1="864.1499966" x2="177.4227123" y2="746.3316373"/><line class="uuid-4c3731b0-2683-45ea-af20-dcab2a38790f" x1="29.6954174" y1="864.1499966" x2="198.910017" y2="746.3318204"/><line class="uuid-4c3731b0-2683-45ea-af20-dcab2a38790f" x1="59.2408276" y1="864.1499966" x2="220.3975658" y2="746.3318204"/><line class="uuid-4c3731b0-2683-45ea-af20-dcab2a38790f" x1="88.7863598" y1="864.1499966" x2="241.8851147" y2="746.3318204"/><line class="uuid-4c3731b0-2683-45ea-af20-dcab2a38790f" x1="118.331892" y1="864.1499966" x2="263.3729076" y2="746.3318204"/><line class="uuid-4c3731b0-2683-45ea-af20-dcab2a38790f" x1="147.8773022" y1="864.1499966" x2="284.8604565" y2="746.3318204"/><line class="uuid-4c3731b0-2683-45ea-af20-dcab2a38790f" x1="177.4227123" y1="864.1499966" x2="306.3480053" y2="746.3318204"/><line class="uuid-4c3731b0-2683-45ea-af20-dcab2a38790f" x1="206.9681225" y1="864.1499966" x2="327.8357983" y2="746.3318204"/><line class="uuid-4c3731b0-2683-45ea-af20-dcab2a38790f" x1="236.5135326" y1="864.1499966" x2="349.3233471" y2="746.3318204"/><line class="uuid-4c3731b0-2683-45ea-af20-dcab2a38790f" x1="266.0589428" y1="864.1499966" x2="370.8108959" y2="746.3318204"/><line class="uuid-4c3731b0-2683-45ea-af20-dcab2a38790f" x1="295.6045971" y1="864.1499966" x2="392.2984448" y2="746.3318204"/><line class="uuid-4c3731b0-2683-45ea-af20-dcab2a38790f" x1="354.6954174" y1="864.1499966" x2="435.2737865" y2="746.3318204"/><line class="uuid-4c3731b0-2683-45ea-af20-dcab2a38790f" x1="384.2408276" y1="864.1499966" x2="456.7613354" y2="746.3318204"/><line class="uuid-4c3731b0-2683-45ea-af20-dcab2a38790f" x1="413.7864819" y1="864.1499966" x2="478.2488842" y2="746.3318204"/><line class="uuid-4c3731b0-2683-45ea-af20-dcab2a38790f" x1="443.331892" y1="864.1499966" x2="499.736433" y2="746.3318204"/><line class="uuid-4c3731b0-2683-45ea-af20-dcab2a38790f" x1="472.8773022" y1="864.1499966" x2="521.224226" y2="746.3318204"/><line class="uuid-4c3731b0-2683-45ea-af20-dcab2a38790f" x1="502.4227123" y1="864.1499966" x2="542.7117748" y2="746.3318204"/><line class="uuid-4c3731b0-2683-45ea-af20-dcab2a38790f" x1="531.9681225" y1="864.1499966" x2="564.1993237" y2="746.3318204"/><line class="uuid-4c3731b0-2683-45ea-af20-dcab2a38790f" x1="561.5135326" y1="864.1499966" x2="585.6868725" y2="746.3318204"/><line class="uuid-4c3731b0-2683-45ea-af20-dcab2a38790f" x1="591.0589428" y1="864.1499966" x2="607.1744213" y2="746.3318204"/><line class="uuid-4c3731b0-2683-45ea-af20-dcab2a38790f" x1="620.6045971" y1="864.1499966" x2="628.6622143" y2="746.3318204"/><line class="uuid-4c3731b0-2683-45ea-af20-dcab2a38790f" x1="679.6954174" y1="864.1499966" x2="671.6373119" y2="746.3318204"/><line class="uuid-4c3731b0-2683-45ea-af20-dcab2a38790f" x1="709.2408276" y1="864.1499966" x2="693.1248608" y2="746.3318204"/><line class="uuid-4c3731b0-2683-45ea-af20-dcab2a38790f" x1="714.6126537" y1="746.3318204" x2="738.7864819" y2="864.1499966"/><line class="uuid-4c3731b0-2683-45ea-af20-dcab2a38790f" x1="768.331892" y1="864.1499966" x2="736.1002026" y2="746.3318204"/><line class="uuid-4c3731b0-2683-45ea-af20-dcab2a38790f" x1="757.5877514" y1="746.3318204" x2="797.8773022" y2="864.1499966"/><line class="uuid-4c3731b0-2683-45ea-af20-dcab2a38790f" x1="827.4227123" y1="864.1499966" x2="779.0753002" y2="746.3318204"/><line class="uuid-4c3731b0-2683-45ea-af20-dcab2a38790f" x1="800.562849" y1="746.3318204" x2="856.9681225" y2="864.1499966"/><line class="uuid-4c3731b0-2683-45ea-af20-dcab2a38790f" x1="886.5135326" y1="864.1499966" x2="822.050642" y2="746.3318204"/><line class="uuid-4c3731b0-2683-45ea-af20-dcab2a38790f" x1="843.5381908" y1="746.3318204" x2="916.0589428" y2="864.1499966"/><line class="uuid-4c3731b0-2683-45ea-af20-dcab2a38790f" x1="945.6045971" y1="864.1499966" x2="865.0257397" y2="746.3318204"/><line class="uuid-4c3731b0-2683-45ea-af20-dcab2a38790f" x1="908.0010815" y1="746.3318204" x2="1004.6954174" y2="864.1499966"/><line class="uuid-4c3731b0-2683-45ea-af20-dcab2a38790f" x1="1034.2408276" y1="864.1499966" x2="929.4886303" y2="746.3318204"/><line class="uuid-4c3731b0-2683-45ea-af20-dcab2a38790f" x1="950.9761791" y1="746.3318204" x2="1063.7864819" y2="864.1499966"/><line class="uuid-4c3731b0-2683-45ea-af20-dcab2a38790f" x1="1093.331892" y1="864.1499966" x2="972.463728" y2="746.3318204"/><line class="uuid-4c3731b0-2683-45ea-af20-dcab2a38790f" x1="993.9515209" y1="746.3318204" x2="1122.8773022" y2="864.1499966"/><line class="uuid-4c3731b0-2683-45ea-af20-dcab2a38790f" x1="1152.4227123" y1="864.1499966" x2="1015.4390698" y2="746.3318204"/><line class="uuid-4c3731b0-2683-45ea-af20-dcab2a38790f" x1="1036.9266186" y1="746.3318204" x2="1181.9681225" y2="864.1499966"/><line class="uuid-4c3731b0-2683-45ea-af20-dcab2a38790f" x1="1211.5135326" y1="864.1499966" x2="1058.4141674" y2="746.3318204"/><line class="uuid-4c3731b0-2683-45ea-af20-dcab2a38790f" x1="1079.9017162" y1="746.3318204" x2="1241.0589428" y2="864.1499966"/><line class="uuid-4c3731b0-2683-45ea-af20-dcab2a38790f" x1="1270.6045971" y1="864.1499966" x2="1101.3895092" y2="746.3318204"/><line class="uuid-4c3731b0-2683-45ea-af20-dcab2a38790f" x1="1122.877058" y1="746.3318204" x2="1300.1500073" y2="864.1499966"/><line class="uuid-4c3731b0-2683-45ea-af20-dcab2a38790f" x1="1300.1500073" y1="19.7863492" x2="1122.8773022" y2="132.2489957"/><line class="uuid-4c3731b0-2683-45ea-af20-dcab2a38790f" x1="1300.1500073" y1="39.4227017" x2="1122.8773022" y2="146.5300015"/><line class="uuid-4c3731b0-2683-45ea-af20-dcab2a38790f" x1="1122.8773022" y1="160.8110074" x2="1300.1500073" y2="59.0591153"/><line class="uuid-4c3731b0-2683-45ea-af20-dcab2a38790f" x1="1300.1500073" y1="78.6954678" x2="1122.8773022" y2="175.0920132"/><line class="uuid-4c3731b0-2683-45ea-af20-dcab2a38790f" x1="1122.8773022" y1="189.3730191" x2="1300.1500073" y2="98.3318204"/><line class="uuid-4c3731b0-2683-45ea-af20-dcab2a38790f" x1="1300.1500073" y1="117.9681729" x2="1122.8773022" y2="203.6539639"/><line class="uuid-4c3731b0-2683-45ea-af20-dcab2a38790f" x1="1122.8773022" y1="217.9349698" x2="1300.1500073" y2="137.6045255"/><line class="uuid-4c3731b0-2683-45ea-af20-dcab2a38790f" x1="1300.1500073" y1="157.240878" x2="1122.8773022" y2="232.2159756"/><line class="uuid-4c3731b0-2683-45ea-af20-dcab2a38790f" x1="1122.8773022" y1="246.4969815" x2="1300.1500073" y2="176.8772305"/><line class="uuid-4c3731b0-2683-45ea-af20-dcab2a38790f" x1="1300.1500073" y1="196.5136441" x2="1122.8773022" y2="260.7779874"/><line class="uuid-4c3731b0-2683-45ea-af20-dcab2a38790f" x1="1122.8773022" y1="289.3399991" x2="1300.1500073" y2="235.7863492"/><line class="uuid-4c3731b0-2683-45ea-af20-dcab2a38790f" x1="1300.1500073" y1="255.4227017" x2="1122.8773022" y2="303.6210049"/><line class="uuid-4c3731b0-2683-45ea-af20-dcab2a38790f" x1="1122.8773022" y1="317.9019498" x2="1300.1500073" y2="275.0590543"/><line class="uuid-4c3731b0-2683-45ea-af20-dcab2a38790f" x1="1300.1500073" y1="294.6954678" x2="1122.8773022" y2="332.1830167"/><line class="uuid-4c3731b0-2683-45ea-af20-dcab2a38790f" x1="1122.8773022" y1="346.4640225" x2="1300.1500073" y2="314.3318204"/><line class="uuid-4c3731b0-2683-45ea-af20-dcab2a38790f" x1="1300.1500073" y1="333.9681729" x2="1122.8773022" y2="360.7449673"/><line class="uuid-4c3731b0-2683-45ea-af20-dcab2a38790f" x1="1122.8773022" y1="375.0259732" x2="1300.1500073" y2="353.6045255"/><line class="uuid-4c3731b0-2683-45ea-af20-dcab2a38790f" x1="1300.1500073" y1="373.240878" x2="1122.8773022" y2="389.3069791"/><line class="uuid-4c3731b0-2683-45ea-af20-dcab2a38790f" x1="1122.8773022" y1="403.5879849" x2="1300.1500073" y2="392.8772305"/><line class="uuid-4c3731b0-2683-45ea-af20-dcab2a38790f" x1="1300.1500073" y1="412.5136441" x2="1122.8773022" y2="417.8689908"/><line class="uuid-4c3731b0-2683-45ea-af20-dcab2a38790f" x1="1122.8773022" y1="446.4310025" x2="1300.1500073" y2="451.7863492"/><line class="uuid-4c3731b0-2683-45ea-af20-dcab2a38790f" x1="1300.1500073" y1="471.4227017" x2="1122.8773022" y2="460.7120084"/><line class="uuid-4c3731b0-2683-45ea-af20-dcab2a38790f" x1="1122.8773022" y1="474.9929532" x2="1300.1500073" y2="491.0590543"/><line class="uuid-4c3731b0-2683-45ea-af20-dcab2a38790f" x1="1300.1500073" y1="510.6954678" x2="1122.8773022" y2="489.2740201"/><line class="uuid-4c3731b0-2683-45ea-af20-dcab2a38790f" x1="1122.8773022" y1="503.5550259" x2="1300.1500073" y2="530.3318204"/><line class="uuid-4c3731b0-2683-45ea-af20-dcab2a38790f" x1="1300.1500073" y1="549.9681729" x2="1122.8773022" y2="517.8359708"/><line class="uuid-4c3731b0-2683-45ea-af20-dcab2a38790f" x1="1122.8773022" y1="532.1169766" x2="1300.1500073" y2="569.6045255"/><line class="uuid-4c3731b0-2683-45ea-af20-dcab2a38790f" x1="1300.1500073" y1="589.240878" x2="1122.8773022" y2="546.3979825"/><line class="uuid-4c3731b0-2683-45ea-af20-dcab2a38790f" x1="1122.8773022" y1="560.6789883" x2="1300.1500073" y2="608.8772305"/><line class="uuid-4c3731b0-2683-45ea-af20-dcab2a38790f" x1="1300.1500073" y1="628.5136441" x2="1122.8773022" y2="574.9599942"/><line class="uuid-4c3731b0-2683-45ea-af20-dcab2a38790f" x1="1122.8773022" y1="603.5220059" x2="1300.1500073" y2="667.7863492"/><line class="uuid-4c3731b0-2683-45ea-af20-dcab2a38790f" x1="1300.1500073" y1="687.4227017" x2="1122.8773022" y2="617.8030118"/><line class="uuid-4c3731b0-2683-45ea-af20-dcab2a38790f" x1="1122.8773022" y1="632.0839566" x2="1300.1500073" y2="707.0590543"/><line class="uuid-4c3731b0-2683-45ea-af20-dcab2a38790f" x1="1300.1500073" y1="726.6954678" x2="1122.8773022" y2="646.3650235"/><line class="uuid-4c3731b0-2683-45ea-af20-dcab2a38790f" x1="1122.8773022" y1="660.6460294" x2="1300.1500073" y2="746.3318204"/><line class="uuid-4c3731b0-2683-45ea-af20-dcab2a38790f" x1="1300.1500073" y1="765.9681729" x2="1122.8773022" y2="674.9269742"/><line class="uuid-4c3731b0-2683-45ea-af20-dcab2a38790f" x1="1122.8773022" y1="689.20798" x2="1300.1500073" y2="785.6045255"/><line class="uuid-4c3731b0-2683-45ea-af20-dcab2a38790f" x1="1300.1500073" y1="805.240878" x2="1122.8773022" y2="703.4889859"/><line class="uuid-4c3731b0-2683-45ea-af20-dcab2a38790f" x1="1122.8773022" y1="717.7699918" x2="1300.1500073" y2="824.8772305"/><line class="uuid-4c3731b0-2683-45ea-af20-dcab2a38790f" x1="1300.1500073" y1="844.5136441" x2="1122.8773022" y2="732.0509976"/><line class="uuid-4c3731b0-2683-45ea-af20-dcab2a38790f" x1="1270.6045446" y1="844.5136358" x2="29.6954554" y2="844.5136358"/><line class="uuid-4c3731b0-2683-45ea-af20-dcab2a38790f" x1="1241.0590901" y1="824.8772722" x2="59.2409099" y2="824.8772722"/><line class="uuid-4c3731b0-2683-45ea-af20-dcab2a38790f" x1="1211.5136356" y1="805.2409086" x2="88.7863644" y2="805.2409086"/><line class="uuid-4c3731b0-2683-45ea-af20-dcab2a38790f" x1="1181.9681811" y1="785.604545" x2="118.3318189" y2="785.604545"/><line class="uuid-4c3731b0-2683-45ea-af20-dcab2a38790f" x1="1152.4227266" y1="765.9681814" x2="147.8772734" y2="765.9681814"/><line class="uuid-4c3731b0-2683-45ea-af20-dcab2a38790f" x1="1122.8772721" y1="746.3318177" x2="177.4227279" y2="746.3318177"/><line class="uuid-4c3731b0-2683-45ea-af20-dcab2a38790f" x1="177.4227279" y1="746.3318177" x2="177.4227279" y2="117.9681823"/><line class="uuid-4c3731b0-2683-45ea-af20-dcab2a38790f" x1="147.8772734" y1="765.9681814" x2="147.8772734" y2="98.3318187"/><line class="uuid-4c3731b0-2683-45ea-af20-dcab2a38790f" x1="118.3318189" y1="785.604545" x2="118.3318189" y2="78.6954551"/><line class="uuid-4c3731b0-2683-45ea-af20-dcab2a38790f" x1="88.7863644" y1="805.2409086" x2="88.7863644" y2="59.0590914"/><line class="uuid-4c3731b0-2683-45ea-af20-dcab2a38790f" x1="59.2409099" y1="824.8772722" x2="59.2409099" y2="39.4227278"/><line class="uuid-4c3731b0-2683-45ea-af20-dcab2a38790f" x1="29.6954554" y1="844.5136358" x2="29.6954554" y2="19.7863642"/><line class="uuid-4c3731b0-2683-45ea-af20-dcab2a38790f" x1="1270.6045446" y1="19.7863642" x2="1270.6045446" y2="844.5136358"/><line class="uuid-4c3731b0-2683-45ea-af20-dcab2a38790f" x1="1241.0590901" y1="39.4227278" x2="1241.0590901" y2="824.8772722"/><line class="uuid-4c3731b0-2683-45ea-af20-dcab2a38790f" x1="1211.5136356" y1="59.0590914" x2="1211.5136356" y2="805.2409086"/><line class="uuid-4c3731b0-2683-45ea-af20-dcab2a38790f" x1="1181.9681811" y1="78.6954551" x2="1181.9681811" y2="785.604545"/><line class="uuid-4c3731b0-2683-45ea-af20-dcab2a38790f" x1="1152.4227266" y1="98.3318187" x2="1152.4227266" y2="765.9681814"/><line class="uuid-4c3731b0-2683-45ea-af20-dcab2a38790f" x1="1122.8772721" y1="117.9681823" x2="1122.8772721" y2="746.3318177"/><line class="uuid-4c3731b0-2683-45ea-af20-dcab2a38790f" x1="177.4227279" y1="117.9681823" x2="1122.8772721" y2="117.9681823"/><line class="uuid-4c3731b0-2683-45ea-af20-dcab2a38790f" x1="147.8772734" y1="98.3318187" x2="1152.4227266" y2="98.3318187"/><line class="uuid-4c3731b0-2683-45ea-af20-dcab2a38790f" x1="118.3318189" y1="78.6954551" x2="1181.9681811" y2="78.6954551"/><line class="uuid-4c3731b0-2683-45ea-af20-dcab2a38790f" x1="88.7863644" y1="59.0590914" x2="1211.5136356" y2="59.0590914"/><line class="uuid-4c3731b0-2683-45ea-af20-dcab2a38790f" x1="59.2409099" y1="39.4227278" x2="1241.0590901" y2="39.4227278"/><line class="uuid-4c3731b0-2683-45ea-af20-dcab2a38790f" x1="29.6954554" y1="19.7863642" x2="1270.6045446" y2="19.7863642"/><line class="uuid-c5dad66e-6c87-495f-8e39-92a93100529a" x1="325.1500073" y1=".1499966" x2="413.7859936" y2="117.9681729"/><line class="uuid-c5dad66e-6c87-495f-8e39-92a93100529a" x1="650.1497631" y1="117.9681729" x2="650.1500073" y2=".1499966"/><line class="uuid-c5dad66e-6c87-495f-8e39-92a93100529a" x1="975.1500073" y1=".1499966" x2="886.5135326" y2="117.9681729"/><line class="uuid-c5dad66e-6c87-495f-8e39-92a93100529a" x1="177.4227123" y1="117.968356" x2=".1500073" y2=".1499966"/><line class="uuid-c5dad66e-6c87-495f-8e39-92a93100529a" x1="177.4227123" y1="275.0591763" x2=".1500073" y2="216.1499966"/><line class="uuid-c5dad66e-6c87-495f-8e39-92a93100529a" x1=".1500073" y1="432.1499966" x2="177.4227123" y2="432.1499966"/><line class="uuid-c5dad66e-6c87-495f-8e39-92a93100529a" x1="177.4227123" y1="589.240817" x2=".1500073" y2="648.1499966"/><line class="uuid-c5dad66e-6c87-495f-8e39-92a93100529a" x1=".1500073" y1="864.1499966" x2="177.4227123" y2="746.3316373"/><line class="uuid-c5dad66e-6c87-495f-8e39-92a93100529a" x1="325.1500073" y1="864.1499966" x2="413.7859936" y2="746.3318204"/><line class="uuid-c5dad66e-6c87-495f-8e39-92a93100529a" x1="650.1500073" y1="864.1499966" x2="650.1497631" y2="746.3318204"/><line class="uuid-c5dad66e-6c87-495f-8e39-92a93100529a" x1="975.1500073" y1="864.1499966" x2="886.5135326" y2="746.3318204"/><line class="uuid-c5dad66e-6c87-495f-8e39-92a93100529a" x1="1300.1500073" y1=".1499966" x2="1122.877058" y2="117.9681729"/><line class="uuid-c5dad66e-6c87-495f-8e39-92a93100529a" x1="1300.1500073" y1="216.1499966" x2="1122.8773022" y2="275.0589932"/><line class="uuid-c5dad66e-6c87-495f-8e39-92a93100529a" x1="1300.1500073" y1="432.1499966" x2="1122.8773022" y2="432.1499966"/><line class="uuid-c5dad66e-6c87-495f-8e39-92a93100529a" x1="1122.8773022" y1="589.2410001" x2="1300.1500073" y2="648.1499966"/><line class="uuid-c5dad66e-6c87-495f-8e39-92a93100529a" x1="1300.1500073" y1="864.1499966" x2="1122.877058" y2="746.3318204"/><rect class="uuid-c5dad66e-6c87-495f-8e39-92a93100529a" x=".15" y=".15" width="1300" height="864"/><rect class="uuid-ab6061aa-4502-4e25-ba3d-0c13893ce438" x="177.4227279" y="117.9681823" width="945.4545441" height="628.3636355"/></svg>