<?xml version="1.0" encoding="UTF-8"?>
<svg width="448px" height="137px" viewBox="0 0 448 137" version="1.1" xmlns="http://www.w3.org/2000/svg" xmlns:xlink="http://www.w3.org/1999/xlink">
    <title>active_scribble</title>
    <g id="Page-1" stroke="none" stroke-width="1" fill="none" fill-rule="evenodd" stroke-linecap="round">
        <g id="active_scribble" transform="translate(1.000000, 0.864101)" stroke="#B67CEE" stroke-width="1.5">
            <path d="M200.622668,31.9434899 L57.9436917,31.9434899 C41.6684618,31.9434899 15.7067496,27.9385245 2.99795549,37.7660329 C-7.53973055,45.913659 12.5174295,55.2021887 19.8334713,57.507601 C54.7382094,68.5035521 95.536725,71.005672 132.828066,74.0074289 C182.898237,78.0438675 233.113866,82.3556967 283.48573,83.7169128 C331.384792,85.0112484 391.330003,90.6803595 439.013571,83.7169128 C465.891135,79.7906304 406.71093,75.2820938 404.453624,74.9791642 C382.510887,72.0442878 129.28318,43.2305682 129.28318,59.6084375 C129.28318,62.7321531 229.094892,61.0916123 237.402209,60.902773 C247.126403,60.6863948 311.295308,54.3406097 269.747949,60.0962722 C192.024433,70.8601084 115.987163,88.3631448 43.7641468,111.708395 C32.2513477,115.426167 12.2318992,118.392517 2.99795549,125.135899 C2.94408184,125.171058 31.4270809,121.406076 35.1228133,120.768744 C75.4526281,113.805297 116.78988,110.591096 156.753354,103.293247 C178.868488,99.256808 198.747865,94.7482713 216.795538,84.2008133 C221.865048,81.242332 249.733887,68.837955 247.815986,62.5236431 C245.903471,56.2408045 204.614705,53.3019939 196.636018,52.3302587" id="Stroke-1"></path>
            <path d="M144.003358,5.13250049 L57.948101,5.13250049 C48.131875,5.13250049 32.4733535,0.190202773 24.8081839,12.3177663 C18.4524944,22.3722836 30.5497501,33.8347245 34.9623403,36.6797014 C56.0147496,50.249173 80.6219261,53.3368954 103.113789,57.0411912 C133.313062,62.0223282 163.600067,67.3433088 193.981303,69.0231075 C222.871097,70.6203727 259.026392,77.616297 287.786212,69.0231075 C303.99712,64.177908 268.303229,58.6141818 266.94176,58.2403538 C253.707239,54.6185914 100.975729,19.0612354 100.975729,39.272223 C100.975729,43.127021 161.176067,41.1025238 166.186534,40.8694882 C172.051575,40.6024682 210.754345,32.7714994 185.695512,39.8742318 C138.817427,53.1572637 92.9563829,74.7567554 49.3958643,103.565787 C42.452046,108.153677 30.3775356,111.814278 24.8081839,120.135899 C24.7756906,120.179287 41.9548986,115.533139 44.183939,114.746644 C68.5084237,106.153454 93.4405331,102.186993 117.544063,93.1811364 C130.882563,88.1999994 142.872591,82.6362733 153.757847,69.6202613 C156.815466,65.9693695 173.624251,50.6618403 172.467489,42.8697108 C171.313977,35.1164206 146.411111,31.4898033 141.598854,30.2906407" id="Stroke-1-Copy-2" transform="translate(157.500000, 62.135899) scale(-1, 1) translate(-157.500000, -62.135899) "></path>
            <path d="M200.622668,31.900533 L57.9436917,31.900533 C41.6684618,31.900533 15.7067496,28.1085976 2.99795549,37.4133662 C-7.53973055,45.1276079 12.5174295,53.9220669 19.8334713,56.1048509 C54.7382094,66.515911 95.536725,68.8849394 132.828066,71.7270284 C182.898237,75.5487628 233.113866,79.6312394 283.48573,80.9200504 C331.384792,82.1455383 391.330003,87.513101 439.013571,80.9200504 C465.891135,77.2026128 406.71093,72.9338919 404.453624,72.6470756 C382.510887,69.8683096 129.28318,42.5872347 129.28318,58.0939408 C129.28318,61.0515013 229.094892,59.4982233 237.402209,59.3194287 C247.126403,59.1145599 311.295308,53.1063166 269.747949,58.5558268 C192.024433,68.7471186 115.987163,85.3191423 43.7641468,107.422624 C32.2513477,110.942642 12.2318992,113.751207 2.99795549,120.135899 C2.94408184,120.169188 31.4270809,116.604471 35.1228133,116.001039 C75.4526281,109.407989 116.78988,106.364756 156.753354,99.4550898 C178.868488,95.6333554 198.747865,91.3646345 216.795538,81.3782115 C221.865048,78.5770963 249.733887,66.8325265 247.815986,60.8540823 C245.903471,54.9054372 204.614705,52.1229463 196.636018,51.2028992" id="Stroke-1" transform="translate(223.000000, 75.635899) rotate(-180.000000) translate(-223.000000, -75.635899) "></path>
            <path d="M61.1764188,10.1325005 L17.6689284,10.1325005 C12.706078,10.1325005 4.78950213,5.19020277 0.914174769,17.3177663 C-2.29911066,27.3722836 3.81697403,38.8347245 6.04787465,41.6797014 C16.6914719,55.249173 29.1322749,58.3368954 40.5036255,62.0411912 C55.7716596,67.0223282 71.0840489,72.3433088 86.444079,74.0231075 C101.050071,75.6203727 119.329328,82.616297 133.869609,74.0231075 C142.065458,69.177908 124.019477,63.6141818 123.33115,63.2403538 C116.640091,59.6185914 39.4226736,24.0612354 39.4226736,44.272223 C39.4226736,48.127021 69.8585321,46.1025238 72.3917049,45.8694882 C75.35693,45.6024682 94.9241298,37.7714994 82.2549799,44.8742318 C58.5545356,58.1572637 35.3682828,79.7567554 13.345121,108.565787 C9.83449168,113.153677 3.72990648,116.814278 0.914174769,125.135899 C0.897746929,125.179287 9.58314574,120.533139 10.7100955,119.746644 C23.0079763,111.153454 35.6130576,107.186993 47.799229,98.1811364 C54.5428572,93.1999994 60.60473,87.6362733 66.1080563,74.6202613 C67.653916,70.9693695 76.1520374,55.6618403 75.5672063,47.8697108 C74.984018,40.1164206 62.3937218,36.4898033 59.9607587,35.2906407" id="Stroke-1" transform="translate(68.000000, 67.135899) rotate(-180.000000) translate(-68.000000, -67.135899) "></path>
            <path d="M377.224417,0.659410308 L336.756878,5.81418174 C332.140792,6.4021807 325.586236,1.92407945 319.996845,15.6733196 C315.362521,27.0723559 319.175279,38.9089325 320.784684,41.7623067 C328.463765,55.3714702 339.529958,57.2811889 349.500512,59.9932935 C362.886509,63.6429556 376.258142,67.6597831 390.270016,67.6807466 C403.594045,67.7006035 419.451118,73.2014172 434.381833,62.0617654 C442.798005,55.7810684 426.923509,51.8221026 426.34446,51.4939931 C420.713668,48.3178121 354.711022,18.5007156 351.40322,40.6490938 C350.77233,44.8734061 379.412914,39.0488008 381.807228,38.4932962 C384.608969,37.84936 404.090615,26.9494043 391.144224,36.2340345 C366.925828,53.5983859 341.824594,80.0154771 316.625245,114.1954 C312.60904,119.639016 306.331887,124.373788 302.350958,133.826681 C302.328569,133.876207 311.167507,127.75564 312.344436,126.760232 C325.189432,115.88626 337.562937,110.04613 350.371567,98.733168 C357.459236,92.4755621 364.008133,85.6602955 371.257177,70.7445564 C373.292543,66.5605427 383.702168,48.7788019 384.433488,40.3090231 C385.159979,31.8816119 374.042935,29.3990528 371.976227,28.3731982" id="Stroke-1-Copy" transform="translate(369.594003, 67.243045) rotate(-270.000000) translate(-369.594003, -67.243045) "></path>
        </g>
    </g>
</svg>