<?xml version="1.0" encoding="UTF-8"?>
<svg width="258px" height="77px" viewBox="0 0 258 77" version="1.1" xmlns="http://www.w3.org/2000/svg" xmlns:xlink="http://www.w3.org/1999/xlink">
    <title>Offering</title>
    <g id="Page-1" stroke="none" stroke-width="1" fill="none" fill-rule="evenodd">
        <g id="02.-Offering-Desktop-Annotated" transform="translate(-722.000000, -225.000000)" fill="#FFFFFF">
            <path d="M812.95,229.05 C812.982507,229.016144 813.015589,228.982703 813.05,228.95 C813.015589,228.982703 812.982551,229.01619 812.95,229.05 L812.95,229.05 Z M813.05,229.95 C813.015906,229.982914 812.982752,230.016331 812.95,230.05 C812.982685,230.016331 813.015973,229.982914 813.05,229.95 L813.05,229.95 Z M809.192438,248 L802.81276,248 L790,248 L790,238.955152 C790,235.337138 791.06341,232.427021 793.108173,230.224801 C795.152937,228.10111 797.852196,227 801.287422,227 C803.659433,227 805.785863,227.550649 807.6671,228.573041 C809.120127,229.423567 810.229925,230.509684 811,231.829329 C811,231.829142 811,231.829142 811,231.829142 C809.797622,233.7864 809.192438,236.081583 809.192438,238.718999 L809.192438,248 Z M831.241623,226.658709 C828.82935,225.552966 826.18362,225 823.148855,225 C819.113689,225 815.798181,226.095956 813.198252,228.350731 C812.246805,227.557419 811.097874,226.875528 809.714002,226.342701 C807.457306,225.473917 804.967338,225 802.399303,225 C799.364538,225 796.718807,225.552966 794.462111,226.737569 C792.127719,227.922361 790.337938,229.58107 789.015073,231.713507 C787.692208,233.846132 787.069715,236.294577 787.069715,239.05884 L787.069715,247.668014 L781,247.668014 L781,249.484632 L787.069715,249.484632 L787.069715,280.129805 L782.089408,283.604944 L782.089408,284 L796.407468,284 L796.407468,283.604944 L790.649092,280.129805 L790.649092,249.484632 L802.83896,249.484632 L808.90849,249.484632 L808.90849,280.129805 L803.928367,283.604944 L803.928367,284 L818.246428,284 L818.246428,283.604944 L812.488051,280.129805 L812.488051,249.484632 L826.18362,249.484632 C826.234799,249.484632 826.283753,249.486326 826.334375,249.486702 L826.334375,247.668014 L812.488051,247.668014 L812.488051,237.874236 C812.488051,234.320049 813.421882,231.555597 815.211663,229.58107 C817.001258,227.606354 819.413531,226.57966 822.29272,226.57966 C825.094212,226.57966 827.350908,227.448444 828.984927,229.107153 C830.619131,230.765673 831.552777,233.056208 831.941996,235.82066 L832.175454,235.978569 L837,231.397688 C835.521373,229.344111 833.576015,227.764452 831.241623,226.658709 L831.241623,226.658709 Z M842.627428,248 C839.333292,248 836.509773,249.287317 834.156873,251.86195 C831.803972,254.436775 830.417911,257.815933 830,262 L854,261.275812 C853.894588,257.360943 852.796542,254.16892 850.705864,251.701083 C848.613877,249.234589 845.921564,248 842.627428,248 L842.627428,248 Z M858,275.735458 C856.656196,278.614654 854.668371,280.877936 852.033939,282.526799 C849.399507,284.175475 846.480547,285 843.278534,285 C840.229957,285 837.376543,284.214765 834.716631,282.644481 C832.055611,281.074385 829.938169,278.850206 828.363197,275.97101 C826.786932,273.092937 826,269.795397 826,266.078393 C826,262.36251 826.748158,259.065158 828.246874,256.185962 C829.744482,253.307888 831.811149,251.056768 834.445396,249.433911 C837.079828,247.81199 839.997496,247 843.200986,247 C846.041105,247 848.585987,247.655018 850.832861,248.962808 C853.07992,250.27172 854.823283,252.091026 856.06295,254.419416 C857.302618,256.748929 857.922636,259.404922 857.922636,262.388329 L857.922636,263.644481 L830.029011,263.644481 L830.029011,264.743661 C830.029011,268.198359 830.674325,271.26016 831.966061,273.929623 C833.256689,276.599086 835.000052,278.667415 837.19615,280.132177 C839.390956,281.598062 841.806221,282.330537 844.440653,282.330537 C846.970948,282.330537 849.360733,281.690113 851.607792,280.407019 C853.854666,279.125048 855.571441,277.384134 856.760333,275.185775 L858,275.735458 Z M968.643778,267.299119 C967.072165,269.10013 965.051546,270 962.579345,270 C960.775957,270 959.153535,269.505552 957.712261,268.516293 C956.269882,267.527215 955.124448,266.157736 954.274485,264.407676 C953.424705,262.657615 953,260.717536 953,258.587075 C953,255.797893 953.784426,253.502253 955.356038,251.701062 C956.926546,249.90114 958.948454,249 961.420471,249 C963.22257,249 964.844993,249.49463 966.287371,250.483707 C967.728645,251.472785 968.875552,252.830478 969.725331,254.554248 C970.574926,256.279468 971,258.206674 971,260.336954 C971,263.178354 970.214102,265.499016 968.643778,267.299119 L968.643778,267.299119 Z M952.747803,281 L952.904093,281 L965.94298,282.131927 C971.980621,282.617066 975,285.149886 975,289.731927 C975,291.563626 974.453542,293.261613 973.360441,294.825503 C972.267339,296.388237 970.718019,297.641353 968.714899,298.585236 C966.710477,299.527577 964.407056,300 961.805009,300 C959.410047,300 957.237427,299.608498 955.285287,298.827612 C953.333333,298.045764 951.797409,296.980693 950.678818,295.634133 C949.558924,294.286032 949,292.804218 949,291.187152 C949,290.108401 949.285602,288.788237 949.858852,287.225503 C950.431172,285.661613 951.39366,283.587152 952.747803,281 L952.747803,281 Z M980,247.475535 L979.683175,247.475535 L972.0022,250.724771 C970.840383,249.563129 969.415142,248.651907 967.726101,247.99054 C966.036117,247.330684 964.188758,247 962.183269,247 C958.223807,247 955.016875,248.149178 952.562284,250.447344 C950.107504,252.745699 948.88002,255.691447 948.88002,259.283831 C948.88002,261.609381 949.39479,263.709439 950.42414,265.584195 C951.45368,267.460272 952.891374,268.952409 954.739866,270.061927 C953.102905,271.383151 951.651436,272.889074 950.384702,274.579319 C949.117592,276.270697 948.48413,277.644044 948.48413,278.700306 C948.48413,280.074786 949.434416,281.025667 951.3348,281.553326 L945,292.727638 C946.42524,295.949679 948.654903,298.301291 951.691063,299.780963 C954.726091,301.259503 958.144743,302 961.945698,302 C965.059979,302 967.924235,301.471208 970.537333,300.414947 C973.150431,299.357364 975.221586,297.879013 976.753252,295.976874 C978.283786,294.074924 979.049714,291.908011 979.049714,289.478402 C979.049714,286.466933 977.993191,284.102857 975.882408,282.385417 C973.770305,280.66911 970.656024,279.651375 966.538433,279.334289 L951.572371,278.303901 L956.006788,270.69591 C957.853958,271.541788 959.912848,271.964066 962.183269,271.964066 C966.142543,271.964066 969.349475,270.802424 971.804255,268.476874 C974.259035,266.152646 975.48633,263.16705 975.48633,259.521598 C975.48633,256.563386 974.667378,254.027264 973.031739,251.913608 L980,251.913608 L980,247.475535 Z M937.372561,280.237234 L937.372561,260.483041 C937.372561,256.929681 936.474753,254.160332 934.681402,252.173686 C932.886918,250.188161 930.354196,249.194931 927.083046,249.194931 C924.602193,249.194931 922.413127,249.770657 920.513585,250.919493 C918.614043,252.069637 917.122476,253.624022 916.041523,255.583582 C914.959439,257.543328 914.418868,259.751709 914.418868,262.207603 L914.418868,280.237234 L919.405472,283.608088 L919.405472,284 L905.712399,284 L905.712399,283.608088 L910.778032,280.237234 L910.778032,256.249907 C910.778032,254.525345 910.342709,253.258823 909.472062,252.448099 C908.601415,251.638496 907.109848,251.050442 905,250.684309 L905,250.292397 L913.627439,247.470369 L914.023154,247.470369 L914.023154,256.093179 L914.18159,256.093179 C915.131267,253.32383 916.85898,251.115449 919.365863,249.469157 C921.871424,247.823052 924.78779,247 928.111941,247 C932.069461,247 935.208392,248.163594 937.530997,250.488353 C939.852282,252.814232 941.013396,256.014722 941.013396,260.091129 L941.013396,280.237234 L946,283.608088 L946,284 L932.306927,284 L932.306927,283.608088 L937.372561,280.237234 Z M896.807594,281.188784 L902,284.603042 L902,285 L887.7418,285 L887.7418,284.603042 L893.016498,281.188784 L893.016498,256.892586 C893.016498,255.145818 892.563208,253.862988 891.656628,253.041825 C890.750049,252.221798 889.196923,251.626171 887,251.255323 L887,250.858365 L896.395548,248 L896.807594,248 L896.807594,281.188784 Z M895.038961,242 L891,237.458008 L895.038961,233 L899,237.458008 L895.038961,242 Z M886,250.21394 L882.857935,253.898248 L882.543653,253.819791 C882.33382,252.3575 881.836661,251.260034 881.051238,250.527394 C880.265815,249.796249 879.270372,249.430116 878.066407,249.430116 C875.447333,249.430116 873.339832,250.907164 871.743155,253.85902 C870.145168,256.812183 869.347391,260.561498 869.347391,265.108088 L869.347391,280.237234 L875.631335,283.608088 L875.631335,284 L860.706806,284 L860.706806,283.608088 L865.733998,280.237234 L865.733998,256.249907 C865.733998,254.525345 865.301978,253.271152 864.437938,252.487328 C863.573898,251.703317 862.093837,251.10312 860,250.684309 L860,250.292397 L868.483164,247.470369 L868.797446,247.470369 L868.797446,256.87719 L869.03311,256.87719 C869.713148,253.741521 870.969899,251.311405 872.803551,249.586843 C874.635892,247.862281 876.809469,247 879.323158,247 C880.684358,247 881.941109,247.274226 883.093599,247.823052 C884.244779,248.371692 885.21439,249.169152 886,250.21394 L886,250.21394 Z M770.184748,270.046577 C768.229707,274.153645 765.570807,277.313044 762.208047,279.603637 C758.767204,281.894229 754.856936,283 750.399345,283 C745.785403,283 741.562433,281.736127 737.88697,279.208759 C734.211322,276.760253 731.317801,273.284839 729.206409,268.782704 C727.095017,264.359621 726,259.383558 726,253.775653 C726,248.483763 726.938479,243.823715 728.89352,239.79551 C730.770479,235.767304 733.42938,232.607905 736.870222,230.317313 C740.232982,228.105771 744.143251,227 748.600841,227 C753.214783,227 757.437754,228.263684 761.113216,230.71219 C764.788865,233.160696 767.760468,236.636111 769.872046,241.059194 C771.983438,245.482277 773,250.45834 773,256.066245 C773,261.358324 772.061707,266.018371 770.184748,270.046577 L770.184748,270.046577 Z M774.485378,239.387356 C772.06419,234.881418 768.783889,231.324137 764.566306,228.794445 C760.270553,226.264752 755.428177,225 750.038991,225 C744.649992,225 739.807615,226.264752 735.590032,228.794445 C731.29428,231.403255 728.013979,234.960535 725.592791,239.466474 C723.171603,244.051342 722,249.268774 722,255.118582 C722,260.889273 723.171603,266.106705 725.592791,270.612644 C727.93581,275.118394 731.216111,278.675863 735.433694,281.205367 C739.651278,283.735059 744.493654,285 749.88284,285 C755.272026,285 760.114402,283.735059 764.409968,281.126438 C768.70572,278.596745 771.986021,275.039465 774.407209,270.454408 C776.828397,265.948658 778,260.731226 778,254.881418 C778,249.110727 776.828397,243.893295 774.485378,239.387356 L774.485378,239.387356 Z" id="Offering"></path>
        </g>
    </g>
</svg>