<?xml version="1.0" encoding="UTF-8"?><svg id="uuid-61605097-5ab2-4db1-aac4-6c73bedb449c" xmlns="http://www.w3.org/2000/svg" viewBox="0 0 353 62.144054"><defs><style>.uuid-fe686479-f9ce-4b3a-a892-786f39320c16,.uuid-4bf723b3-5d80-4968-bb15-634673c2d052{fill:none;}.uuid-33fcc8c6-fdd4-4026-abff-5c2feb2468ef{fill:#fff;}.uuid-4bf723b3-5d80-4968-bb15-634673c2d052{stroke:#fff;stroke-miterlimit:10;}.uuid-6e588a79-1921-42e0-be13-1009e512a49d{isolation:isolate;}</style></defs><g id="uuid-cc87037a-a834-449f-b33b-44adca4ec652"><rect id="uuid-7f9a3295-f4e2-480d-a116-11bafc73e08e" class="uuid-33fcc8c6-fdd4-4026-abff-5c2feb2468ef" x="273" y="52" width="4" height="4"/><rect id="uuid-fedaadd4-e8ad-4598-b135-6b48c7a02420" class="uuid-33fcc8c6-fdd4-4026-abff-5c2feb2468ef" x="297" y="52" width="4" height="4"/><rect id="uuid-d2ed5905-fcc3-4115-a1f1-2e6af7b36b62" class="uuid-33fcc8c6-fdd4-4026-abff-5c2feb2468ef" x="321" y="52" width="4" height="4"/><rect id="uuid-cd05198e-c59f-4c6f-819b-e11b07f9c82e" class="uuid-33fcc8c6-fdd4-4026-abff-5c2feb2468ef" x="345" y="52" width="4" height="4"/><rect id="uuid-2700c366-14f9-4b77-9124-482e2169b7b6" class="uuid-33fcc8c6-fdd4-4026-abff-5c2feb2468ef" x="277" y="56" width="4" height="4"/><rect id="uuid-ef6e0efc-9c61-4689-87f3-563138f66ac0" class="uuid-33fcc8c6-fdd4-4026-abff-5c2feb2468ef" x="301" y="56" width="4" height="4"/><rect id="uuid-fc94f76f-1fb2-4120-b9c6-829732b30892" class="uuid-33fcc8c6-fdd4-4026-abff-5c2feb2468ef" x="325" y="56" width="4" height="4"/><rect id="uuid-02cc9411-5e46-4425-a31f-caf84cb5383a" class="uuid-33fcc8c6-fdd4-4026-abff-5c2feb2468ef" x="349" y="56" width="4" height="4"/><rect id="uuid-5c1086d7-c033-4aed-a097-2ee812bb0837" class="uuid-33fcc8c6-fdd4-4026-abff-5c2feb2468ef" x="281" y="52" width="4" height="4"/><rect id="uuid-764174b0-ad42-42ff-8cb1-1912752e1fab" class="uuid-33fcc8c6-fdd4-4026-abff-5c2feb2468ef" x="305" y="52" width="4" height="4"/><rect id="uuid-51ccc55a-4662-47f9-be52-8ca6b25c82bf" class="uuid-33fcc8c6-fdd4-4026-abff-5c2feb2468ef" x="329" y="52" width="4" height="4"/><rect id="uuid-45495a6c-3280-447e-b41f-79cccc2500d6" class="uuid-33fcc8c6-fdd4-4026-abff-5c2feb2468ef" x="285" y="56" width="4" height="4"/><rect id="uuid-5156b1f4-5321-4b1f-be44-9f8b2fc94fd6" class="uuid-33fcc8c6-fdd4-4026-abff-5c2feb2468ef" x="309" y="56" width="4" height="4"/><rect id="uuid-1cbcfe47-031e-43a5-b577-e71168089454" class="uuid-33fcc8c6-fdd4-4026-abff-5c2feb2468ef" x="333" y="56" width="4" height="4"/><rect id="uuid-b440e2ad-5e1e-4c71-956f-d1cc011340ab" class="uuid-33fcc8c6-fdd4-4026-abff-5c2feb2468ef" x="289" y="52" width="4" height="4"/><rect id="uuid-d5101d9b-5db1-4cc4-9387-829cfa5cc169" class="uuid-33fcc8c6-fdd4-4026-abff-5c2feb2468ef" x="313" y="52" width="4" height="4"/><rect id="uuid-ac6f636f-1387-495e-bb1c-0d52ac828dd3" class="uuid-33fcc8c6-fdd4-4026-abff-5c2feb2468ef" x="337" y="52" width="4" height="4"/><rect id="uuid-d94540e7-7767-4e3b-94e8-1206013bf19b" class="uuid-33fcc8c6-fdd4-4026-abff-5c2feb2468ef" x="293" y="56" width="4" height="4"/><rect id="uuid-85e4b9e8-81de-466a-b399-da5113da3580" class="uuid-33fcc8c6-fdd4-4026-abff-5c2feb2468ef" x="317" y="56" width="4" height="4"/><rect id="uuid-70af0d5e-53a5-44c1-95f3-761d8f391006" class="uuid-33fcc8c6-fdd4-4026-abff-5c2feb2468ef" x="341" y="56" width="4" height="4"/></g><g id="uuid-8c7abff5-7244-4961-8765-98ef8050d63b"><g id="uuid-5d49b4ec-692d-489f-ba33-ad1ff9af5ae8"><ellipse class="uuid-fe686479-f9ce-4b3a-a892-786f39320c16" cx="313" cy="24" rx="40" ry="12"/><ellipse class="uuid-4bf723b3-5d80-4968-bb15-634673c2d052" cx="313" cy="24" rx="39.5" ry="11.5"/></g><g id="uuid-edb65472-4500-403f-b4e3-5197ca978c59"><ellipse class="uuid-fe686479-f9ce-4b3a-a892-786f39320c16" cx="313" cy="35" rx="40" ry="12"/><ellipse class="uuid-4bf723b3-5d80-4968-bb15-634673c2d052" cx="313" cy="35" rx="39.5" ry="11.5"/></g><g id="uuid-71f11ea3-40f4-40ac-a1fa-2fb5f6bb9b60"><ellipse class="uuid-fe686479-f9ce-4b3a-a892-786f39320c16" cx="313" cy="12" rx="40" ry="12"/><ellipse class="uuid-4bf723b3-5d80-4968-bb15-634673c2d052" cx="313" cy="12" rx="39.5" ry="11.5"/></g></g><g id="uuid-e3d80ad8-2514-4c00-9252-3d77b23b4f6e" class="uuid-6e588a79-1921-42e0-be13-1009e512a49d"><g class="uuid-6e588a79-1921-42e0-be13-1009e512a49d"><path class="uuid-33fcc8c6-fdd4-4026-abff-5c2feb2468ef" d="m5.4401173,10.9995227h-1.0205078v-1.9804688H.7604298v-.8984375L3.9996876,2.5991321h1.4404297v5.5214844h1.0800781v.8984375h-1.0800781v1.9804688Zm-1.0800781-7.1992188l-2.5195312,4.3203125h2.5791016V3.800304h-.0595703Z"/><path class="uuid-33fcc8c6-fdd4-4026-abff-5c2feb2468ef" d="m12.436211,3.0014759c.4316406.3476562.7636719.8457031.9951172,1.4941406.2324219.6484375.3486328,1.4160156.3486328,2.3046875s-.1162109,1.65625-.3486328,2.3027344c-.2314453.6484375-.5634766,1.1464844-.9951172,1.4941406-.4326172.3496094-.9443359.5234375-1.5361328.5234375-.5927734,0-1.1044922-.1738281-1.5361328-.5234375-.4326172-.3476562-.7646484-.8457031-.9960938-1.4941406-.2324219-.6464844-.3476562-1.4140625-.3476562-2.3027344s.1152344-1.65625.3476562-2.3046875c.2314453-.6484375.5634766-1.1464844.9960938-1.4941406.4316406-.3476562.9433594-.5214844,1.5361328-.5214844.5917969,0,1.1035156.1738281,1.5361328.5214844Zm-3.0244141,6.1152344l2.3642578-5.4609375c-.2480469-.1835938-.5400391-.2753906-.8759766-.2753906-.6005859,0-1.0605469.2910156-1.3798828.875-.3203125.5839844-.4804688,1.4335938-.4804688,2.5449219,0,.9589844.1240234,1.7324219.3720703,2.3164062Zm2.8681641.2265625c.3193359-.5839844.4794922-1.4316406.4794922-2.5429688,0-.9765625-.1201172-1.7441406-.359375-2.3046875l-2.3886719,5.4355469c.2480469.1933594.5439453.2890625.8886719.2890625.5996094,0,1.0595703-.2929688,1.3798828-.8769531Z"/><path class="uuid-33fcc8c6-fdd4-4026-abff-5c2feb2468ef" d="m16.9303517,5.3296009c-.3007812-.2988281-.4501953-.6894531-.4501953-1.1699219s.1494141-.8691406.4501953-1.1699219c.2998047-.2988281.6894531-.4492188,1.1699219-.4492188.4794922,0,.8701172.1503906,1.1699219.4492188.2998047.3007812.4501953.6894531.4501953,1.1699219s-.1503906.8710938-.4501953,1.1699219c-.2998047.3007812-.6904297.4511719-1.1699219.4511719-.4804688,0-.8701172-.1503906-1.1699219-.4511719Zm1.8232422-.4667969c.1640625-.171875.2460938-.40625.2460938-.703125,0-.2949219-.0820312-.5292969-.2460938-.7011719s-.3818359-.2578125-.6533203-.2578125c-.2724609,0-.4902344.0859375-.6542969.2578125s-.2460938.40625-.2460938.7011719c0,.296875.0820312.53125.2460938.703125s.3818359.2578125.6542969.2578125c.2714844,0,.4892578-.0859375.6533203-.2578125Z"/><path class="uuid-33fcc8c6-fdd4-4026-abff-5c2feb2468ef" d="m27.0397267,10.9995227h-1.0205078v-1.9804688h-3.6591797v-.8984375l3.2392578-5.5214844h1.4404297v5.5214844h1.0800781v.8984375h-1.0800781v1.9804688Zm-1.0800781-7.1992188l-2.5195312,4.3203125h2.5791016V3.800304h-.0595703Z"/><path class="uuid-33fcc8c6-fdd4-4026-abff-5c2feb2468ef" d="m34.239922,10.9995227h-1.0205078v-1.9804688h-3.6591797v-.8984375l3.2392578-5.5214844h1.4404297v5.5214844h1.0800781v.8984375h-1.0800781v1.9804688Zm-1.0800781-7.1992188l-2.5195312,4.3203125h2.5791016V3.800304h-.0595703Z"/><path class="uuid-33fcc8c6-fdd4-4026-abff-5c2feb2468ef" d="m39.6998829,4.9995227h-.7207031l.4804688-2.4003906h.9599609l-.7197266,2.4003906Z"/><path class="uuid-33fcc8c6-fdd4-4026-abff-5c2feb2468ef" d="m48.639336,10.9995227h-1.0205078v-1.9804688h-3.6591797v-.8984375l3.2392578-5.5214844h1.4404297v5.5214844h1.0800781v.8984375h-1.0800781v1.9804688Zm-1.0800781-7.1992188l-2.5195312,4.3203125h2.5791016V3.800304h-.0595703Z"/><path class="uuid-33fcc8c6-fdd4-4026-abff-5c2feb2468ef" d="m53.6373829,10.862804c-.1318359-.1328125-.1982422-.2871094-.1982422-.4628906,0-.1835938.0664062-.3398438.1982422-.46875.1318359-.1269531.2861328-.1914062.4619141-.1914062.1845703,0,.3398438.0644531.4677734.1914062.1279297.1289062.1923828.2851562.1923828.46875,0,.1757812-.0644531.3300781-.1923828.4628906-.1279297.1308594-.2832031.1972656-.4677734.1972656-.1757812,0-.3300781-.0664062-.4619141-.1972656Z"/><path class="uuid-33fcc8c6-fdd4-4026-abff-5c2feb2468ef" d="m60.639336,10.9995227h-1.0800781l3.2998047-7.5h-4.3203125v-.9003906h5.4003906v.9003906l-3.2998047,7.5Z"/><path class="uuid-33fcc8c6-fdd4-4026-abff-5c2feb2468ef" d="m66.5485157,10.4838977c-.5-.4238281-.7900391-.9921875-.8701172-1.703125h1.0205078c.0634766.4238281.2578125.7695312.5820312,1.0371094s.7099609.4023438,1.1582031.4023438c.5595703,0,.9892578-.1347656,1.2900391-.4023438.2998047-.2675781.4492188-.6347656.4492188-1.0976562,0-.4648438-.1494141-.8300781-.4492188-1.0976562-.3007812-.2675781-.7304688-.4023438-1.2900391-.4023438h-.6005859v-.8398438h.6005859c.5039062,0,.8994141-.1367188,1.1875-.4082031s.4326172-.6367188.4326172-1.0917969c0-.4570312-.1445312-.8203125-.4326172-1.0917969s-.6835938-.4082031-1.1875-.4082031c-.4160156,0-.7744141.1328125-1.0742188.4023438-.2998047.2675781-.4824219.6132812-.5458984,1.0371094h-1.0205078c.1201172-.7441406.4160156-1.3203125.8886719-1.7285156.4716797-.4082031,1.0556641-.6113281,1.7519531-.6113281.8320312,0,1.4794922.21875,1.9433594.6542969s.6962891,1.0175781.6962891,1.7460938c0,.9355469-.4199219,1.5566406-1.2597656,1.859375.4394531.1523438.7802734.4003906,1.0195312.7441406.2402344.34375.3603516.7558594.3603516,1.2363281,0,.7519531-.2441406,1.3398438-.7324219,1.7636719-.4873047.4238281-1.1640625.6367188-2.0273438.6367188-.7607422,0-1.390625-.2128906-1.890625-.6367188Z"/><path class="uuid-33fcc8c6-fdd4-4026-abff-5c2feb2468ef" d="m73.2994923,10.9995227v-.9003906h2.0400391v-5.5195312h-1.6201172v-.9003906h1.1396484c.1523438,0,.2695312-.0410156.3535156-.125.0849609-.0839844.1269531-.2011719.1269531-.3535156v-.6015625h1.0195312v7.5h2.0400391v.9003906h-5.0996094Z"/><path class="uuid-33fcc8c6-fdd4-4026-abff-5c2feb2468ef" d="m81.998711,4.9995227h-.7197266l.4794922-2.4003906h.9599609l-.7197266,2.4003906Zm1.7998047,0h-.7197266l.4794922-2.4003906h.9609375l-.7207031,2.4003906Z"/><path class="uuid-33fcc8c6-fdd4-4026-abff-5c2feb2468ef" d="m88.5387501,10.9995227h-1.0205078V2.5991321h1.4521484l2.8681641,7.3203125h.1201172l-.2998047-2.0390625V2.5991321h1.0195312v8.4003906h-1.4521484l-2.8681641-7.3203125h-.1191406l.2998047,2.0410156v5.2792969Z"/><path class="uuid-33fcc8c6-fdd4-4026-abff-5c2feb2468ef" d="m97.1783985,12.2006946h-.7197266l.4804688-2.4003906h.9599609l-.7207031,2.4003906Z"/><path class="uuid-33fcc8c6-fdd4-4026-abff-5c2feb2468ef" d="m111.0387501,10.9995227h-1.0800781l3.2998047-7.5h-4.3203125v-.9003906h5.4003906v.9003906l-3.2998047,7.5Z"/><path class="uuid-33fcc8c6-fdd4-4026-abff-5c2feb2468ef" d="m116.9479298,10.4838977c-.5-.4238281-.7900391-.9921875-.8701172-1.703125h1.0205078c.0634766.4238281.2578125.7695312.5820312,1.0371094s.7099609.4023438,1.1582031.4023438c.5595703,0,.9892578-.1347656,1.2900391-.4023438.2998047-.2675781.4492188-.6347656.4492188-1.0976562,0-.4648438-.1494141-.8300781-.4492188-1.0976562-.3007812-.2675781-.7304688-.4023438-1.2900391-.4023438h-.6005859v-.8398438h.6005859c.5039062,0,.8994141-.1367188,1.1875-.4082031s.4326172-.6367188.4326172-1.0917969c0-.4570312-.1445312-.8203125-.4326172-1.0917969s-.6835938-.4082031-1.1875-.4082031c-.4160156,0-.7744141.1328125-1.0742188.4023438-.2998047.2675781-.4824219.6132812-.5458984,1.0371094h-1.0205078c.1201172-.7441406.4160156-1.3203125.8886719-1.7285156.4716797-.4082031,1.0556641-.6113281,1.7519531-.6113281.8320312,0,1.4794922.21875,1.9433594.6542969s.6962891,1.0175781.6962891,1.7460938c0,.9355469-.4199219,1.5566406-1.2597656,1.859375.4394531.1523438.7802734.4003906,1.0195312.7441406.2402344.34375.3603516.7558594.3603516,1.2363281,0,.7519531-.2441406,1.3398438-.7324219,1.7636719-.4873047.4238281-1.1640625.6367188-2.0273438.6367188-.7607422,0-1.390625-.2128906-1.890625-.6367188Z"/><path class="uuid-33fcc8c6-fdd4-4026-abff-5c2feb2468ef" d="m124.9283985,5.3296009c-.3007812-.2988281-.4501953-.6894531-.4501953-1.1699219s.1494141-.8691406.4501953-1.1699219c.2998047-.2988281.6894531-.4492188,1.1699219-.4492188.4794922,0,.8701172.1503906,1.1699219.4492188.2998047.3007812.4501953.6894531.4501953,1.1699219s-.1503906.8710938-.4501953,1.1699219c-.2998047.3007812-.6904297.4511719-1.1699219.4511719-.4804688,0-.8701172-.1503906-1.1699219-.4511719Zm1.8232422-.4667969c.1640625-.171875.2460938-.40625.2460938-.703125,0-.2949219-.0820312-.5292969-.2460938-.7011719s-.3818359-.2578125-.6533203-.2578125c-.2724609,0-.4902344.0859375-.6542969.2578125s-.2460938.40625-.2460938.7011719c0,.296875.0820312.53125.2460938.703125s.3818359.2578125.6542969.2578125c.2714844,0,.4892578-.0859375.6533203-.2578125Z"/><path class="uuid-33fcc8c6-fdd4-4026-abff-5c2feb2468ef" d="m131.5221485,10.5268665c-.5117188-.3964844-.8398438-.9785156-.984375-1.7460938h1.0205078c.1123047.4628906.328125.8203125.6474609,1.0664062.3203125.2480469.6845703.3730469,1.0927734.3730469.5439453,0,.9794922-.171875,1.3076172-.515625s.4921875-.8125.4921875-1.4042969c0-.5996094-.1640625-1.0800781-.4921875-1.4394531-.328125-.3613281-.7636719-.5410156-1.3076172-.5410156-.6962891,0-1.2363281.3007812-1.6201172.9003906h-.9599609l.4199219-4.6210938h4.5v.9003906h-3.6123047l-.2275391,2.5195312h.0595703c.4560547-.3984375.9960938-.5996094,1.6201172-.5996094.4960938,0,.9462891.1210938,1.3496094.3613281.4042969.2382812.7207031.578125.9482422,1.0136719.2285156.4355469.3417969.9375.3417969,1.5058594,0,.8710938-.2519531,1.5605469-.7558594,2.0644531s-1.1923828.7558594-2.0634766.7558594c-.671875,0-1.2646484-.1992188-1.7763672-.59375Z"/><path class="uuid-33fcc8c6-fdd4-4026-abff-5c2feb2468ef" d="m139.8375782,10.9995227h-1.0800781l3.3007812-7.5h-4.3203125v-.9003906h5.4003906v.9003906l-3.3007812,7.5Z"/><path class="uuid-33fcc8c6-fdd4-4026-abff-5c2feb2468ef" d="m147.6979298,4.9995227h-.7197266l.4794922-2.4003906h.9599609l-.7197266,2.4003906Z"/><path class="uuid-33fcc8c6-fdd4-4026-abff-5c2feb2468ef" d="m152.4977345,10.9995227v-.9003906h2.0400391v-5.5195312h-1.6201172v-.9003906h1.1396484c.1523438,0,.2705078-.0410156.3544922-.125s.1259766-.2011719.1259766-.3535156v-.6015625h1.0195312v7.5h2.0400391v.9003906h-5.0996094Z"/><path class="uuid-33fcc8c6-fdd4-4026-abff-5c2feb2468ef" d="m161.1373829,10.9995227l2.2197266-3.4199219h-.0595703c-.1679688.1445312-.3720703.25-.6123047.3183594-.2392578.0683594-.4755859.1015625-.7080078.1015625-.5273438,0-1.0019531-.1152344-1.421875-.3476562s-.7480469-.5566406-.9833984-.9726562c-.2363281-.4160156-.3544922-.8945312-.3544922-1.4394531,0-.5351562.1201172-1.0136719.3603516-1.4335938.2392578-.4199219.5771484-.7460938,1.0136719-.9785156.4355469-.2324219.9375-.3476562,1.5058594-.3476562.8798828,0,1.5800781.2597656,2.1005859.7792969.5195312.5214844.7792969,1.2402344.7792969,2.1601562,0,.8476562-.2714844,1.7089844-.8154297,2.5800781l-1.8847656,3h-1.1396484Zm2.2978516-4.421875c.3486328-.3476562.5224609-.7929688.5224609-1.3378906,0-.5429688-.1738281-.9902344-.5224609-1.3378906-.3476562-.3476562-.7939453-.5214844-1.3378906-.5214844s-.9902344.1738281-1.3378906.5214844-.5214844.7949219-.5214844,1.3378906c0,.5449219.1738281.9902344.5214844,1.3378906s.7939453.5214844,1.3378906.5214844.9902344-.1738281,1.3378906-.5214844Z"/><path class="uuid-33fcc8c6-fdd4-4026-abff-5c2feb2468ef" d="m168.8356251,10.862804c-.1318359-.1328125-.1982422-.2871094-.1982422-.4628906,0-.1835938.0664062-.3398438.1982422-.46875.1318359-.1269531.2861328-.1914062.4619141-.1914062.1845703,0,.3398438.0644531.4677734.1914062.1279297.1289062.1923828.2851562.1923828.46875,0,.1757812-.0644531.3300781-.1923828.4628906-.1279297.1308594-.2832031.1972656-.4677734.1972656-.1757812,0-.3300781-.0664062-.4619141-.1972656Z"/><path class="uuid-33fcc8c6-fdd4-4026-abff-5c2feb2468ef" d="m174.3971485,10.3393665c-.5195312-.5195312-.7792969-1.2402344-.7792969-2.1601562,0-.8476562.2714844-1.7070312.8154297-2.5800781l1.8837891-3h1.140625l-2.2207031,3.4199219h.0605469c.1513672-.1269531.3457031-.2285156.5820312-.3046875.2353516-.0761719.4814453-.1152344.7382812-.1152344.5273438,0,1.0019531.1171875,1.421875.3496094.4199219.2304688.7480469.5546875.9833984.9707031.2363281.4160156.3544922.8964844.3544922,1.4414062,0,.5351562-.1201172,1.0136719-.3603516,1.4335938s-.578125.7460938-1.0136719.9785156c-.4365234.2304688-.9384766.3476562-1.5058594.3476562-.8808594,0-1.5800781-.2597656-2.1005859-.78125Zm3.4384766-.640625c.3476562-.3496094.5214844-.7949219.5214844-1.3378906,0-.5449219-.1738281-.9902344-.5214844-1.3378906-.3486328-.3496094-.7939453-.5234375-1.3378906-.5234375-.5449219,0-.9902344.1738281-1.3378906.5234375-.3486328.3476562-.5224609.7929688-.5224609,1.3378906,0,.5429688.1738281.9882812.5224609,1.3378906.3476562.3476562.7929688.5214844,1.3378906.5214844.5439453,0,.9892578-.1738281,1.3378906-.5214844Z"/><path class="uuid-33fcc8c6-fdd4-4026-abff-5c2feb2468ef" d="m181.2975392,10.9995227v-.9003906h2.0400391v-5.5195312h-1.6201172v-.9003906h1.1396484c.1523438,0,.2695312-.0410156.3535156-.125.0849609-.0839844.1269531-.2011719.1269531-.3535156v-.6015625h1.0195312v7.5h2.0400391v.9003906h-5.0996094Z"/><path class="uuid-33fcc8c6-fdd4-4026-abff-5c2feb2468ef" d="m188.4977345,10.9995227v-.9003906h2.0400391v-5.5195312h-1.6201172v-.9003906h1.1396484c.1523438,0,.2695312-.0410156.3535156-.125.0849609-.0839844.1269531-.2011719.1269531-.3535156v-.6015625h1.0195312v7.5h2.0400391v.9003906h-5.0996094Z"/><path class="uuid-33fcc8c6-fdd4-4026-abff-5c2feb2468ef" d="m197.1969532,4.9995227h-.7197266l.4794922-2.4003906h.9599609l-.7197266,2.4003906Zm1.7998047,0h-.7197266l.4794922-2.4003906h.9609375l-.7207031,2.4003906Z"/><path class="uuid-33fcc8c6-fdd4-4026-abff-5c2feb2468ef" d="m204.3610157,10.9995227h-1.2607422l-.9833984-8.4003906h.9716797l.4804688,4.5605469.0712891,2.4609375h.1201172l.8642578-4.8613281h1.34375l.8642578,4.8613281h.1201172l.0722656-2.4609375.4794922-4.5605469h.9716797l-.9833984,8.4003906h-1.2597656l-.9003906-5.21875h-.0595703l-.9121094,5.21875Z"/></g></g><g id="uuid-bc11e50e-67ae-4a0c-88ed-7cedde2703a2"><g id="uuid-472c9567-f5d4-4d35-9a8d-86529fd82e1d" class="uuid-6e588a79-1921-42e0-be13-1009e512a49d"><g class="uuid-6e588a79-1921-42e0-be13-1009e512a49d"><path class="uuid-33fcc8c6-fdd4-4026-abff-5c2feb2468ef" d="m51.6803517,58.6167102c-.4755859-.3359375-.7421875-.8085938-.7978516-1.4160156h.9003906c.0546875.34375.2402344.609375.5517578.796875.3115234.1894531.6875.2832031,1.1279297.2832031.5351562,0,.9296875-.0878906,1.1816406-.265625.2519531-.1757812.3789062-.40625.3789062-.6953125,0-.2167969-.0722656-.3886719-.2167969-.515625-.1445312-.1289062-.3242188-.2265625-.5400391-.2949219-.2158203-.0664062-.5078125-.140625-.8759766-.2207031-.4960938-.1035156-.8984375-.2128906-1.2060547-.3242188s-.5712891-.2949219-.7919922-.546875c-.2197266-.2519531-.3300781-.5976562-.3300781-1.0371094,0-.3125.0878906-.5996094.2636719-.8652344.1757812-.2636719.4365234-.4746094.78125-.6347656.34375-.1601562.7558594-.2402344,1.2353516-.2402344.6396484,0,1.1826172.1445312,1.6259766.4316406.4433594.2890625.7021484.7246094.7734375,1.3085938h-.8994141c-.0634766-.2714844-.2255859-.4902344-.4853516-.6542969-.2607422-.1640625-.5986328-.2460938-1.0146484-.2460938-.4404297,0-.7802734.0820312-1.0205078.2460938s-.359375.3828125-.359375.6542969c0,.2324219.0742188.4160156.2216797.5507812.1474609.1367188.3320312.2421875.5517578.3183594.2207031.0761719.5263672.1582031.9179688.2460938.4882812.1132812.8828125.2226562,1.1826172.3300781s.5556641.2832031.7675781.5214844c.2119141.2402344.3183594.5644531.3183594.9726562,0,.5273438-.2138672.9609375-.6416016,1.296875-.4287109.3359375-1.0351562.5039062-1.8183594.5039062-.7128906,0-1.3066406-.1679688-1.7822266-.5039062Z"/><path class="uuid-33fcc8c6-fdd4-4026-abff-5c2feb2468ef" d="m59.1920704,58.7299915c-.4199219-.2597656-.75-.6347656-.9892578-1.1210938-.2402344-.4882812-.3613281-1.0644531-.3613281-1.7285156s.1210938-1.2402344.3613281-1.7285156c.2392578-.4882812.5693359-.8613281.9892578-1.1210938s.8896484-.390625,1.4101562-.390625.9892578.1308594,1.4091797.390625c.4208984.2597656.75.6328125.9902344,1.1210938s.3603516,1.0644531.3603516,1.7285156-.1201172,1.2402344-.3603516,1.7285156c-.2402344.4863281-.5693359.8613281-.9902344,1.1210938-.4199219.2597656-.8886719.390625-1.4091797.390625s-.9902344-.1308594-1.4101562-.390625Zm2.3525391-.7324219c.2832031-.1875.5078125-.4609375.671875-.8222656.1640625-.359375.2460938-.7910156.2460938-1.2949219s-.0820312-.9355469-.2460938-1.296875c-.1640625-.359375-.3886719-.6328125-.671875-.8222656-.2851562-.1875-.5986328-.28125-.9423828-.28125-.3447266,0-.6582031.09375-.9423828.28125-.2832031.1894531-.5078125.4628906-.671875.8222656-.1640625.3613281-.2460938.7929688-.2460938,1.296875s.0820312.9355469.2460938,1.2949219c.1640625.3613281.3886719.6347656.671875.8222656.2841797.1894531.5976562.2832031.9423828.2832031.34375,0,.6572266-.09375.9423828-.2832031Z"/><path class="uuid-33fcc8c6-fdd4-4026-abff-5c2feb2468ef" d="m70.0817188,58.9995227h-4.5v-.8398438h1.8613281v-6.71875h-1.3203125v-.8417969h2.2197266v7.5605469h1.7392578v.8398438Z"/><path class="uuid-33fcc8c6-fdd4-4026-abff-5c2feb2468ef" d="m77.2819142,58.9995227h-4.5v-.8398438h1.8603516v-4.5605469h-1.3808594v-.8398438h2.28125v5.4003906h1.7392578v.8398438Zm-2.6337891-7.5664062c-.1240234-.1230469-.1855469-.2695312-.1855469-.4375,0-.1757812.0615234-.3261719.1855469-.4492188.1240234-.125.2734375-.1855469.4492188-.1855469.1767578,0,.3242188.0605469.4453125.1855469.1191406.1230469.1796875.2734375.1796875.4492188,0,.1679688-.0605469.3144531-.1796875.4375-.1210938.125-.2685547.1875-.4453125.1875-.1757812,0-.3251953-.0625-.4492188-.1875Z"/><path class="uuid-33fcc8c6-fdd4-4026-abff-5c2feb2468ef" d="m80.6364063,58.753429c-.3720703-.2441406-.6640625-.6074219-.8759766-1.0917969s-.3183594-1.078125-.3183594-1.78125c0-.7050781.1064453-1.2988281.3183594-1.7832031.2119141-.4824219.5039062-.8476562.8759766-1.0917969.3710938-.2441406.7929688-.3652344,1.265625-.3652344.6962891,0,1.2763672.3007812,1.7402344.9003906h.0605469v-2.9414062h.8994141v8.4003906h-.7197266l-.1201172-.8398438h-.0595703c-.4492188.640625-1.0488281.9609375-1.8007812.9609375-.4726562,0-.8945312-.1230469-1.265625-.3671875Zm2.2324219-.7441406c.2519531-.1796875.453125-.4492188.6054688-.8085938.1523438-.3613281.2285156-.8007812.2285156-1.3203125s-.0761719-.9609375-.2285156-1.3203125-.3535156-.6308594-.6054688-.8105469-.5351562-.2695312-.8466797-.2695312-.59375.0898438-.8457031.2695312c-.2529297.1796875-.4541016.4511719-.6064453.8105469s-.2275391.8007812-.2275391,1.3203125.0751953.9589844.2275391,1.3203125c.1523438.359375.3535156.6289062.6064453.8085938.2519531.1816406.5341797.2714844.8457031.2714844s.5947266-.0898438.8466797-.2714844Z"/><path class="uuid-33fcc8c6-fdd4-4026-abff-5c2feb2468ef" d="m88.9401173,58.862804c-.1318359-.1328125-.1982422-.2871094-.1982422-.4628906,0-.1835938.0664062-.3398438.1982422-.46875.1318359-.1269531.2861328-.1914062.4619141-.1914062.1835938,0,.3398438.0644531.4677734.1914062.1279297.1289062.1923828.2851562.1923828.46875,0,.1757812-.0644531.3300781-.1923828.4628906-.1279297.1308594-.2841797.1972656-.4677734.1972656-.1757812,0-.3300781-.0664062-.4619141-.1972656Z"/><path class="uuid-33fcc8c6-fdd4-4026-abff-5c2feb2468ef" d="m95.2809376,58.8139759c-.3359375-.203125-.5996094-.4960938-.7910156-.875-.1923828-.3808594-.2880859-.8261719-.2880859-1.3398438v-3.8398438h.8994141v3.8398438c0,.5292969.1328125.9414062.3964844,1.2363281.2636719.296875.6113281.4453125,1.0439453.4453125.2958984,0,.5615234-.0761719.7978516-.2285156s.421875-.3574219.5585938-.6191406c.1347656-.2597656.203125-.5371094.203125-.8339844v-3.8398438h.9003906v6.2402344h-.7207031l-.1191406-.8398438h-.0605469c-.1992188.3359375-.4453125.5800781-.7382812.7324219-.2910156.1523438-.6054688.2285156-.9414062.2285156-.4238281,0-.8037109-.1035156-1.140625-.3066406Z"/><path class="uuid-33fcc8c6-fdd4-4026-abff-5c2feb2468ef" d="m101.4020313,58.9995227v-6.2402344h.7197266l.1201172.8398438h.0605469c.1992188-.3359375.4472656-.578125.7441406-.7304688.2949219-.1523438.6074219-.2285156.9355469-.2285156.4238281,0,.8037109.1015625,1.1396484.3066406.3359375.203125.6005859.4960938.7919922.875.1914062.3808594.2880859.8261719.2880859,1.3378906v3.8398438h-.8994141v-3.8398438c0-.5273438-.1328125-.9394531-.3964844-1.2363281-.2636719-.2949219-.6123047-.4433594-1.0439453-.4433594-.2958984,0-.5625.0761719-.7978516.2285156-.2363281.1523438-.421875.3574219-.5585938.6171875-.1357422.2597656-.203125.5390625-.203125.8339844v3.8398438h-.9003906Z"/><path class="uuid-33fcc8c6-fdd4-4026-abff-5c2feb2468ef" d="m113.2809376,58.9995227h-4.5v-.8398438h1.8613281v-6.71875h-1.3203125v-.8417969h2.2197266v7.5605469h1.7392578v.8398438Z"/><path class="uuid-33fcc8c6-fdd4-4026-abff-5c2feb2468ef" d="m120.9010548,56.1206165h-4.5478516c.03125.6875.2177734,1.21875.5585938,1.5957031.3398438.375.7695312.5644531,1.2890625.5644531.3203125,0,.6123047-.0800781.8769531-.2402344.2636719-.1601562.4833984-.3808594.6601562-.6601562h.9589844c-.1992188.5351562-.5234375.9589844-.9716797,1.2714844s-.9560547.46875-1.5244141.46875c-.5351562,0-1.0117188-.1308594-1.4277344-.390625s-.7421875-.6347656-.9785156-1.1210938c-.2353516-.4882812-.3535156-1.0644531-.3535156-1.7285156s.1201172-1.2402344.3603516-1.7285156c.2392578-.4882812.5693359-.8613281.9892578-1.1210938s.890625-.390625,1.4101562-.390625c.5117188,0,.9785156.125,1.3984375.3769531s.7519531.5996094.9960938,1.0390625.3652344.9277344.3652344,1.4628906c0,.1777344-.0195312.3769531-.0595703.6015625Zm-.8398438-.78125c-.0478516-.5351562-.2421875-.9785156-.5820312-1.3320312-.3398438-.3515625-.7666016-.5273438-1.2783203-.5273438-.4794922,0-.8857422.1582031-1.2177734.4746094s-.5341797.7773438-.6064453,1.3847656h3.6845703Z"/><path class="uuid-33fcc8c6-fdd4-4026-abff-5c2feb2468ef" d="m123.6793751,58.6167102c-.4765625-.3359375-.7421875-.8085938-.7978516-1.4160156h.8994141c.0566406.34375.2402344.609375.5527344.796875.3125.1894531.6875.2832031,1.1279297.2832031.5361328,0,.9296875-.0878906,1.1816406-.265625.2529297-.1757812.3779297-.40625.3779297-.6953125,0-.2167969-.0722656-.3886719-.2158203-.515625-.1435547-.1289062-.3232422-.2265625-.5400391-.2949219-.2158203-.0664062-.5078125-.140625-.8759766-.2207031-.4960938-.1035156-.8974609-.2128906-1.2060547-.3242188s-.5722656-.2949219-.7919922-.546875-.3300781-.5976562-.3300781-1.0371094c0-.3125.0888672-.5996094.2646484-.8652344.1757812-.2636719.4355469-.4746094.7792969-.6347656s.7558594-.2402344,1.2363281-.2402344c.640625,0,1.1816406.1445312,1.6259766.4316406.4443359.2890625.7021484.7246094.7744141,1.3085938h-.9003906c-.0644531-.2714844-.2265625-.4902344-.4863281-.6542969s-.5976562-.2460938-1.0136719-.2460938c-.4394531,0-.7802734.0820312-1.0195312.2460938-.2402344.1640625-.3603516.3828125-.3603516.6542969,0,.2324219.0732422.4160156.2216797.5507812.1484375.1367188.3320312.2421875.5527344.3183594.21875.0761719.5253906.1582031.9179688.2460938.4873047.1132812.8808594.2226562,1.1816406.3300781.2998047.1074219.5556641.2832031.7675781.5214844.2119141.2402344.3183594.5644531.3183594.9726562,0,.5273438-.2148438.9609375-.6425781,1.296875s-1.0332031.5039062-1.8173828.5039062c-.7119141,0-1.3056641-.1679688-1.7822266-.5039062Z"/><path class="uuid-33fcc8c6-fdd4-4026-abff-5c2feb2468ef" d="m130.8785938,58.6167102c-.4755859-.3359375-.7421875-.8085938-.796875-1.4160156h.8994141c.0556641.34375.2402344.609375.5517578.796875.3125.1894531.6875.2832031,1.1289062.2832031.5351562,0,.9296875-.0878906,1.1816406-.265625.2519531-.1757812.3779297-.40625.3779297-.6953125,0-.2167969-.0722656-.3886719-.2158203-.515625-.1445312-.1289062-.3242188-.2265625-.5410156-.2949219-.2148438-.0664062-.5078125-.140625-.875-.2207031-.4960938-.1035156-.8984375-.2128906-1.2070312-.3242188-.3076172-.1113281-.5712891-.2949219-.7910156-.546875-.2207031-.2519531-.3300781-.5976562-.3300781-1.0371094,0-.3125.0878906-.5996094.2636719-.8652344.1757812-.2636719.4355469-.4746094.7802734-.6347656.34375-.1601562.7558594-.2402344,1.2353516-.2402344.640625,0,1.1826172.1445312,1.6269531.4316406.4433594.2890625.7011719.7246094.7734375,1.3085938h-.9003906c-.0634766-.2714844-.2255859-.4902344-.4853516-.6542969-.2607422-.1640625-.5986328-.2460938-1.0146484-.2460938-.4394531,0-.7792969.0820312-1.0195312.2460938s-.359375.3828125-.359375.6542969c0,.2324219.0732422.4160156.2207031.5507812.1484375.1367188.3320312.2421875.5527344.3183594.2197266.0761719.5253906.1582031.9179688.2460938.4882812.1132812.8818359.2226562,1.1816406.3300781.3007812.1074219.5566406.2832031.7675781.5214844.2128906.2402344.3183594.5644531.3183594.9726562,0,.5273438-.2138672.9609375-.6416016,1.296875-.4287109.3359375-1.0341797.5039062-1.8173828.5039062-.7128906,0-1.3066406-.1679688-1.7832031-.5039062Z"/><path class="uuid-33fcc8c6-fdd4-4026-abff-5c2feb2468ef" d="m139.3395313,58.862804c-.1328125-.1328125-.1992188-.2871094-.1992188-.4628906,0-.1835938.0664062-.3398438.1992188-.46875.1308594-.1269531.2851562-.1914062.4609375-.1914062.1845703,0,.3398438.0644531.46875.1914062.1269531.1289062.1914062.2851562.1914062.46875,0,.1757812-.0644531.3300781-.1914062.4628906-.1289062.1308594-.2841797.1972656-.46875.1972656-.1757812,0-.3300781-.0664062-.4609375-.1972656Z"/><path class="uuid-33fcc8c6-fdd4-4026-abff-5c2feb2468ef" d="m145.4352345,58.753429c-.3720703-.2441406-.6640625-.6074219-.8759766-1.0917969s-.3183594-1.078125-.3183594-1.78125c0-.7050781.1064453-1.2988281.3183594-1.7832031.2119141-.4824219.5039062-.8476562.8759766-1.0917969.3710938-.2441406.7929688-.3652344,1.265625-.3652344.6962891,0,1.2763672.3007812,1.7402344.9003906h.0605469v-2.9414062h.8994141v8.4003906h-.7197266l-.1201172-.8398438h-.0595703c-.4492188.640625-1.0488281.9609375-1.8007812.9609375-.4726562,0-.8945312-.1230469-1.265625-.3671875Zm2.2324219-.7441406c.2519531-.1796875.453125-.4492188.6054688-.8085938.1523438-.3613281.2285156-.8007812.2285156-1.3203125s-.0761719-.9609375-.2285156-1.3203125-.3535156-.6308594-.6054688-.8105469-.5351562-.2695312-.8466797-.2695312-.59375.0898438-.8457031.2695312c-.2529297.1796875-.4541016.4511719-.6064453.8105469s-.2275391.8007812-.2275391,1.3203125.0751953.9589844.2275391,1.3203125c.1523438.359375.3535156.6289062.6064453.8085938.2519531.1816406.5341797.2714844.8457031.2714844s.5947266-.0898438.8466797-.2714844Z"/><path class="uuid-33fcc8c6-fdd4-4026-abff-5c2feb2468ef" d="m152.6647267,58.8686634c-.3115234-.1679688-.5537109-.3984375-.7255859-.6914062-.171875-.2910156-.2578125-.6171875-.2578125-.9765625,0-.3613281.0898438-.6875.2695312-.9785156.1796875-.2929688.4375-.5214844.7734375-.6894531s.7285156-.2519531,1.1757812-.2519531h1.6210938v-.4199219c0-.4238281-.125-.7617188-.3730469-1.0097656-.2480469-.2460938-.5839844-.3710938-1.0078125-.3710938-.328125,0-.6074219.0722656-.8398438.2167969-.2324219.1425781-.3916016.3710938-.4794922.6835938h-.9003906c.0878906-.5449219.3339844-.9707031.7382812-1.2792969.4033203-.3066406.8974609-.4609375,1.4814453-.4609375.6884766,0,1.2402344.203125,1.65625.6113281s.6240234.9453125.6240234,1.609375v4.1386719h-.7197266l-.1201172-.7792969h-.0595703c-.1523438.2324219-.3828125.4394531-.6904297.6230469-.3076172.1855469-.6787109.2773438-1.1103516.2773438-.3916016,0-.7441406-.0839844-1.0556641-.2519531Zm2.3759766-1.0800781c.3203125-.328125.4804688-.7441406.4804688-1.2480469v-.4199219h-1.6210938c-.4394531,0-.7695312.0957031-.9892578.2871094s-.3300781.4570312-.3300781.7929688.1083984.5996094.3242188.7910156.5283203.2890625.9365234.2890625c.4794922,0,.8789062-.1640625,1.1992188-.4921875Z"/><path class="uuid-33fcc8c6-fdd4-4026-abff-5c2feb2468ef" d="m160.6871876,58.597179c-.3642578-.3476562-.546875-.7929688-.546875-1.3378906v-3.6601562h-1.5595703v-.8398438h1.5595703l.1210938-1.6796875h.7792969v1.6796875h2.3398438v.8398438h-2.3398438v3.6015625c0,.328125.0976562.5898438.2949219.7851562.1953125.1953125.4570312.2949219.7851562.2949219.3125,0,.5625-.0820312.75-.2460938s.2988281-.3632812.3300781-.59375h.9003906c-.0322266.4707031-.2265625.8691406-.5820312,1.1933594-.3564453.3242188-.8222656.4863281-1.3984375.4863281-.5917969,0-1.0703125-.1738281-1.4335938-.5234375Z"/><path class="uuid-33fcc8c6-fdd4-4026-abff-5c2feb2468ef" d="m167.0641407,58.8686634c-.3115234-.1679688-.5537109-.3984375-.7255859-.6914062-.171875-.2910156-.2578125-.6171875-.2578125-.9765625,0-.3613281.0898438-.6875.2705078-.9785156.1796875-.2929688.4375-.5214844.7734375-.6894531s.7285156-.2519531,1.1757812-.2519531h1.6201172v-.4199219c0-.4238281-.1240234-.7617188-.3720703-1.0097656-.2480469-.2460938-.5839844-.3710938-1.0078125-.3710938-.328125,0-.6074219.0722656-.8398438.2167969-.2324219.1425781-.3925781.3710938-.4804688.6835938h-.9003906c.0878906-.5449219.3339844-.9707031.7382812-1.2792969.4042969-.3066406.8984375-.4609375,1.4824219-.4609375.6875,0,1.2402344.203125,1.65625.6113281s.6230469.9453125.6230469,1.609375v4.1386719h-.71875l-.1210938-.7792969h-.0595703c-.1513672.2324219-.3818359.4394531-.6904297.6230469-.3076172.1855469-.6777344.2773438-1.109375.2773438-.3925781,0-.7441406-.0839844-1.0566406-.2519531Zm2.3769531-1.0800781c.3193359-.328125.4794922-.7441406.4794922-1.2480469v-.4199219h-1.6201172c-.4394531,0-.7695312.0957031-.9902344.2871094-.2197266.1914062-.3300781.4570312-.3300781.7929688s.1083984.5996094.3242188.7910156c.2167969.1914062.5283203.2890625.9365234.2890625.4794922,0,.8798828-.1640625,1.2001953-.4921875Z"/></g></g><g id="uuid-23853621-3353-4f9c-b411-f14ace8a07f9"><rect id="uuid-e430a76b-cba2-4484-b977-e659f6b442ab" class="uuid-33fcc8c6-fdd4-4026-abff-5c2feb2468ef" x="3" y="24" width="1" height="18"/><rect id="uuid-1716ddc3-464e-4157-be02-a71c575b315a" class="uuid-33fcc8c6-fdd4-4026-abff-5c2feb2468ef" x="6" y="24" width="1" height="18"/><rect id="uuid-492e7993-d54b-4c29-b143-0c9a787027d8" class="uuid-33fcc8c6-fdd4-4026-abff-5c2feb2468ef" x="11" y="24" width="1" height="18"/><rect id="uuid-1e66f020-9fd4-4202-afb2-e9ec557c8d87" class="uuid-33fcc8c6-fdd4-4026-abff-5c2feb2468ef" x="19" y="24" width="1" height="18"/><rect id="uuid-87e9d719-3bb9-42b9-a543-fd26b6873cc4" class="uuid-33fcc8c6-fdd4-4026-abff-5c2feb2468ef" x="22" y="24" width="1" height="18"/><rect id="uuid-6e20d1b9-dc4c-44b2-9eb3-25c7c1c8df1c" class="uuid-33fcc8c6-fdd4-4026-abff-5c2feb2468ef" x="31" y="24" width="1" height="18"/><rect id="uuid-ab79bd74-408c-4f10-afdc-fb15793f9b28" class="uuid-33fcc8c6-fdd4-4026-abff-5c2feb2468ef" x="37" y="24" width="1" height="18"/><rect id="uuid-5f25273e-944e-4094-bf73-bcd7689e5a70" class="uuid-33fcc8c6-fdd4-4026-abff-5c2feb2468ef" x="39" y="24" width="1" height="18"/><rect id="uuid-3a44e47e-2872-404e-aa26-332b83f5d06f" class="uuid-33fcc8c6-fdd4-4026-abff-5c2feb2468ef" x="44" y="24" width="1" height="18"/><rect id="uuid-11ff8c1a-b4cc-45ce-96d2-13e7e86c8af6" class="uuid-33fcc8c6-fdd4-4026-abff-5c2feb2468ef" x="52" y="24" width="1" height="18"/><rect id="uuid-41ebcdc7-d8b0-45ef-9680-7fcf71051ef4" class="uuid-33fcc8c6-fdd4-4026-abff-5c2feb2468ef" x="55" y="24" width="1" height="18"/><rect id="uuid-1a18c471-6d1d-40bc-8283-9b3b6f2a5040" class="uuid-33fcc8c6-fdd4-4026-abff-5c2feb2468ef" x="60" y="24" width="1" height="18"/><rect id="uuid-90480609-adff-4996-aef1-49d4c24dfbbf" class="uuid-33fcc8c6-fdd4-4026-abff-5c2feb2468ef" x="66" y="24" width="1" height="18"/><rect id="uuid-b7d4eda3-2378-4fb9-b95e-a14625295048" class="uuid-33fcc8c6-fdd4-4026-abff-5c2feb2468ef" x="77" y="24" width="1" height="18"/><rect id="uuid-fd939c60-4a4e-4bfd-84a4-bcf163c42954" class="uuid-33fcc8c6-fdd4-4026-abff-5c2feb2468ef" x="86" y="24" width="1" height="18"/><rect id="uuid-84daea54-4fc6-4f1f-bb39-860417fbea48" class="uuid-33fcc8c6-fdd4-4026-abff-5c2feb2468ef" x="94" y="24" width="1" height="18"/><rect id="uuid-4eeb0cb3-b20c-4d9b-93fb-4a06b78a8a9e" class="uuid-33fcc8c6-fdd4-4026-abff-5c2feb2468ef" x="96" y="24" width="1" height="18"/><rect id="uuid-592a36ee-1d54-464b-8edb-60c4acb4cd79" class="uuid-33fcc8c6-fdd4-4026-abff-5c2feb2468ef" x="103" y="24" width="1" height="18"/><rect id="uuid-7d155efb-5656-4601-9808-7fcd3a1c35c0" class="uuid-33fcc8c6-fdd4-4026-abff-5c2feb2468ef" x="105" y="24" width="1" height="18"/><rect id="uuid-35d210c1-dd69-40b1-aa3c-06724af3ae18" class="uuid-33fcc8c6-fdd4-4026-abff-5c2feb2468ef" x="110" y="24" width="1" height="18"/><rect id="uuid-7eeeee3c-eadf-4f29-b100-c158f2c59d41" class="uuid-33fcc8c6-fdd4-4026-abff-5c2feb2468ef" x="116" y="24" width="1" height="18"/><rect id="uuid-76c09014-3791-42ce-bf20-f97cbdc0339f" class="uuid-33fcc8c6-fdd4-4026-abff-5c2feb2468ef" x="121" y="24" width="1" height="18"/><rect id="uuid-a8647705-9363-49f7-9f20-e036062463f1" class="uuid-33fcc8c6-fdd4-4026-abff-5c2feb2468ef" x="129" y="24" width="1" height="18"/><rect id="uuid-ae2c1e3e-e08e-4a17-bbdc-4243104e6584" class="uuid-33fcc8c6-fdd4-4026-abff-5c2feb2468ef" x="132" y="24" width="1" height="18"/><rect id="uuid-0971ed5b-e2dd-4aee-82a0-71f8a57032da" class="uuid-33fcc8c6-fdd4-4026-abff-5c2feb2468ef" x="140" y="24" width="1" height="18"/><rect id="uuid-c09a0eb9-84d0-4a2b-92bb-a78635b810e3" class="uuid-33fcc8c6-fdd4-4026-abff-5c2feb2468ef" x="143" y="24" width="1" height="18"/><rect id="uuid-587bcb07-dcff-4c0b-a349-73de2e14f7de" class="uuid-33fcc8c6-fdd4-4026-abff-5c2feb2468ef" x="154" y="24" width="1" height="18"/><rect id="uuid-9e389ff1-52a2-4fd5-bcb2-67780f7e6eb2" class="uuid-33fcc8c6-fdd4-4026-abff-5c2feb2468ef" x="159" y="24" width="1" height="18"/><rect id="uuid-d7a8254f-ef19-44ad-a7d4-76c1e77f751c" class="uuid-33fcc8c6-fdd4-4026-abff-5c2feb2468ef" x="165" y="24" width="1" height="18"/><rect id="uuid-74c999ba-f197-4098-a7b1-8e7e1499d489" class="uuid-33fcc8c6-fdd4-4026-abff-5c2feb2468ef" x="168" y="24" width="1" height="18"/><rect id="uuid-14d3ae4d-17d1-4199-870f-c307671973e8" class="uuid-33fcc8c6-fdd4-4026-abff-5c2feb2468ef" x="176" y="24" width="1" height="18"/><rect id="uuid-8a1e67df-a348-483a-9e30-0af0e817ae30" class="uuid-33fcc8c6-fdd4-4026-abff-5c2feb2468ef" x="184" y="24" width="1" height="18"/><rect id="uuid-fc54d535-ab19-4d97-a526-3079bac03009" class="uuid-33fcc8c6-fdd4-4026-abff-5c2feb2468ef" x="187" y="24" width="1" height="18"/><rect id="uuid-1209ee21-19c8-46a7-a26a-4ce2ee702f7a" class="uuid-33fcc8c6-fdd4-4026-abff-5c2feb2468ef" x="190" y="24" width="1" height="18"/><rect id="uuid-dffaf6e2-0a44-409c-9572-752f86b0ee0d" class="uuid-33fcc8c6-fdd4-4026-abff-5c2feb2468ef" x="201" y="24" width="1" height="18"/><rect id="uuid-5690609a-5b63-4a5e-a40f-6bed4a8b4a4d" class="uuid-33fcc8c6-fdd4-4026-abff-5c2feb2468ef" x="205" y="24" width="3" height="18"/><rect id="uuid-2b3482aa-7d65-4b8e-859c-840d4085d7aa" class="uuid-33fcc8c6-fdd4-4026-abff-5c2feb2468ef" x="214" y="24" width="3" height="18"/><rect id="uuid-ad33b4ad-55b1-4762-87cb-2dd37dcb6fe6" class="uuid-33fcc8c6-fdd4-4026-abff-5c2feb2468ef" x="192" y="24" width="2" height="18"/><rect id="uuid-145c040a-3579-4f49-9f42-a273fa3fed32" class="uuid-33fcc8c6-fdd4-4026-abff-5c2feb2468ef" x="198" y="24" width="2" height="18"/><rect id="uuid-02b42bea-5fc8-4e68-9d40-f083bebb4b13" class="uuid-33fcc8c6-fdd4-4026-abff-5c2feb2468ef" x="209" y="24" width="2" height="18"/><rect id="uuid-df5501f8-9521-484a-8bbe-74d63ac2212d" class="uuid-33fcc8c6-fdd4-4026-abff-5c2feb2468ef" x="218" y="24" width="1" height="18"/><rect id="uuid-1552b104-dc65-4b3a-969c-482e93128e64" class="uuid-33fcc8c6-fdd4-4026-abff-5c2feb2468ef" x="220" y="24" width="2" height="18"/><rect id="uuid-2648c662-09d7-4f48-b8d0-f1cdc3585802" class="uuid-33fcc8c6-fdd4-4026-abff-5c2feb2468ef" x="179" y="24" width="4" height="18"/><rect id="uuid-f2941a52-49bc-4f9e-bad1-67200eb648b1" class="uuid-33fcc8c6-fdd4-4026-abff-5c2feb2468ef" x="170" y="24" width="2" height="18"/><rect id="uuid-65246066-9319-4212-b4ae-def25d02021c" class="uuid-33fcc8c6-fdd4-4026-abff-5c2feb2468ef" x="162" y="24" width="2" height="18"/><rect id="uuid-0cbc3099-e024-4c7c-9c3e-b002e3cd9956" class="uuid-33fcc8c6-fdd4-4026-abff-5c2feb2468ef" x="146" y="24" width="2" height="18"/><rect id="uuid-790fa743-31c0-4a65-85aa-0b202b4d8512" class="uuid-33fcc8c6-fdd4-4026-abff-5c2feb2468ef" x="150" y="24" width="3" height="18"/><rect id="uuid-1e44269c-37eb-472a-94e9-304b6e586fe4" class="uuid-33fcc8c6-fdd4-4026-abff-5c2feb2468ef" x="112" y="24" width="2" height="18"/><rect id="uuid-6ed14d15-1ba0-425d-ba67-83958e05a45e" class="uuid-33fcc8c6-fdd4-4026-abff-5c2feb2468ef" x="123" y="24" width="4" height="18"/><rect id="uuid-72696191-7e56-4f14-841b-837d9f055211" class="uuid-33fcc8c6-fdd4-4026-abff-5c2feb2468ef" x="134" y="24" width="4" height="18"/><rect id="uuid-0a3ef244-b218-47ea-bb4b-2ebff59fdc8c" class="uuid-33fcc8c6-fdd4-4026-abff-5c2feb2468ef" x="99" y="24" width="2" height="18"/><rect id="uuid-7c49f695-d153-4cd6-b464-abe73c3b9104" class="uuid-33fcc8c6-fdd4-4026-abff-5c2feb2468ef" x="88" y="24" width="2" height="18"/><rect id="uuid-b8f238f9-12cb-418f-b17d-a1f92e293bdb" class="uuid-33fcc8c6-fdd4-4026-abff-5c2feb2468ef" x="80" y="24" width="4" height="18"/><rect id="uuid-1c713d82-59ef-4698-84a9-f0e50b159f5a" class="uuid-33fcc8c6-fdd4-4026-abff-5c2feb2468ef" x="33" y="24" width="2" height="18"/><rect id="uuid-b800c47b-abe6-41ba-90de-79b8929694ee" class="uuid-33fcc8c6-fdd4-4026-abff-5c2feb2468ef" x="49" y="24" width="2" height="18"/><rect id="uuid-406e23e0-1080-4d74-8d1d-59932d506d32" class="uuid-33fcc8c6-fdd4-4026-abff-5c2feb2468ef" x="63" y="24" width="2" height="18"/><rect id="uuid-d0f8a7e8-99dd-483b-9f7a-a6d9fa2427ae" class="uuid-33fcc8c6-fdd4-4026-abff-5c2feb2468ef" x="69" y="24" width="2" height="18"/><rect id="uuid-bb7bc3e0-39c5-4138-b414-4f65907a98a4" class="uuid-33fcc8c6-fdd4-4026-abff-5c2feb2468ef" x="73" y="24" width="3" height="18"/><rect id="uuid-6499e793-254b-417e-a430-3b2cc2023ddd" class="uuid-33fcc8c6-fdd4-4026-abff-5c2feb2468ef" y="24" width="2" height="18"/><rect id="uuid-460934ca-b0e5-4531-b19a-85c50c893ac0" class="uuid-33fcc8c6-fdd4-4026-abff-5c2feb2468ef" x="13" y="24" width="4" height="18"/><rect id="uuid-98def912-875e-4264-917e-3e1cd591768c" class="uuid-33fcc8c6-fdd4-4026-abff-5c2feb2468ef" x="26" y="24" width="4" height="18"/></g></g></svg>